<?xml version="1.0" encoding="utf-8"?>
<!-- Generator: Adobe Illustrator 26.2.1, SVG Export Plug-In . SVG Version: 6.00 Build 0)  -->
<svg version="1.1" id="Layer_1" xmlns="http://www.w3.org/2000/svg" xmlns:xlink="http://www.w3.org/1999/xlink" x="0px" y="0px"
	 viewBox="0 0 2500 856.8" style="enable-background:new 0 0 2500 856.8;" xml:space="preserve">
<style type="text/css">
	.st0{fill-rule:evenodd;clip-rule:evenodd;fill:#FFFFFF;}
</style>
<g>
	<path class="st0" d="M279.8,136.3l-57.9,144.8c-8.8,21.4-18.9,34-31.5,36.5h-2.5v10.1h59.2v-10.1h-2.5c-12.6,0-18.9-5-18.9-15.1
		l8.8-27.7l3.8-10.1H305l17.6,44.1c0,6.3-6.3,8.8-18.9,8.8h-2.5v10.1h79.3v-10.1h-1.3c-6.3,0-12.6-2.5-15.1-6.3l-12.6-25.2
		l-63-149.8H279.8L279.8,136.3z M303.7,254.6H242l30.2-71.8L303.7,254.6z M524.1,148.8c-11.3,0-18.9,2.5-21.4,5
		c-2.5,6.3-3.8,13.8-3.8,28.9v103.3c0,13.9,1.3,22.7,3.8,25.2c2.5,3.8,10.1,6.3,25.2,6.3h10.1c17.6,0,30.2-5,37.8-15.1
		c6.3-6.3,11.3-18.9,15.1-34h10.1l-1.3,59.2H435.9v-10.1h6.3c10.1,0,16.4-2.5,18.9-6.3c1.3-5,3.8-15.1,3.8-30.2v-98.2
		c0-15.1-2.5-25.2-3.8-28.9c-2.5-2.5-11.3-5-21.4-5h-3.8v-7.5h94.4v7.5H524.1z M779.7,198v63h-10.1v-2.5c0-10.1-2.5-16.4-5-21.4
		l-20.1-3.8h-18.9v46.6c0,16.4,1.3,26.4,3.8,31.5c2.5,3.8,10.1,6.3,22.7,6.3h11.3c18.9,0,31.5-5,39-15.1c6.3-10.1,12.6-21.4,15.1-34
		h10.1l-3.8,59.2H663.8v-10.1h2.5c10.1,0,16.4-2.5,21.4-6.3c1.3-5,1.3-15.1,1.3-30.2v-98.2c0-15.1,0-22.7-1.3-27.7
		c-5.4-4.1-12.1-6.3-18.9-6.3h-2.5v-7.5h141l3.8,45.3h-8.8c-1.3-12.6-6.3-20.2-10.1-25.2c-6.3-7.6-18.9-12.6-37.8-12.6h-29v74.3
		h18.9c10.1,0,16.4-2.5,20.1-5c2.5-1.3,5-7.6,5-18.9V198L779.7,198L779.7,198z M1107.1,327.7h-100.7v-10.1h2.5
		c13.9,0,22.7-2.5,22.7-8.8l-12.6-22.7l-31.5-37.8l-29,32.7L945.9,305c0,7.5,6.3,12.6,16.4,12.6h2.5v10.1h-75.5v-10.1h1.3
		c17.6-2.5,36.5-15.1,55.4-37.8l35.3-40.3l-47.8-56.7l-23.9-28.9c-3.8-2.5-10.1-5-18.9-5h-1.3v-7.5h89.4v7.5h-3.8
		c-10.1,0-15.1,2.5-15.1,8.8l11.3,16.4l31.5,40.3l31.5-37.8c6.3-8.8,10.1-15.1,10.1-16.4c0-6.3-6.3-11.3-18.9-11.3h-2.5v-7.5h71.8
		v7.5h-2.5c-10.1,0-18.9,2.5-25.2,8.8l-26.4,27.7l-30.2,35.3l46.6,59.2l27.7,31.5l22.7,6.3V327.7z M1343.8,317.6
		c-6.3,0-12.6-2.5-13.9-6.3l-12.6-25.2l-63-149.8h-8.8l-59.2,144.8l-13.9,27.7c-5,3.8-11.3,6.3-17.6,8.8h-1.3v10.1h57.9v-10.1h-1.3
		c-12.6,0-18.9-5-18.9-15.1l7.5-27.7l5-10.1h66.7l12.6,27.7l3.8,16.4c0,6.3-6.3,8.8-18.9,8.8h-1.2v10.1h79.3v-10.1L1343.8,317.6
		L1343.8,317.6z M1267,254.6h-59.2l29-71.8L1267,254.6z M1601.9,148.8c-10.1,2.5-18.9,6.3-22.7,12.6l-2.5,17.6v152.4h-7.5
		l-131-163.7v115.8c0,12.6,0,18.9,2.5,21.4c6.3,7.5,15.1,12.6,25.2,12.6h3.8v10.1h-70.5v-10.1h1.3c12.6,0,21.4-5,25.2-12.6l2.5-21.4
		v-98.2c0-17.6-2.5-27.7-8.8-31.5l-16.4-5h-2.5v-7.5h56.7l109.5,133.5v-95.7c0-12.6-2.5-21.4-6.3-23.9l-21.4-6.3h-1.3v-7.5h66.7v7.5
		L1601.9,148.8L1601.9,148.8z M1824.8,155.1c-21.4-10.1-50.4-16.4-90.7-16.4h-37.8l-26.4,2.5v7.5h3.8c10.1,0,16.4,2.5,21.4,6.3
		l1.2,30.2v95.7l-1.2,30.2c-5.4,4.1-12.1,6.3-18.9,6.3h-6.3v10.1h75.6l63-6.3c39-12.6,57.9-41.6,57.9-85.6
		C1866.4,198,1852.5,170.2,1824.8,155.1L1824.8,155.1z M1793.3,157.7c22.7,12.6,34,40.3,34,79.3c0,30.2-6.3,52.9-21.4,68
		c-10.1,7.5-27.7,12.6-50.4,12.6c-10.1,0-16.4-2.5-18.9-6.3c-2.5-6.3-3.8-17.6-3.8-36.5V148.8l16.4-1.3
		C1768.2,147.6,1783.3,151.4,1793.3,157.7L1793.3,157.7z M2101.8,268.5l-2.5,59.2h-161.2v-10.1h3.8c11.3,0,17.6-2.5,18.9-6.3
		c2.5-5,5-15.1,5-30.2v-98.2c0-15.1-2.5-22.7-5-27.7c-1.3-3.8-7.5-6.3-16.4-6.3h-2.5v-7.5h143.5l1.3,45.3h-7.5
		c-2.5-10.1-6.3-18.9-11.3-25.2c-6.3-7.6-20.1-12.6-39-12.6h-27.7v74.3h18.9c10.1,0,16.4-2.5,18.9-5c3.8-1.3,6.3-7.6,6.3-18.9V198
		h10.1v63h-10.1v-2.5c0-10.1-2.5-16.4-3.8-21.4l-21.4-3.8h-18.9v46.6c0,16.4,2.5,26.4,3.8,31.5c2.5,3.8,11.3,6.3,23.9,6.3h10.1
		c18.9,0,31.5-5,37.8-15.1c6.3-10.1,12.6-21.4,16.4-34L2101.8,268.5L2101.8,268.5z M2370,327.7v-10.1c-13.9,0-31.5-12.6-50.4-37.8
		c-16.4-25.2-28.9-40.3-39-46.6c32.7-6.3,50.4-21.4,50.4-46.6c0-16.4-8.8-29-25.2-37.8c-12.6-7.5-34-12.6-63-12.6l-71.8,5v7.5h2.5
		c10.1,0,18.9,2.5,20.1,5l5,28.9v98.2l-5,30.2c-1.3,3.8-7.5,6.3-18.9,6.3h-6.3v10.1h94.4v-10.1h-7.5c-11.3,0-17.6-2.5-18.9-6.3
		c-2.5-5-5-15.1-5-30.2v-41.6h2.5c10.1,0,16.4,2.5,21.4,3.8l26.4,36.5c15.1,25.2,27.7,41.6,36.5,47.8L2370,327.7L2370,327.7z
		 M2290.7,186.6c0,25.2-8.8,37.8-27.7,40.3l-31.5,2.5v-80.6h12.6c17.6,0,30.2,2.5,36.5,8.8C2287,164,2290.7,172.8,2290.7,186.6
		L2290.7,186.6z M458.6,437.2L355.3,665.1h-10.1l-107-227.9v151.1c0,22.6,2.5,37.8,8.8,45.3c3.8,12.6,13.9,18.9,31.5,18.9h1.3v12.6
		h-94.4v-12.6h2.5c15.1,0,25.2-6.3,31.5-18.9c3.8-7.5,6.3-25.2,6.3-47.8V462.4c0-23.9-2.5-36.5-6.3-42.8c-3.8-6.3-12.6-7.6-27.7-7.6
		h-6.3v-12.6H276L368,604.7l93.2-205.3h89.4V412H543c-15.1,0-25.2,3.8-30.2,10.1c-3.8,6.3-6.3,18.9-6.3,40.3v139.7
		c0,21.4,2.5,36.5,8.8,42.8c2.5,6.3,10.1,7.6,25.2,7.6h10.1v12.6H418.3v-12.6h6.3c15.1,0,23.9-1.3,27.7-7.6
		c3.8-6.3,6.3-21.4,6.3-42.8L458.6,437.2L458.6,437.2z M653.8,531.7c0,54.1,21.4,94.4,65.5,119.6c22.7,13.9,47.8,20.1,76.8,20.1
		l15.1-1.2L752,702.9c-13.9,6.3-20.1,12.6-20.1,18.9c0,6.3,3.8,8.8,10.1,8.8l16.4-8.8c11.3-10.1,23.9-16.4,36.5-16.4
		c18.9,0,41.6,8.8,66.7,27.7l27.7,18.9c18.9,10.1,35.3,13.8,54.1,13.8c46.6,0,71.8-22.6,78.1-66.7h-12.6
		c-6.3,18.9-21.4,27.7-44.1,27.7c-17.6,0-37.8-5-63-15.1c-37.8-15.1-69.2-21.4-94.4-21.4l-6.3,2.5l47.8-27.7
		c31.5-10.1,54.1-26.4,71.8-50.4c18.9-22.6,26.4-50.4,26.4-81.8c0-39.1-13.9-73.1-41.6-100.7c-27.7-25.2-60.4-37.8-104.5-37.8
		c-44.1,0-80.6,12.6-107,37.8C666.4,457.3,653.8,491.3,653.8,531.7L653.8,531.7z M798.6,409.5c21.4,0,40.3,6.3,56.7,18.9
		c22.7,18.9,34,52.9,34,104.5c0,34-6.3,61.7-17.6,81.8l-13.9,18.9c-15.1,15.1-34,23.9-56.7,23.9c-30.2,0-50.4-11.3-65.5-30.2
		c-16.4-25.2-25.2-57.9-25.2-98.2c0-34,6.3-60.4,18.9-81.9C744.4,422.1,767.1,409.5,798.6,409.5L798.6,409.5z M1084.4,462.4
		c0-23.9-2.5-36.5-6.3-42.8c-5-6.3-15.1-7.6-30.2-7.6h-3.8v-12.6h128.4V412h-5c-13.9,0-25.2,1.3-29,7.6c-3.8,6.3-6.3,18.9-6.3,42.8
		v89.4c0,36.5,3.8,61.7,10.1,71.8c11.3,18.9,31.5,28.9,63,28.9c17.6,0,31.5-3.8,46.6-12.6c15.1-7.6,22.7-18.9,28.9-32.7
		c2.5-8.8,5-27.7,5-55.4v-91.9c0-16.4-2.5-28.9-8.8-35.3c-3.8-6.3-15.1-11.3-28.9-12.6h-2.5v-12.6h94.4V412h-3.8l-21.4,7.6
		c-10.1,6.3-15.1,17.6-15.1,34v115.8c0,35.3-10.1,60.4-28.9,76.8c-18.9,17.6-46.6,25.2-79.3,25.2c-40.3,0-71.8-12.6-90.7-37.8
		c-15.1-16.4-18.9-37.8-16.4-63L1084.4,462.4L1084.4,462.4z M1583.1,481.3h12.6v89.4h-12.6v-1.3c0-15.1-1.3-25.2-7.6-30.2
		c-5-3.8-15.1-6.3-30.2-6.3h-26.4v63c0,25.2,1.3,40.3,6.3,46.6c3.8,6.3,13.9,10.1,32.7,10.1h15.1c25.2,0,44.1-7.6,54.1-22.7
		c11.3-12.6,17.6-28.9,23.9-47.8h12.6l-5,83.1h-227.9v-12.6h6.3c13.9,0,22.7-1.3,26.4-7.6c5-6.3,6.3-21.4,6.3-42.8V462.4
		c0-21.4-1.3-36.5-6.3-42.8c-3.8-6.3-12.6-7.6-26.4-7.6h-2.5v-12.6h204l3.8,66.7h-12.6c-3.4-13.4-9-26.1-16.4-37.8
		c-5.4-5.5-11.8-9.7-18.9-12.6l-34-2.5h-41.6V519h26.4c15.1,0,25.2-2.5,30.2-6.3c6.3-6.3,7.6-15.1,7.6-30.2V481.3L1583.1,481.3z
		 M1941.9,428.4l-16.4-12.6l-35.3-2.5h-42.8v105.8h27.7c15.1,0,22.7-2.5,28.9-6.3c5-6.3,6.3-15.1,6.3-30.2v-1.3h15.1v89.4h-15.1
		v-1.3c0-15.1-1.3-25.2-6.3-30.2c-3.8-3.8-13.9-6.3-28.9-6.3h-27.7v63c0,25.2,2.5,40.3,6.3,46.6c5,6.3,15.1,10.1,34,10.1h15.1
		c25.2,0,44.1-7.6,54.2-22.7c10.1-12.6,16.4-28.9,22.7-47.8h12.6l-3.8,83.1h-229.2v-12.6h6.3c15.1,0,23.9-1.3,27.7-7.6
		c3.8-6.3,6.3-21.4,6.3-42.8V462.4c0-21.4-2.5-36.5-6.3-42.8c-3.8-6.3-12.6-7.6-25.2-7.6h-3.8v-12.6h202.7l5,66.7h-12.6
		C1955.2,452.9,1949.3,440.2,1941.9,428.4L1941.9,428.4z M2338.6,456.1v215.3h-13.9l-182.6-232.9v166.2c0,16.4,1.3,27.7,3.8,31.5
		c6.3,10.1,18.9,16.4,35.3,16.4h5v12.6h-99.5v-12.6c18.9-1.3,31.5-6.3,36.5-16.4c1.2-3.8,3.8-15.1,3.8-31.5v-141
		c0-25.2-3.8-39-10.1-45.3l-27.7-6.3h-2.5v-12.6h84.4l153.6,192.7V453.6c0-16.4-5-27.7-11.3-34c-6.3-6.3-16.4-7.6-26.4-7.6h-5v-12.6
		h96.9V412h-3.8c-15.1,1.3-25.2,6.3-31.5,16.4C2341.1,434.7,2338.6,443.5,2338.6,456.1z"/>
	<path class="st0" d="M804.9,481.3c-22.7,0-34,16.4-34,47.8c0,35.3,12.6,52.9,36.5,52.9c16.4,0,26.4-8.8,32.7-25.2l8.8,3.8
		c-6.3,21.4-22.7,31.5-47.8,31.5c-18.9,0-34-6.3-44.1-16.4c-11.3-11.3-17.6-25.2-17.6-42.8c0-18.9,6.3-32.7,18.9-44.1
		c12.6-12.6,27.7-18.9,46.6-18.9c10.1,0,21.4,2.5,28.9,8.8c6.3,3.8,11.3,10.1,11.3,16.4c0,6.2-5,11.3-11.2,11.3c0,0-0.1,0-0.1,0
		c-6.3,0-12.6-5-13.8-15.1C817.5,485.1,813.7,481.3,804.9,481.3L804.9,481.3z"/>
</g>
</svg>
