<?xml version="1.0" encoding="utf-8"?>
<!-- Generator: Adobe Illustrator 26.2.1, SVG Export Plug-In . SVG Version: 6.00 Build 0)  -->
<svg version="1.1" id="Layer_1" xmlns="http://www.w3.org/2000/svg" xmlns:xlink="http://www.w3.org/1999/xlink" x="0px" y="0px"
	 viewBox="0 0 2500 669" style="enable-background:new 0 0 2500 669;" xml:space="preserve">
<style type="text/css">
	.st0{fill:#FFFFFF;}
</style>
<path class="st0" d="M1.6,23.6h220c1.3,0,0.9,6.7,0,6.7h-45.4c0,0-12.7-0.5-8.9,6.7c0.8,1.5,155.4,438.7,155.4,438.7
	s2.7,7.5,4.9,8.4c0,0,137.4-439,137.6-439.4c1.4-4.3,6.3-14.1-2.2-14.1h-49.7c-0.9,0-0.9-6.7,0-6.7h118.4c0.9,0,0.9,6.7,0,6.7h-44
	c-12.1-0.3-12.2,3.6-14.3,10.1C472.1,43.9,281.9,657,281.9,657s-0.9-2.7-1.6-5C199.8,411.4,74.9,76.6,65.1,40.9
	c-3-10.7-4.4-10.4-10.5-10.3c-2.2,0-51.4,0-53,0C0,30.6,0.2,23.6,1.6,23.6"/>
<path class="st0" d="M9.8,68.8c0-9.6,7.5-17.4,16.8-17.4c9.3,0,16.8,7.8,16.8,17.4c0,9.6-7.5,17.4-16.8,17.4
	C17.3,86.1,9.8,78.4,9.8,68.8 M26.6,84.2c8.2,0,14.9-6.9,14.9-15.4c0-8.5-6.7-15.4-14.9-15.4c-8.2,0-14.9,6.9-14.9,15.4
	C11.7,77.3,18.3,84.2,26.6,84.2"/>
<path class="st0" d="M20.8,59.9h6.6c4,0,5.7,1.7,5.7,5c0,2.9-2,4.4-4.5,4.8l5.2,8.3h-1.7l-5.3-8.4h-4.6V78h-1.5L20.8,59.9z
	 M22.3,68.3H26c2.6,0,5.5-0.3,5.5-3.5c0-2.8-2.3-3.6-4.4-3.6h-4.8L22.3,68.3z M574.2,332.4c0-175.5,32.6-318.9,152.9-318.8
	C856.6,13.6,882,162.9,882,332.4c0,175.5-24.7,326.8-153.8,326.7C589.7,659,574.2,516.9,574.2,332.4 M725.8,664.1
	c128.4,0.5,267.3-146.5,267.6-328.4C993.8,145.3,860.3,9.6,728,8.5C592.7,7.4,462.8,161,462.8,335.8
	C462.8,516.5,585.5,663.6,725.8,664.1 M1356.9,393.4h50.2c0,0,9.3-1,9.2,3.7l0,148.6c0,114.3-110.2,115.6-141.3,111.9
	c-115.2-13.5-117.6-259.3-118.2-323.9c-1.6-175.5,25.1-328.3,141-322.2c137.6,7.2,173.6,211,175.8,220.2c4.6,1.7,4.6-2.3,4.6-2.3
	L1478.6,7c0,0-0.9-1.9-3.7,0.7c-1,1-2.1,2.1-3.4,3.5c-60.9,64.3-91.4-3-179.9-5.9c-109-3.6-244.4,152.6-246.2,332.9
	c-1.7,181.4,113.5,321.2,239.4,326.1c68.3,2.7,66.8-17,151.1-44c51.5-16.5,75.8,19.4,77.7,34.3c3.2,2.2,3.5-1.7,3.5-1.7v-255
	c0-5.1,6.8-4.2,6.8-4.2h46.5c1.2,0,1.2-7,0-7h-213.8C1355,386.7,1355,393.4,1356.9,393.4 M2485.9,23.5V252c0,1.1-4.3,1.4-4.3,0
	c0-1.4,4.1-222-194-222h-74.3c-4.2,0-6.7,0.8-6.7,4.1v285.4c0,2.7,2.6,4.1,6.5,4.1h24.8c117.9,0,108.4-122.3,108.4-123.7
	c0-1.4,4.6-1.1,4.6,0l0.3,257.9c0,1.1-3.5,1.4-3.5,0c0-1.4-2.7-127.5-112.5-127.5h-22.1c-3.8,0-6.5,1.5-6.5,4.2v307.1
	c0,2.2,2.5,4.1,6.7,4.1c16.6,0.1,59.4,0.2,71.3,0.2c212.9,0.5,210.1-235.7,210.1-236.8c0-1.1,5.4-1.1,5.4,0v244.7h-449.2
	c-1.4,0-1.2-6.7,0-6.7h44.9c4,0,6.6-1.4,6.6-4.1c0-53.3,0.1-604.1,0-608.7c-0.1-3.9-5-4.2-6.6-4.2l-99.4,0c0,0-6.5,0.1-6.5,3.9
	c0,43.3-0.1,408.7,0,460.8v0.2c0.2,128.9-95.6,170.9-164.5,172.1l-0.1-0.2c-81.1,0.4-226.8-13.7-226.8-199.5
	c0,0-0.4-422.8-0.5-428.6c-0.3-9.2-11.3-8.7-11.3-8.7l-47.6,0.1c-1.5,0-1.2-6.7,0-6.7h224.4c1.2,0,0.8,6.7,0,6.7l-47.7,0
	c0,0-14.7-0.9-14.7,9.2c0,14.3,0.3,471.7,0.3,487.9c0,71.3,39.1,134.5,124,133c66.3-1.2,158.4-41.6,158.1-165.4
	c0-6.1,0-414.8,0-460.8c-0.3-3.6-7-3.9-7-3.9h-62.3c-1.3,0-1.1-6.5,0.3-6.5L2485.9,23.5"/>
<path class="st0" d="M746.1,321.6c0-15.7-13.5-22.7-26.8-22.7c-2,0-4,0.1-6.1,0.2l-0.7,0c-2.2,0.1-4,0.2-5.9,0.2h-13.4v1.5h8.1v66.7
	H689l-26-70.8h-1l-25.8,70.8h-6.4v1.5h15.7v-1.5h-7.6l8.6-24h21.6l8.5,24h-8.5v1.5h52.7v-1.5h-8v-28.6l0.3,0.2
	c1.9,1.2,5.6,3.3,9.9,3.3c4.2,0,7.1-0.6,10.3-2.1C741.4,336.5,746.1,329.7,746.1,321.6 M716.3,300.5c0.9-0.1,1.7-0.1,2.6-0.1
	c10,0,14.8,6.9,14.8,21.2c0,12.8-3.8,19.4-11.3,19.4c-3.7,0-7-2.3-9-3.7l-0.6-0.4v-36.1h0.2c1.2-0.1,2.2-0.2,3.1-0.2L716.3,300.5z
	 M667.5,342h-20.4l10.2-28.1L667.5,342z M841.8,299.3v1.5h8.1v46.8l-31.2-48.4h-17.6v1.5h8v66.7h-11.9l-26-70.8h-1l-25.8,70.8h-6.4
	v1.5h15.7v-1.5h-7.6l8.6-24h21.6l8.5,24h-8.5v1.5h42.4v-1.5h-8.1v-59.1l39.7,61.4h1v-69h8.1v-1.5L841.8,299.3z M775.7,342h-20.4
	l10.2-28.1L775.7,342z M635.9,299.3h-27.7v1.5h8V356c0,7.8-3.7,13.2-9,13.2c-6.1,0-9.7-7.6-9.7-14.8v-0.2h-1v14.5l0.1,0
	c1.1,0.3,7,2,11.5,2c12.8,0,19.8-8.2,19.8-23v-47h8.1L635.9,299.3z"/>
</svg>
