<?xml version="1.0" encoding="utf-8"?>
<!-- Generator: Adobe Illustrator 26.2.1, SVG Export Plug-In . SVG Version: 6.00 Build 0)  -->
<svg version="1.1" id="Layer_1" xmlns="http://www.w3.org/2000/svg" xmlns:xlink="http://www.w3.org/1999/xlink" x="0px" y="0px"
	 viewBox="0 0 2500 2500" style="enable-background:new 0 0 2500 2500;" xml:space="preserve">
<style type="text/css">
	.st0{fill-rule:evenodd;clip-rule:evenodd;fill:#FFFFFF;}
</style>
<g>
	<path class="st0" d="M1960.7,844.9c23.7-132.8-64.8-237.2-167.6-313c-143.9-105.9-306.7-169.2-474.3-218.2v1751.8
		c74.3-64.8,148.6-137.5,219.7-211.9c151.8-167.6,292.5-338.3,351-543.9c23.7-93.3,11.1-199.2-68-262.4
		C1889.5,993.5,1951.2,927.1,1960.7,844.9z M1671.3,1450.4c-52.2,94.9-123.3,181.8-207.1,262.4l-1.6-501.2
		c56.9-41.1,115.4-77.5,186.6-83.8c28.5,0,53.8,9.5,72.7,31.6C1785.2,1259.1,1710.9,1363.4,1671.3,1450.4z M1815.2,805.3
		c-14.2,79.1-101.2,124.9-162.9,158.1c-61.7,31.6-124.9,56.9-189.7,80.6V531.8c99.6,30,189.7,80.6,275.1,140.7
		C1777.3,705.7,1831,746.8,1815.2,805.3L1815.2,805.3z M1189.1,2052.8V307.3L1048.4,380v936c-6.3,26.9,12.6,68-17.4,80.6
		c-7.9,1.6-14.2-1.6-17.4-7.9c-60.1-226.1-85.4-464.8-96.4-709.9l-4.7-213.4L778.1,565v56.9c7.9,226.1,23.7,447.4,66.4,659.3
		l-53.7,60.1c-20.6-28.5-33.2-58.5-47.4-88.5c-68-180.2-93.3-377.9-102.8-581.8l-117,87c11.1,309.9,69.6,602.4,257.7,834.8
		c36.4-41.1,72.7-83.8,109.1-123.3c19,83.8,45.8,164.4,77.5,243.5C1020,1834.6,1078.5,1957.9,1189.1,2052.8L1189.1,2052.8z"/>
	<path class="st0" d="M2265.8,536.5l-210.3-52.2l-37.9-142.3l-215-50.6l-44.3-154.9L1250.8,21.1l-498,115.4l-44.3,154.9l-215,50.6
		c-14.2,49-26.9,96.4-39.5,143.9l-210.3,50.6C227.9,984,351.2,1377.6,574.1,1728.6c162.8,251.4,407.9,517,676.7,648.2
		c181.8-87,343.1-232.4,488.5-395.3C2091.9,1573.7,2284.8,1096.2,2265.8,536.5L2265.8,536.5z M1646,1889.9
		c-115.4,129.6-245.1,257.7-390.5,332c-139.1-69.6-260.9-189.7-371.5-311.5c-287.7-336.8-479.1-713-510.7-1154.1
		c-3.2-36.4-4.7-71.1-3.2-109.1l178.7-41.1l41.1-147l219.8-52.2l1.6-4.7l39.5-151.8l398.4-93.3l411.1,93.3l39.5,154.9l222.9,53.8
		l37.9,147l180.2,41.1C2136.2,1127.9,1944.9,1531,1646,1889.9L1646,1889.9z M1712.5,2359.5c23.7-1.6,39.5-14.2,39.5-41.1
		c0-30-19-44.3-55.4-44.3h-56.9v151.8h25.3v-64.8h23.7l39.5,64.8h26.9L1712.5,2359.5z M1665,2340.5v-45.8h30
		c14.2,0,31.6,3.2,31.6,22.1c0,20.6-15.8,23.7-34.8,23.7H1665L1665,2340.5z"/>
	<path class="st0" d="M1693.5,2225.1c-71.1,0-129.6,58.5-129.6,129.6s58.5,129.6,129.6,129.6c71.2,0,129.7-58.5,129.7-129.6
		S1764.6,2225.1,1693.5,2225.1z M1693.5,2471.7c-64.5,0.1-116.8-52-117-116.5c0-0.2,0-0.4,0-0.5c-0.2-64.5,52-116.8,116.5-117
		c0.2,0,0.4,0,0.5,0c64.8,0,117,52.2,117,117c0.2,64.5-52,116.8-116.4,117C1693.9,2471.7,1693.7,2471.7,1693.5,2471.7z"/>
</g>
</svg>
