<svg xmlns="http://www.w3.org/2000/svg" xmlns:xlink="http://www.w3.org/1999/xlink" viewBox="0 0 471.5 400"><defs><style>.cls-1{fill:url(#linear-gradient);}</style><linearGradient id="linear-gradient" x1="54.9" y1="121.71" x2="463.26" y2="409.3" gradientUnits="userSpaceOnUse"><stop offset="0.03" stop-color="#e6d272"/><stop offset="1" stop-color="#b88923"/></linearGradient></defs><g id="Layer_2" data-name="Layer 2"><g id="Layer_2_copy" data-name="Layer 2 copy"><path class="cls-1" d="M387.62,400h1.83q11.08-19.37,22.6-38.78,20.81-35.09,42.08-68.89l-32.95-44.95.65.05s-1.93-5.59,5.81-4,12.44,3.67,12.23-1.23,0-4.68,5.5-4.07,23.44,3.47,23.44,3.47,3.06,1,2.65-1.44-6.73-2.35-6.73-2.35-19.76-3.35-24.24-3.76c-2.85-.27-19.53-1.91-31.31-3.1-6.76-.68-11.91-1.18-11.91-1.18v-7.33l6.19.71,40.28,4.58.41-2.64-16.71-1.64-.62-10.39-33.12-3.23-23.33-2.27s-2.86-3.87,0-6.93c0,0,8.53.53,17.6,1.37,6.74.62,13.79,1.42,17.86,2.29,0,0,4.28,0,.21-2.24l-9-1.42a4.85,4.85,0,0,1,0-6.12l13.46,1s2.45-.21.41-3.07H403a2.89,2.89,0,0,1-2.25-3.25c.4-2.65-12.63-3.06-12.63-3.06l-12.58-1.13-24.12-2.13s-3.46-1.64,0-6.93c0,0,9.58.5,18.25,1,5.86.36,11.32.76,13.14,1,4.49.61,2.65-1.84-.81-2s-1.84-5.91-1.84-5.91H364.67l-.11,0L239.93,0,115.28,170.09h-14s1.63,5.7-1.83,5.91-5.31,2.65-.82,2c1.63-.23,6.24-.56,11.44-.89,9.06-.58,19.95-1.15,19.95-1.15,3.47,5.29,0,6.93,0,6.93l-25.88,2.29-10.8,1s-13,.41-12.64,3.06a2.89,2.89,0,0,1-2.24,3.25h-8c-2,2.86.41,3.07.41,3.07l13.46-1a4.83,4.83,0,0,1,0,6.12l-9,1.42c-4.07,2.24.21,2.24.21,2.24a161.34,161.34,0,0,1,16.11-2.12c9.7-.94,19.35-1.54,19.35-1.54,2.86,3.06,0,6.93,0,6.93L86,210l-31.35,3.05L54,223.48l-16.71,1.64.41,2.64,38.49-4.39,8-.9v7.33l-13.68,1.37c-11.61,1.16-26.82,2.66-29.54,2.91-4.47.41-24.24,3.76-24.24,3.76s-6.32-.08-6.73,2.35,2.65,1.44,2.65,1.44,17.93-2.86,23.44-3.47,5.7-.81,5.5,4.07,4.48,2.86,12.22,1.23c4.84-1,5.91.78,6,2.28L26.68,291Q48.36,325.4,69.6,361.22,81.12,380.65,92.2,400h9.51a1393.89,1393.89,0,0,1,285.91,0ZM130.33,327.43q-10.16-17-20.51-33.37l39.3-53.65c3.88-.11,8.78-.26,12.44-.42,7.13-.3.51-3.05.51-3.05s-5,.43-11.06.91c-8.62.68-19.36,1.54-20.74,1.54-2.34,0-5.91-5.82-.09-7.55,2.92-.87,14.84-1.38,26.45-1.68s22.62-.41,24.49-.46c3.77-.11.52-2.44.52-2.44a23.6,23.6,0,0,1-8.36-1.13c-4.07-1.42-2-7.64-2-7.64s-2.45.13-6.29.3c-13.16.65-42.56,2-44.37,1.53-2.34-.6-4-5.29.31-6.21,3.83-.82,39.56-1.4,49.1-2.18a14.23,14.23,0,0,0,2.16-.26c2.89-.87.67-3,.41-3.26h0l-28,.93c-5.79-2.56,1.13-7.35,1.13-7.35s18.6,0,31.9-.36c6.73-.17,12.12-.41,13-.76,2.76-1,.72-2.34.72-2.34l-11.23-.36L175,198c1.84-5.5-.71-7.63-.71-7.63l-24.24.19c-4.39-2.13-.21-6.41-.21-6.41s15.39-1.42,17-1.22a2,2,0,0,0,2.15-1.32c-.2-3.68,4.38-3.78,4.38-3.78l22.13-.71,25.16-.82c3.67-.81,0-1.72,0-1.72H184.48c-6.21-2.66,0-6.94,0-6.94l18.34-.5,11.63-.32c3.46-1.83,0-2.65,0-2.65H205l35.12-47.93,35.11,47.93H267s-3.46.82,0,2.65l10.35.29,19.62.53s6.2,4.28,0,6.94c0,0-8.58.06-13.79.45a27.43,27.43,0,0,0-3.18.4c-3.36.77.14,1.5.14,1.5l4.52.14,23.41.76s4.58.1,4.39,3.78a2,2,0,0,0,2.13,1.32c1.63-.2,17,1.22,17,1.22s4.18,4.28-.19,6.41l-24.26-.19s-2.55,2.13-.72,7.63l-6.3.21-10,.31s-2,1.33.71,2.34c.87.32,5.64.55,11.77.71,13.35.37,33.17.41,33.17.41s6.94,4.79,1.12,7.35l-28-.93a4.36,4.36,0,0,0-.69.8c-.49.78-.81,1.9,1.1,2.47a7.84,7.84,0,0,0,.81.14c6.74.83,46.39,1.43,50.45,2.3,4.28.92,2.64,5.61.3,6.21-1.88.49-33.26-1-45.66-1.58l-5-.25s2,6.22-2,7.64a23.54,23.54,0,0,1-8.35,1.13s-3.27,2.33.5,2.44c1.82.05,12.2.15,23.21.43,12,.28,24.72.81,27.75,1.71,5.8,1.73,2.24,7.55-.11,7.55-1.45,0-13.25-.93-22.07-1.65l-9.73-.8s-6.62,2.75.52,3.05c3.26.14,7.51.28,11.15.39L371,294.86q-10.11,16.06-20.06,32.64-54.94-2.7-111-2.72Q184.63,324.78,130.33,327.43ZM0,242.18c-.16-.91.76-1.83,2-2.05s2.46.33,2.62,1.25-.74,1.83-2,2.05S.18,243.1,0,242.18ZM29.43,228c-.11-.66.6-1.34,1.6-1.52s1.91.23,2,.89-.6,1.36-1.6,1.53S29.56,228.61,29.43,228ZM60.36,195c0-1,1.14-1.83,2.53-1.83s2.52.82,2.52,1.83-1.13,1.83-2.52,1.83S60.36,196,60.36,195ZM188,209c.08,1-2,2-4.69,2.18s-4.9-.47-5-1.48,2-2,4.69-2.18S188,208,188,209Zm-97-31.59c0-.58.87-1.07,1.91-1.07s1.91.49,1.91,1.07-.85,1.07-1.91,1.07S91.08,178,91.08,177.42Z"/></g></g></svg>