<?xml version="1.0" encoding="utf-8"?>
<!-- Generator: Adobe Illustrator 26.2.1, SVG Export Plug-In . SVG Version: 6.00 Build 0)  -->
<svg version="1.1" id="Layer_1" xmlns="http://www.w3.org/2000/svg" xmlns:xlink="http://www.w3.org/1999/xlink" x="0px" y="0px"
	 viewBox="0 0 471.5 400" style="enable-background:new 0 0 471.5 400;" xml:space="preserve">
<style type="text/css">
	.st0{fill:url(#SVGID_1_);}
</style>
<g id="Layer_2_00000120544878745125814670000000786177986422558336_">
	<g id="Layer_2_copy">
		
			<linearGradient id="SVGID_1_" gradientUnits="userSpaceOnUse" x1="54.8944" y1="799.718" x2="463.2543" y2="1087.308" gradientTransform="matrix(1 0 0 1 0 -678)">
			<stop  offset="0" style="stop-color:#1AD8F6"/>
			<stop  offset="1" style="stop-color:#0BB5E4"/>
		</linearGradient>
		<path class="st0" d="M387.6,400h1.8c7.4-12.9,14.9-25.8,22.6-38.8c13.9-23.4,27.9-46.4,42.1-68.9l-33-44.9l0.6,0.1
			c0,0-1.9-5.6,5.8-4s12.4,3.7,12.2-1.2s0-4.7,5.5-4.1s23.4,3.5,23.4,3.5s3.1,1,2.6-1.4s-6.7-2.4-6.7-2.4s-19.8-3.4-24.2-3.8
			c-2.9-0.3-19.5-1.9-31.3-3.1c-6.8-0.7-11.9-1.2-11.9-1.2v-7.3l6.2,0.7l40.3,4.6l0.4-2.6l-16.7-1.6l-0.6-10.4l-33.1-3.2l-23.3-2.3
			c0,0-2.9-3.9,0-6.9c0,0,8.5,0.5,17.6,1.4c6.7,0.6,13.8,1.4,17.9,2.3c0,0,4.3,0,0.2-2.2l-9-1.4c-1.4-1.8-1.4-4.3,0-6.1l13.5,1
			c0,0,2.5-0.2,0.4-3.1H403c-1.5-0.3-2.5-1.7-2.2-3.2c0.4-2.6-12.6-3.1-12.6-3.1l-12.6-1.1l-24.1-2.1c0,0-3.5-1.6,0-6.9
			c0,0,9.6,0.5,18.2,1c5.9,0.4,11.3,0.8,13.1,1c4.5,0.6,2.6-1.8-0.8-2s-1.8-5.9-1.8-5.9h-15.5h-0.1L239.9,0L115.3,170.1h-14
			c0,0,1.6,5.7-1.8,5.9s-5.3,2.6-0.8,2c1.6-0.2,6.2-0.6,11.4-0.9c9.1-0.6,20-1.1,20-1.1c3.5,5.3,0,6.9,0,6.9l-25.9,2.3l-10.8,1
			c0,0-13,0.4-12.6,3.1c0.2,1.5-0.8,2.9-2.2,3.2h-8c-2,2.9,0.4,3.1,0.4,3.1l13.5-1c1.5,1.8,1.5,4.3,0,6.1l-9,1.4
			c-4.1,2.2,0.2,2.2,0.2,2.2c5.3-1,10.7-1.7,16.1-2.1c9.7-0.9,19.3-1.5,19.3-1.5c2.9,3.1,0,6.9,0,6.9L86,210l-31.3,3.1L54,223.5
			l-16.7,1.6l0.4,2.6l38.5-4.4l8-0.9v7.3l-13.7,1.4c-11.6,1.2-26.8,2.7-29.5,2.9c-4.5,0.4-24.2,3.8-24.2,3.8s-6.3-0.1-6.7,2.4
			s2.6,1.4,2.6,1.4s17.9-2.9,23.4-3.5s5.7-0.8,5.5,4.1s4.5,2.9,12.2,1.2c4.8-1,5.9,0.8,6,2.3L26.7,291
			c14.5,22.9,28.8,46.3,42.9,70.2c7.7,13,15.2,25.9,22.6,38.8h9.5C196.8,390.2,292.6,390.2,387.6,400z M130.3,327.4
			c-6.8-11.3-13.6-22.5-20.5-33.4l39.3-53.6c3.9-0.1,8.8-0.3,12.4-0.4c7.1-0.3,0.5-3.1,0.5-3.1s-5,0.4-11.1,0.9
			c-8.6,0.7-19.4,1.5-20.7,1.5c-2.3,0-5.9-5.8-0.1-7.6c2.9-0.9,14.8-1.4,26.4-1.7s22.6-0.4,24.5-0.5c3.8-0.1,0.5-2.4,0.5-2.4
			c-2.8,0.1-5.7-0.3-8.4-1.1c-4.1-1.4-2-7.6-2-7.6s-2.4,0.1-6.3,0.3c-13.2,0.6-42.6,2-44.4,1.5c-2.3-0.6-4-5.3,0.3-6.2
			c3.8-0.8,39.6-1.4,49.1-2.2c0.7,0,1.4-0.1,2.2-0.3c2.9-0.9,0.7-3,0.4-3.3l0,0l-28,0.9c-5.8-2.6,1.1-7.4,1.1-7.4s18.6,0,31.9-0.4
			c6.7-0.2,12.1-0.4,13-0.8c2.8-1,0.7-2.3,0.7-2.3l-11.2-0.4L175,198c1.8-5.5-0.7-7.6-0.7-7.6l-24.2,0.2c-4.4-2.1-0.2-6.4-0.2-6.4
			s15.4-1.4,17-1.2c0.9,0.1,1.8-0.4,2.1-1.3c-0.2-3.7,4.4-3.8,4.4-3.8l22.1-0.7l25.2-0.8c3.7-0.8,0-1.7,0-1.7h-36.2
			c-6.2-2.7,0-6.9,0-6.9l18.3-0.5l11.6-0.3c3.5-1.8,0-2.6,0-2.6H205l35.1-47.9l35.1,47.9H267c0,0-3.5,0.8,0,2.6l10.4,0.3l19.6,0.5
			c0,0,6.2,4.3,0,6.9c0,0-8.6,0.1-13.8,0.4c-1.1,0.1-2.1,0.2-3.2,0.4c-3.4,0.8,0.1,1.5,0.1,1.5l4.5,0.1l23.4,0.8
			c0,0,4.6,0.1,4.4,3.8c0.3,0.9,1.2,1.4,2.1,1.3c1.6-0.2,17,1.2,17,1.2s4.2,4.3-0.2,6.4l-24.3-0.2c0,0-2.5,2.1-0.7,7.6l-6.3,0.2
			l-10,0.3c0,0-2,1.3,0.7,2.3c0.9,0.3,5.6,0.6,11.8,0.7c13.4,0.4,33.2,0.4,33.2,0.4s6.9,4.8,1.1,7.4l-28-0.9
			c-0.3,0.2-0.5,0.5-0.7,0.8c-0.5,0.8-0.8,1.9,1.1,2.5c0.3,0.1,0.5,0.1,0.8,0.1c6.7,0.8,46.4,1.4,50.5,2.3c4.3,0.9,2.6,5.6,0.3,6.2
			c-1.9,0.5-33.3-1-45.7-1.6l-5-0.2c0,0,2,6.2-2,7.6c-2.7,0.9-5.5,1.3-8.4,1.1c0,0-3.3,2.3,0.5,2.4c1.8,0.1,12.2,0.1,23.2,0.4
			c12,0.3,24.7,0.8,27.8,1.7c5.8,1.7,2.2,7.6-0.1,7.6c-1.5,0-13.2-0.9-22.1-1.6l-9.7-0.8c0,0-6.6,2.8,0.5,3.1
			c3.3,0.1,7.5,0.3,11.1,0.4l39.9,54.5c-6.7,10.7-13.4,21.6-20.1,32.6c-36.6-1.8-73.6-2.7-111-2.7
			C203.1,324.8,166.5,325.7,130.3,327.4z M0,242.2c-0.2-0.9,0.8-1.8,2-2.1s2.5,0.3,2.6,1.2s-0.7,1.8-2,2.1S0.2,243.1,0,242.2z
			 M29.4,228c-0.1-0.7,0.6-1.3,1.6-1.5s1.9,0.2,2,0.9s-0.6,1.4-1.6,1.5S29.6,228.6,29.4,228z M60.4,195c0-1,1.1-1.8,2.5-1.8
			s2.5,0.8,2.5,1.8s-1.1,1.8-2.5,1.8S60.4,196,60.4,195z M188,209c0.1,1-2,2-4.7,2.2s-4.9-0.5-5-1.5s2-2,4.7-2.2S188,208,188,209z
			 M91,177.4c0-0.6,0.9-1.1,1.9-1.1s1.9,0.5,1.9,1.1s-0.8,1.1-1.9,1.1S91.1,178,91,177.4L91,177.4z"/>
	</g>
</g>
</svg>
