<?xml version="1.0" encoding="utf-8"?>
<!-- Generator: Adobe Illustrator 26.2.1, SVG Export Plug-In . SVG Version: 6.00 Build 0)  -->
<svg version="1.1" id="Layer_1" xmlns="http://www.w3.org/2000/svg" xmlns:xlink="http://www.w3.org/1999/xlink" x="0px" y="0px"
	 viewBox="0 0 2500 1649.5" style="enable-background:new 0 0 2500 1649.5;" xml:space="preserve">
<style type="text/css">
	.st0{fill-rule:evenodd;clip-rule:evenodd;fill:#FFFFFF;}
</style>
<g>
	<path class="st0" d="M1878,525c-63.2-0.1-114.5,51.2-114.6,114.4v0.2c0,63.2,51.2,114.5,114.5,114.5c63.2,0,114.5-51.2,114.5-114.5
		C1992.4,576.3,1941.2,525,1878,525z M2344.5,168.1c0-10.1-6-11.7-14.8-11.7h-19.1v38.2h8.1v-15.7h7.1l8.5,15.7h9.1l-9.3-16.1
		C2340.9,178,2344.5,175.1,2344.5,168.1z M2329.9,172.8L2329.9,172.8l-11.2,0v-10.3h9.2c3.7,0,8.5,0,8.5,4.5
		C2336.5,171.8,2334.1,172.9,2329.9,172.8z M2344.5,168.1c0-10.1-6-11.7-14.8-11.7h-19.1v38.2h8.1v-15.7h7.1l8.5,15.7h9.1l-9.3-16.1
		C2340.9,178,2344.5,175.1,2344.5,168.1z M2329.9,172.8L2329.9,172.8l-11.2,0v-10.3h9.2c3.7,0,8.5,0,8.5,4.5
		C2336.5,171.8,2334.1,172.9,2329.9,172.8z M2344.5,168.1c0-10.1-6-11.7-14.8-11.7h-19.1v38.2h8.1v-15.7h7.1l8.5,15.7h9.1l-9.3-16.1
		C2340.9,178,2344.5,175.1,2344.5,168.1z M2329.9,172.8L2329.9,172.8l-11.2,0v-10.3h9.2c3.7,0,8.5,0,8.5,4.5
		C2336.5,171.8,2334.1,172.9,2329.9,172.8z M2344.5,168.1c0-10.1-6-11.7-14.8-11.7h-19.1v38.2h8.1v-15.7h7.1l8.5,15.7h9.1l-9.3-16.1
		C2340.9,178,2344.5,175.1,2344.5,168.1z M2329.9,172.8L2329.9,172.8l-11.2,0v-10.3h9.2c3.7,0,8.5,0,8.5,4.5
		C2336.5,171.8,2334.1,172.9,2329.9,172.8z M2325.8,139.9h-0.1c-19.5,0-35.2,15.8-35.2,35.3v0.1c0.1,19.4,15.8,35.2,35.3,35.1h0.1
		c19.5,0,35.3-15.8,35.2-35.3C2361.1,155.7,2345.3,139.9,2325.8,139.9z M2325.8,202.4h-0.2c-15-0.1-27.1-12.2-27-27.2
		c0-15.1,12.1-27.2,27.2-27.2c15,0,27.2,12.2,27.2,27.2C2353,190.3,2340.7,202.4,2325.8,202.4z M2344.5,168.1
		c0-10.1-6-11.7-14.8-11.7h-19.1v38.2h8.1v-15.7h7.1l8.5,15.7h9.1l-9.3-16.1C2340.9,178,2344.5,175.1,2344.5,168.1z M2329.9,172.8
		L2329.9,172.8l-11.2,0v-10.3h9.2c3.7,0,8.5,0,8.5,4.5C2336.5,171.8,2334.1,172.9,2329.9,172.8z M2344.5,168.1
		c0-10.1-6-11.7-14.8-11.7h-19.1v38.2h8.1v-15.7h7.1l8.5,15.7h9.1l-9.3-16.1C2340.9,178,2344.5,175.1,2344.5,168.1z M2329.9,172.8
		L2329.9,172.8l-11.2,0v-10.3h9.2c3.7,0,8.5,0,8.5,4.5C2336.5,171.8,2334.1,172.9,2329.9,172.8z M2344.5,168.1
		c0-10.1-6-11.7-14.8-11.7h-19.1v38.2h8.1v-15.7h7.1l8.5,15.7h9.1l-9.3-16.1C2340.9,178,2344.5,175.1,2344.5,168.1z M2329.9,172.8
		L2329.9,172.8l-11.2,0v-10.3h9.2c3.7,0,8.5,0,8.5,4.5C2336.5,171.8,2334.1,172.9,2329.9,172.8z M2344.5,168.1
		c0-10.1-6-11.7-14.8-11.7h-19.1v38.2h8.1v-15.7h7.1l8.5,15.7h9.1l-9.3-16.1C2340.9,178,2344.5,175.1,2344.5,168.1z M2329.9,172.8
		L2329.9,172.8l-11.2,0v-10.3h9.2c3.7,0,8.5,0,8.5,4.5C2336.5,171.8,2334.1,172.9,2329.9,172.8z M2344.5,168.1
		c0-10.1-6-11.7-14.8-11.7h-19.1v38.2h8.1v-15.7h7.1l8.5,15.7h9.1l-9.3-16.1C2340.9,178,2344.5,175.1,2344.5,168.1z M2329.9,172.8
		L2329.9,172.8l-11.2,0v-10.3h9.2c3.7,0,8.5,0,8.5,4.5C2336.5,171.8,2334.1,172.9,2329.9,172.8z M2344.5,168.1
		c0-10.1-6-11.7-14.8-11.7h-19.1v38.2h8.1v-15.7h7.1l8.5,15.7h9.1l-9.3-16.1C2340.9,178,2344.5,175.1,2344.5,168.1z M2329.9,172.8
		L2329.9,172.8l-11.2,0v-10.3h9.2c3.7,0,8.5,0,8.5,4.5C2336.5,171.8,2334.1,172.9,2329.9,172.8z M2344.5,168.1
		c0-10.1-6-11.7-14.8-11.7h-19.1v38.2h8.1v-15.7h7.1l8.5,15.7h9.1l-9.3-16.1C2340.9,178,2344.5,175.1,2344.5,168.1z M2329.9,172.8
		L2329.9,172.8l-11.2,0v-10.3h9.2c3.7,0,8.5,0,8.5,4.5C2336.5,171.8,2334.1,172.9,2329.9,172.8z M2344.5,168.1
		c0-10.1-6-11.7-14.8-11.7h-19.1v38.2h8.1v-15.7h7.1l8.5,15.7h9.1l-9.3-16.1C2340.9,178,2344.5,175.1,2344.5,168.1z M2329.9,172.8
		L2329.9,172.8l-11.2,0v-10.3h9.2c3.7,0,8.5,0,8.5,4.5C2336.5,171.8,2334.1,172.9,2329.9,172.8z M2344.5,168.1
		c0-10.1-6-11.7-14.8-11.7h-19.1v38.2h8.1v-15.7h7.1l8.5,15.7h9.1l-9.3-16.1C2340.9,178,2344.5,175.1,2344.5,168.1z M2329.9,172.8
		L2329.9,172.8l-11.2,0v-10.3h9.2c3.7,0,8.5,0,8.5,4.5C2336.5,171.8,2334.1,172.9,2329.9,172.8z M2325.8,139.9h-0.1
		c-19.5,0-35.2,15.8-35.2,35.3v0.1c0.1,19.4,15.8,35.2,35.3,35.1h0.1c19.5,0,35.3-15.8,35.2-35.3
		C2361.1,155.7,2345.3,139.9,2325.8,139.9z M2325.8,202.4h-0.2c-15-0.1-27.1-12.2-27-27.2c0-15.1,12.1-27.2,27.2-27.2
		c15,0,27.2,12.2,27.2,27.2C2353,190.3,2340.7,202.4,2325.8,202.4z M2344.5,168.1c0-10.1-6-11.7-14.8-11.7h-19.1v38.2h8.1v-15.7h7.1
		l8.5,15.7h9.1l-9.3-16.1C2340.9,178,2344.5,175.1,2344.5,168.1z M2329.9,172.8L2329.9,172.8l-11.2,0v-10.3h9.2c3.7,0,8.5,0,8.5,4.5
		C2336.5,171.8,2334.1,172.9,2329.9,172.8z M2344.5,168.1c0-10.1-6-11.7-14.8-11.7h-19.1v38.2h8.1v-15.7h7.1l8.5,15.7h9.1l-9.3-16.1
		C2340.9,178,2344.5,175.1,2344.5,168.1z M2329.9,172.8L2329.9,172.8l-11.2,0v-10.3h9.2c3.7,0,8.5,0,8.5,4.5
		C2336.5,171.8,2334.1,172.9,2329.9,172.8z M2344.5,168.1c0-10.1-6-11.7-14.8-11.7h-19.1v38.2h8.1v-15.7h7.1l8.5,15.7h9.1l-9.3-16.1
		C2340.9,178,2344.5,175.1,2344.5,168.1z M2329.9,172.8L2329.9,172.8l-11.2,0v-10.3h9.2c3.7,0,8.5,0,8.5,4.5
		C2336.5,171.8,2334.1,172.9,2329.9,172.8z M2344.5,168.1c0-10.1-6-11.7-14.8-11.7h-19.1v38.2h8.1v-15.7h7.1l8.5,15.7h9.1l-9.3-16.1
		C2340.9,178,2344.5,175.1,2344.5,168.1z M2329.9,172.8L2329.9,172.8l-11.2,0v-10.3h9.2c3.7,0,8.5,0,8.5,4.5
		C2336.5,171.8,2334.1,172.9,2329.9,172.8z M2344.5,168.1c0-10.1-6-11.7-14.8-11.7h-19.1v38.2h8.1v-15.7h7.1l8.5,15.7h9.1l-9.3-16.1
		C2340.9,178,2344.5,175.1,2344.5,168.1z M2329.9,172.8L2329.9,172.8l-11.2,0v-10.3h9.2c3.7,0,8.5,0,8.5,4.5
		C2336.5,171.8,2334.1,172.9,2329.9,172.8z M1878,525c-63.2-0.1-114.5,51.2-114.6,114.4v0.2c0,63.2,51.2,114.5,114.5,114.5
		c63.2,0,114.5-51.2,114.5-114.5C1992.4,576.3,1941.2,525,1878,525z M1878,525c-63.2-0.1-114.5,51.2-114.6,114.4v0.2
		c0,63.2,51.2,114.5,114.5,114.5c63.2,0,114.5-51.2,114.5-114.5C1992.4,576.3,1941.2,525,1878,525z M2344.5,168.1
		c0-10.1-6-11.7-14.8-11.7h-19.1v38.2h8.1v-15.7h7.1l8.5,15.7h9.1l-9.3-16.1C2340.9,178,2344.5,175.1,2344.5,168.1z M2329.9,172.8
		L2329.9,172.8l-11.2,0v-10.3h9.2c3.7,0,8.5,0,8.5,4.5C2336.5,171.8,2334.1,172.9,2329.9,172.8z M2344.5,168.1
		c0-10.1-6-11.7-14.8-11.7h-19.1v38.2h8.1v-15.7h7.1l8.5,15.7h9.1l-9.3-16.1C2340.9,178,2344.5,175.1,2344.5,168.1z M2329.9,172.8
		L2329.9,172.8l-11.2,0v-10.3h9.2c3.7,0,8.5,0,8.5,4.5C2336.5,171.8,2334.1,172.9,2329.9,172.8z M2344.5,168.1
		c0-10.1-6-11.7-14.8-11.7h-19.1v38.2h8.1v-15.7h7.1l8.5,15.7h9.1l-9.3-16.1C2340.9,178,2344.5,175.1,2344.5,168.1z M2329.9,172.8
		L2329.9,172.8l-11.2,0v-10.3h9.2c3.7,0,8.5,0,8.5,4.5C2336.5,171.8,2334.1,172.9,2329.9,172.8z M2344.5,168.1
		c0-10.1-6-11.7-14.8-11.7h-19.1v38.2h8.1v-15.7h7.1l8.5,15.7h9.1l-9.3-16.1C2340.9,178,2344.5,175.1,2344.5,168.1z M2329.9,172.8
		L2329.9,172.8l-11.2,0v-10.3h9.2c3.7,0,8.5,0,8.5,4.5C2336.5,171.8,2334.1,172.9,2329.9,172.8z M2325.8,139.9h-0.1
		c-19.5,0-35.2,15.8-35.2,35.3v0.1c0.1,19.4,15.8,35.2,35.3,35.1h0.1c19.5,0,35.3-15.8,35.2-35.3
		C2361.1,155.7,2345.3,139.9,2325.8,139.9z M2325.8,202.4h-0.2c-15-0.1-27.1-12.2-27-27.2c0-15.1,12.1-27.2,27.2-27.2
		c15,0,27.2,12.2,27.2,27.2C2353,190.3,2340.7,202.4,2325.8,202.4z M2344.5,168.1c0-10.1-6-11.7-14.8-11.7h-19.1v38.2h8.1v-15.7h7.1
		l8.5,15.7h9.1l-9.3-16.1C2340.9,178,2344.5,175.1,2344.5,168.1z M2329.9,172.8L2329.9,172.8l-11.2,0v-10.3h9.2c3.7,0,8.5,0,8.5,4.5
		C2336.5,171.8,2334.1,172.9,2329.9,172.8z M2344.5,168.1c0-10.1-6-11.7-14.8-11.7h-19.1v38.2h8.1v-15.7h7.1l8.5,15.7h9.1l-9.3-16.1
		C2340.9,178,2344.5,175.1,2344.5,168.1z M2329.9,172.8L2329.9,172.8l-11.2,0v-10.3h9.2c3.7,0,8.5,0,8.5,4.5
		C2336.5,171.8,2334.1,172.9,2329.9,172.8z M2344.5,168.1c0-10.1-6-11.7-14.8-11.7h-19.1v38.2h8.1v-15.7h7.1l8.5,15.7h9.1l-9.3-16.1
		C2340.9,178,2344.5,175.1,2344.5,168.1z M2329.9,172.8L2329.9,172.8l-11.2,0v-10.3h9.2c3.7,0,8.5,0,8.5,4.5
		C2336.5,171.8,2334.1,172.9,2329.9,172.8z M2344.5,168.1c0-10.1-6-11.7-14.8-11.7h-19.1v38.2h8.1v-15.7h7.1l8.5,15.7h9.1l-9.3-16.1
		C2340.9,178,2344.5,175.1,2344.5,168.1z M2329.9,172.8L2329.9,172.8l-11.2,0v-10.3h9.2c3.7,0,8.5,0,8.5,4.5
		C2336.5,171.8,2334.1,172.9,2329.9,172.8z M2344.5,168.1c0-10.1-6-11.7-14.8-11.7h-19.1v38.2h8.1v-15.7h7.1l8.5,15.7h9.1l-9.3-16.1
		C2340.9,178,2344.5,175.1,2344.5,168.1z M2329.9,172.8L2329.9,172.8l-11.2,0v-10.3h9.2c3.7,0,8.5,0,8.5,4.5
		C2336.5,171.8,2334.1,172.9,2329.9,172.8z M2325.8,139.9h-0.1c-19.5,0-35.2,15.8-35.2,35.3v0.1c0.1,19.4,15.8,35.2,35.3,35.1h0.1
		c19.5,0,35.3-15.8,35.2-35.3C2361.1,155.7,2345.3,139.9,2325.8,139.9z M2325.8,202.4h-0.2c-15-0.1-27.1-12.2-27-27.2
		c0-15.1,12.1-27.2,27.2-27.2c15,0,27.2,12.2,27.2,27.2C2353,190.3,2340.7,202.4,2325.8,202.4z M2344.5,168.1
		c0-10.1-6-11.7-14.8-11.7h-19.1v38.2h8.1v-15.7h7.1l8.5,15.7h9.1l-9.3-16.1C2340.9,178,2344.5,175.1,2344.5,168.1z M2329.9,172.8
		L2329.9,172.8l-11.2,0v-10.3h9.2c3.7,0,8.5,0,8.5,4.5C2336.5,171.8,2334.1,172.9,2329.9,172.8z M2344.5,168.1
		c0-10.1-6-11.7-14.8-11.7h-19.1v38.2h8.1v-15.7h7.1l8.5,15.7h9.1l-9.3-16.1C2340.9,178,2344.5,175.1,2344.5,168.1z M2329.9,172.8
		L2329.9,172.8l-11.2,0v-10.3h9.2c3.7,0,8.5,0,8.5,4.5C2336.5,171.8,2334.1,172.9,2329.9,172.8z M2344.5,168.1
		c0-10.1-6-11.7-14.8-11.7h-19.1v38.2h8.1v-15.7h7.1l8.5,15.7h9.1l-9.3-16.1C2340.9,178,2344.5,175.1,2344.5,168.1z M2329.9,172.8
		L2329.9,172.8l-11.2,0v-10.3h9.2c3.7,0,8.5,0,8.5,4.5C2336.5,171.8,2334.1,172.9,2329.9,172.8z M1878,525
		c-63.2-0.1-114.5,51.2-114.6,114.4v0.2c0,63.2,51.2,114.5,114.5,114.5c63.2,0,114.5-51.2,114.5-114.5
		C1992.4,576.3,1941.2,525,1878,525z M385.8,1267.3H252.5L153.7,1485H245l16.2-37.4h118l17.1,37.4h89.5L385.8,1267.3z M280.1,1405.1
		l39.9-94.3h0.9l40.8,94.3H280.1z M468.6,1267.3v50.5h84.2V1485h87.7v-167.2h88.6v-50.5H468.6z M833.6,1434.5v-167.2h-87.8V1485
		h225.1v-50.5H833.6z M1206.2,1267.3h-133.4L974.2,1485h91.2l16.2-37.4h118l17.1,37.4h89.5L1206.2,1267.3z M1100.5,1405.1l39.9-94.3
		h0.9l40.8,94.3H1100.5z M1556.2,1267.3l5.3,167.2h-3.5l-94.3-167.2h-148.3V1485h87.8l-5.3-167.2h3.5l93,167.2h149.6v-217.7H1556.2z
		 M1658.6,1267.3v50.5h84.2V1485h87.8v-167.2h88.6v-50.5H1658.6z M1878,525c-63.2-0.1-114.5,51.2-114.6,114.4v0.2
		c0,63.2,51.2,114.5,114.5,114.5c63.2,0,114.5-51.2,114.5-114.5C1992.4,576.3,1941.2,525,1878,525z M1937.7,1267.3V1485h87.8v-217.7
		H1937.7z M2344.5,168.1c0-10.1-6-11.7-14.8-11.7h-19.1v38.2h8.1v-15.7h7.1l8.5,15.7h9.1l-9.3-16.1
		C2340.9,178,2344.5,175.1,2344.5,168.1z M2329.9,172.8L2329.9,172.8l-11.2,0v-10.3h9.2c3.7,0,8.5,0,8.5,4.5
		C2336.5,171.8,2334.1,172.9,2329.9,172.8z M2258.4,1402.5v6.4c0,25.5-17.6,27.3-54,27.3c-52.6,0-54.8-12.5-54.8-45v-34
		c0-31.1,4.8-41.2,54.8-41.2c29.8,0,50.5,1.4,53.6,20.9v8.4h90.4v-8.4c-1.8-65.3-43.9-71.4-134.3-71.4
		c-96.5,0-154.9,10.4-154.9,82.5v56.3c0,79.5,65.4,82.5,154.9,82.5c38.2,0,74.6,0.3,104.4-16c29.8-16.6,30.3-38.1,30.3-61.8v-6.4
		H2258.4z M2344.5,168.1c0-10.1-6-11.7-14.8-11.7h-19.1v38.2h8.1v-15.7h7.1l8.5,15.7h9.1l-9.3-16.1
		C2340.9,178,2344.5,175.1,2344.5,168.1z M2329.9,172.8L2329.9,172.8l-11.2,0v-10.3h9.2c3.7,0,8.5,0,8.5,4.5
		C2336.5,171.8,2334.1,172.9,2329.9,172.8z M2325.8,139.9h-0.1c-19.5,0-35.2,15.8-35.2,35.3v0.1c0.1,19.4,15.8,35.2,35.3,35.1h0.1
		c19.5,0,35.3-15.8,35.2-35.3C2361.1,155.7,2345.3,139.9,2325.8,139.9z M2325.8,202.4h-0.2c-15-0.1-27.1-12.2-27-27.2
		c0-15.1,12.1-27.2,27.2-27.2c15,0,27.2,12.2,27.2,27.2C2353,190.3,2340.7,202.4,2325.8,202.4z M2344.5,168.1
		c0-10.1-6-11.7-14.8-11.7h-19.1v38.2h8.1v-15.7h7.1l8.5,15.7h9.1l-9.3-16.1C2340.9,178,2344.5,175.1,2344.5,168.1z M2329.9,172.8
		L2329.9,172.8l-11.2,0v-10.3h9.2c3.7,0,8.5,0,8.5,4.5C2336.5,171.8,2334.1,172.9,2329.9,172.8z M2325.8,139.9h-0.1
		c-19.5,0-35.2,15.8-35.2,35.3v0.1c0.1,19.4,15.8,35.2,35.3,35.1h0.1c19.5,0,35.3-15.8,35.2-35.3
		C2361.1,155.7,2345.3,139.9,2325.8,139.9z M2325.8,202.4h-0.2c-15-0.1-27.1-12.2-27-27.2c0-15.1,12.1-27.2,27.2-27.2
		c15,0,27.2,12.2,27.2,27.2C2353,190.3,2340.7,202.4,2325.8,202.4z M2344.5,168.1c0-10.1-6-11.7-14.8-11.7h-19.1v38.2h8.1v-15.7h7.1
		l8.5,15.7h9.1l-9.3-16.1C2340.9,178,2344.5,175.1,2344.5,168.1z M2329.9,172.8L2329.9,172.8l-11.2,0v-10.3h9.2c3.7,0,8.5,0,8.5,4.5
		C2336.5,171.8,2334.1,172.9,2329.9,172.8z M1878,525c-63.2-0.1-114.5,51.2-114.6,114.4v0.2c0,63.2,51.2,114.5,114.5,114.5
		c63.2,0,114.5-51.2,114.5-114.5C1992.4,576.3,1941.2,525,1878,525z M2258.4,1402.5v6.4c0,25.5-17.6,27.3-54,27.3
		c-52.6,0-54.8-12.5-54.8-45v-34c0-31.1,4.8-41.2,54.8-41.2c29.8,0,50.5,1.4,53.6,20.9v8.4h90.4v-8.4
		c-1.8-65.3-43.9-71.4-134.3-71.4c-96.5,0-154.9,10.4-154.9,82.5v56.3c0,79.5,65.4,82.5,154.9,82.5c38.2,0,74.6,0.3,104.4-16
		c29.8-16.6,30.3-38.1,30.3-61.8v-6.4H2258.4z M1937.7,1485h87.8v-217.7h-87.8V1485z M1658.6,1317.8h84.2V1485h87.8v-167.2h88.6
		v-50.5h-260.6V1317.8z M1561.4,1434.5h-3.5l-94.3-167.2h-148.3V1485h87.8l-5.3-167.2h3.5l93,167.2h149.6v-217.7h-87.8
		L1561.4,1434.5z M1072.9,1267.3L974.2,1485h91.2l16.2-37.4h118l17.1,37.4h89.5l-100.1-217.7H1072.9z M1100.5,1405.1l39.9-94.3h0.9
		l40.8,94.3H1100.5z M833.6,1267.3h-87.8V1485h225.1v-50.5H833.6V1267.3z M468.6,1317.8h84.2V1485h87.7v-167.2h88.6v-50.5H468.6
		V1317.8z M252.5,1267.3L153.7,1485H245l16.2-37.4h118l17.1,37.4h89.5l-100-217.7H252.5z M280.1,1405.1l39.9-94.3h0.9l40.8,94.3
		H280.1z M36.8,50.5V1599h2426.5V50.5H36.8z M1074,120.9V784H661.6l389.5-663.1H1074z M1074,1069.3v81.5H446.2l47.9-81.5H1074z
		 M114.6,120.9h584.8L114.6,1147V120.9z M2385.4,1528.6H114.6v-307.5h2270.9V1528.6z M2385.4,520.1c-8.9-37.9-22-74.6-39.1-109.5
		c-58-92.6-160.8-154.3-278.1-154.7c-181.9-0.6-330,146.4-330.6,328.3c-0.1,18.8,1.5,37.2,4.5,55.2c0.1-52.7,30.6-100.6,78.3-122.9
		c44.7-24.9,94.6-39.1,145.7-41.4c182.8-8.5,338,132.8,346.5,315.6c4,82.6-23.2,163.7-76.1,227.2c73.9-69.9,125.6-160,148.9-259
		v391.8h-405.4c43.9-8.7,86.6-23.1,126.8-42.8c92.6-58,154.3-160.8,154.7-278.1c0.6-182-146.4-330-328.3-330.6
		c-18.5,0-36.9,1.5-55.2,4.5c52.7,0.1,100.6,30.6,122.9,78.4c24.9,44.7,39.1,94.6,41.4,145.7c8.5,182.8-132.8,338-315.6,346.5
		c-82.6,4-163.7-23.2-227.2-76.1c74,78.2,170.5,131.6,276.2,152.7h-416.4V691.8c6.1,61.4,23.1,121.3,50.2,176.7
		c58,92.6,160.8,154.3,278.1,154.7c182,0.6,330-146.4,330.6-328.3c0.1-18.5-1.5-36.9-4.5-55.2c-0.1,52.7-30.6,100.6-78.3,122.9
		c-44.7,24.9-94.6,39.1-145.7,41.4c-182.8,8.5-338-132.8-346.5-315.6c-4-82.6,23.2-163.7,76.2-227.2
		c-88.3,83.7-147.3,197.9-160.1,325.8V120.9h466.4c-61.4,6.1-121.3,23.1-176.7,50.3c-92.6,58-154.3,160.8-154.7,278.2
		c-0.6,181.9,146.4,329.9,328.3,330.6c18.5,0,36.9-1.5,55.2-4.5c-52.7-0.1-100.6-30.6-122.9-78.4c-24.9-44.7-39.1-94.6-41.4-145.7
		c-8.5-182.8,132.8-338,315.6-346.5c82.6-4,163.7,23.2,227.2,76.1c-83.7-88.3-197.9-147.3-325.8-160.1h454.9V520.1z M2325.8,210.5
		L2325.8,210.5c19.5,0,35.3-15.8,35.3-35.3c0-19.5-15.8-35.3-35.3-35.2h-0.1c-19.5,0-35.2,15.8-35.2,35.3v0.1
		C2290.6,194.8,2306.4,210.5,2325.8,210.5z M2325.8,148c15,0,27.2,12.2,27.2,27.2c0,15.1-12.3,27.2-27.2,27.2h-0.2
		c-15-0.1-27.1-12.2-27-27.2C2298.6,160.1,2310.6,148,2325.8,148z M2214.1,1486.7c38.2,0,74.6,0.3,104.4-16
		c29.8-16.6,30.3-38.1,30.3-61.8v-6.4h-90.4v6.4c0,25.5-17.6,27.3-54,27.3c-52.6,0-54.8-12.5-54.8-45v-34c0-31.1,4.8-41.2,54.8-41.2
		c29.8,0,50.5,1.4,53.6,20.9v8.4h90.4v-8.4c-1.8-65.3-43.9-71.4-134.3-71.4c-96.5,0-154.9,10.4-154.9,82.5v56.3
		C2059.2,1483.8,2124.6,1486.7,2214.1,1486.7z M2318.7,178.9h7.1l8.5,15.7h9.1l-9.3-16.1c6.8-0.5,10.4-3.3,10.4-10.4
		c0-10.1-6-11.7-14.8-11.7h-19.1v38.2h8.1V178.9z M2318.7,162.5h9.2c3.7,0,8.5,0,8.5,4.5c0,4.8-2.3,5.8-6.6,5.8v0h-11.2V162.5z
		 M2025.4,1267.3h-87.8V1485h87.8V1267.3z M1877.9,754c63.2,0,114.5-51.2,114.5-114.5c0-63.2-51.2-114.5-114.4-114.6
		c-63.2-0.1-114.5,51.2-114.6,114.4v0.2C1763.5,702.8,1814.7,754,1877.9,754z M1742.8,1485h87.8v-167.2h88.6v-50.5h-260.6v50.5h84.2
		V1485z M1397.8,1317.8h3.5l93,167.2h149.6v-217.7h-87.8l5.3,167.2h-3.5l-94.3-167.2h-148.3V1485h87.8L1397.8,1317.8z
		 M1081.7,1447.5h118l17.1,37.4h89.5l-100.1-217.7h-133.4L974.2,1485h91.2L1081.7,1447.5z M1140.4,1310.8h0.9l40.8,94.3h-81.6
		L1140.4,1310.8z M970.9,1434.5H833.6v-167.2h-87.8V1485h225.1V1434.5z M552.8,1485h87.7v-167.2h88.6v-50.5H468.6v50.5h84.2V1485z
		 M261.2,1447.5h118l17.1,37.4h89.5l-100-217.7H252.5L153.7,1485H245L261.2,1447.5z M320,1310.8h0.9l40.8,94.3h-81.6L320,1310.8z
		 M385.8,1267.3H252.5L153.7,1485H245l16.2-37.4h118l17.1,37.4h89.5L385.8,1267.3z M280.1,1405.1l39.9-94.3h0.9l40.8,94.3H280.1z
		 M468.6,1267.3v50.5h84.2V1485h87.7v-167.2h88.6v-50.5H468.6z M833.6,1434.5v-167.2h-87.8V1485h225.1v-50.5H833.6z M1206.2,1267.3
		h-133.4L974.2,1485h91.2l16.2-37.4h118l17.1,37.4h89.5L1206.2,1267.3z M1100.5,1405.1l39.9-94.3h0.9l40.8,94.3H1100.5z
		 M1556.2,1267.3l5.3,167.2h-3.5l-94.3-167.2h-148.3V1485h87.8l-5.3-167.2h3.5l93,167.2h149.6v-217.7H1556.2z M1658.6,1267.3v50.5
		h84.2V1485h87.8v-167.2h88.6v-50.5H1658.6z M1937.7,1267.3V1485h87.8v-217.7H1937.7z M2258.4,1402.5v6.4c0,25.5-17.6,27.3-54,27.3
		c-52.6,0-54.8-12.5-54.8-45v-34c0-31.1,4.8-41.2,54.8-41.2c29.8,0,50.5,1.4,53.6,20.9v8.4h90.4v-8.4
		c-1.8-65.3-43.9-71.4-134.3-71.4c-96.5,0-154.9,10.4-154.9,82.5v56.3c0,79.5,65.4,82.5,154.9,82.5c38.2,0,74.6,0.3,104.4-16
		c29.8-16.6,30.3-38.1,30.3-61.8v-6.4H2258.4z M1878,525c-63.2-0.1-114.5,51.2-114.6,114.4v0.2c0,63.2,51.2,114.5,114.5,114.5
		c63.2,0,114.5-51.2,114.5-114.5C1992.4,576.3,1941.2,525,1878,525z M2344.5,168.1c0-10.1-6-11.7-14.8-11.7h-19.1v38.2h8.1v-15.7
		h7.1l8.5,15.7h9.1l-9.3-16.1C2340.9,178,2344.5,175.1,2344.5,168.1z M2329.9,172.8L2329.9,172.8l-11.2,0v-10.3h9.2
		c3.7,0,8.5,0,8.5,4.5C2336.5,171.8,2334.1,172.9,2329.9,172.8z M2344.5,168.1c0-10.1-6-11.7-14.8-11.7h-19.1v38.2h8.1v-15.7h7.1
		l8.5,15.7h9.1l-9.3-16.1C2340.9,178,2344.5,175.1,2344.5,168.1z M2329.9,172.8L2329.9,172.8l-11.2,0v-10.3h9.2c3.7,0,8.5,0,8.5,4.5
		C2336.5,171.8,2334.1,172.9,2329.9,172.8z M2325.8,139.9h-0.1c-19.5,0-35.2,15.8-35.2,35.3v0.1c0.1,19.4,15.8,35.2,35.3,35.1h0.1
		c19.5,0,35.3-15.8,35.2-35.3C2361.1,155.7,2345.3,139.9,2325.8,139.9z M2325.8,202.4h-0.2c-15-0.1-27.1-12.2-27-27.2
		c0-15.1,12.1-27.2,27.2-27.2c15,0,27.2,12.2,27.2,27.2C2353,190.3,2340.7,202.4,2325.8,202.4z M2344.5,168.1
		c0-10.1-6-11.7-14.8-11.7h-19.1v38.2h8.1v-15.7h7.1l8.5,15.7h9.1l-9.3-16.1C2340.9,178,2344.5,175.1,2344.5,168.1z M2329.9,172.8
		L2329.9,172.8l-11.2,0v-10.3h9.2c3.7,0,8.5,0,8.5,4.5C2336.5,171.8,2334.1,172.9,2329.9,172.8z M2344.5,168.1
		c0-10.1-6-11.7-14.8-11.7h-19.1v38.2h8.1v-15.7h7.1l8.5,15.7h9.1l-9.3-16.1C2340.9,178,2344.5,175.1,2344.5,168.1z M2329.9,172.8
		L2329.9,172.8l-11.2,0v-10.3h9.2c3.7,0,8.5,0,8.5,4.5C2336.5,171.8,2334.1,172.9,2329.9,172.8z M2344.5,168.1
		c0-10.1-6-11.7-14.8-11.7h-19.1v38.2h8.1v-15.7h7.1l8.5,15.7h9.1l-9.3-16.1C2340.9,178,2344.5,175.1,2344.5,168.1z M2329.9,172.8
		L2329.9,172.8l-11.2,0v-10.3h9.2c3.7,0,8.5,0,8.5,4.5C2336.5,171.8,2334.1,172.9,2329.9,172.8z M2325.8,139.9h-0.1
		c-19.5,0-35.2,15.8-35.2,35.3v0.1c0.1,19.4,15.8,35.2,35.3,35.1h0.1c19.5,0,35.3-15.8,35.2-35.3
		C2361.1,155.7,2345.3,139.9,2325.8,139.9z M2325.8,202.4h-0.2c-15-0.1-27.1-12.2-27-27.2c0-15.1,12.1-27.2,27.2-27.2
		c15,0,27.2,12.2,27.2,27.2C2353,190.3,2340.7,202.4,2325.8,202.4z M2344.5,168.1c0-10.1-6-11.7-14.8-11.7h-19.1v38.2h8.1v-15.7h7.1
		l8.5,15.7h9.1l-9.3-16.1C2340.9,178,2344.5,175.1,2344.5,168.1z M2329.9,172.8L2329.9,172.8l-11.2,0v-10.3h9.2c3.7,0,8.5,0,8.5,4.5
		C2336.5,171.8,2334.1,172.9,2329.9,172.8z M2344.5,168.1c0-10.1-6-11.7-14.8-11.7h-19.1v38.2h8.1v-15.7h7.1l8.5,15.7h9.1l-9.3-16.1
		C2340.9,178,2344.5,175.1,2344.5,168.1z M2329.9,172.8L2329.9,172.8l-11.2,0v-10.3h9.2c3.7,0,8.5,0,8.5,4.5
		C2336.5,171.8,2334.1,172.9,2329.9,172.8z M2258.4,1402.5v6.4c0,25.5-17.6,27.3-54,27.3c-52.6,0-54.8-12.5-54.8-45v-34
		c0-31.1,4.8-41.2,54.8-41.2c29.8,0,50.5,1.4,53.6,20.9v8.4h90.4v-8.4c-1.8-65.3-43.9-71.4-134.3-71.4
		c-96.5,0-154.9,10.4-154.9,82.5v56.3c0,79.5,65.4,82.5,154.9,82.5c38.2,0,74.6,0.3,104.4-16c29.8-16.6,30.3-38.1,30.3-61.8v-6.4
		H2258.4z M2344.5,168.1c0-10.1-6-11.7-14.8-11.7h-19.1v38.2h8.1v-15.7h7.1l8.5,15.7h9.1l-9.3-16.1
		C2340.9,178,2344.5,175.1,2344.5,168.1z M2329.9,172.8L2329.9,172.8l-11.2,0v-10.3h9.2c3.7,0,8.5,0,8.5,4.5
		C2336.5,171.8,2334.1,172.9,2329.9,172.8z M1937.7,1267.3V1485h87.8v-217.7H1937.7z M1878,525c-63.2-0.1-114.5,51.2-114.6,114.4
		v0.2c0,63.2,51.2,114.5,114.5,114.5c63.2,0,114.5-51.2,114.5-114.5C1992.4,576.3,1941.2,525,1878,525z M1658.6,1267.3v50.5h84.2
		V1485h87.8v-167.2h88.6v-50.5H1658.6z M1556.2,1267.3l5.3,167.2h-3.5l-94.3-167.2h-148.3V1485h87.8l-5.3-167.2h3.5l93,167.2h149.6
		v-217.7H1556.2z M1206.2,1267.3h-133.4L974.2,1485h91.2l16.2-37.4h118l17.1,37.4h89.5L1206.2,1267.3z M1100.5,1405.1l39.9-94.3h0.9
		l40.8,94.3H1100.5z M833.6,1434.5v-167.2h-87.8V1485h225.1v-50.5H833.6z M468.6,1267.3v50.5h84.2V1485h87.7v-167.2h88.6v-50.5
		H468.6z M385.8,1267.3H252.5L153.7,1485H245l16.2-37.4h118l17.1,37.4h89.5L385.8,1267.3z M280.1,1405.1l39.9-94.3h0.9l40.8,94.3
		H280.1z M1878,525c-63.2-0.1-114.5,51.2-114.6,114.4v0.2c0,63.2,51.2,114.5,114.5,114.5c63.2,0,114.5-51.2,114.5-114.5
		C1992.4,576.3,1941.2,525,1878,525z M2344.5,168.1c0-10.1-6-11.7-14.8-11.7h-19.1v38.2h8.1v-15.7h7.1l8.5,15.7h9.1l-9.3-16.1
		C2340.9,178,2344.5,175.1,2344.5,168.1z M2329.9,172.8L2329.9,172.8l-11.2,0v-10.3h9.2c3.7,0,8.5,0,8.5,4.5
		C2336.5,171.8,2334.1,172.9,2329.9,172.8z M2344.5,168.1c0-10.1-6-11.7-14.8-11.7h-19.1v38.2h8.1v-15.7h7.1l8.5,15.7h9.1l-9.3-16.1
		C2340.9,178,2344.5,175.1,2344.5,168.1z M2329.9,172.8L2329.9,172.8l-11.2,0v-10.3h9.2c3.7,0,8.5,0,8.5,4.5
		C2336.5,171.8,2334.1,172.9,2329.9,172.8z M2344.5,168.1c0-10.1-6-11.7-14.8-11.7h-19.1v38.2h8.1v-15.7h7.1l8.5,15.7h9.1l-9.3-16.1
		C2340.9,178,2344.5,175.1,2344.5,168.1z M2329.9,172.8L2329.9,172.8l-11.2,0v-10.3h9.2c3.7,0,8.5,0,8.5,4.5
		C2336.5,171.8,2334.1,172.9,2329.9,172.8z M2344.5,168.1c0-10.1-6-11.7-14.8-11.7h-19.1v38.2h8.1v-15.7h7.1l8.5,15.7h9.1l-9.3-16.1
		C2340.9,178,2344.5,175.1,2344.5,168.1z M2329.9,172.8L2329.9,172.8l-11.2,0v-10.3h9.2c3.7,0,8.5,0,8.5,4.5
		C2336.5,171.8,2334.1,172.9,2329.9,172.8z M2325.8,139.9h-0.1c-19.5,0-35.2,15.8-35.2,35.3v0.1c0.1,19.4,15.8,35.2,35.3,35.1h0.1
		c19.5,0,35.3-15.8,35.2-35.3C2361.1,155.7,2345.3,139.9,2325.8,139.9z M2325.8,202.4h-0.2c-15-0.1-27.1-12.2-27-27.2
		c0-15.1,12.1-27.2,27.2-27.2c15,0,27.2,12.2,27.2,27.2C2353,190.3,2340.7,202.4,2325.8,202.4z M2344.5,168.1
		c0-10.1-6-11.7-14.8-11.7h-19.1v38.2h8.1v-15.7h7.1l8.5,15.7h9.1l-9.3-16.1C2340.9,178,2344.5,175.1,2344.5,168.1z M2329.9,172.8
		L2329.9,172.8l-11.2,0v-10.3h9.2c3.7,0,8.5,0,8.5,4.5C2336.5,171.8,2334.1,172.9,2329.9,172.8z M2344.5,168.1
		c0-10.1-6-11.7-14.8-11.7h-19.1v38.2h8.1v-15.7h7.1l8.5,15.7h9.1l-9.3-16.1C2340.9,178,2344.5,175.1,2344.5,168.1z M2329.9,172.8
		L2329.9,172.8l-11.2,0v-10.3h9.2c3.7,0,8.5,0,8.5,4.5C2336.5,171.8,2334.1,172.9,2329.9,172.8z M2344.5,168.1
		c0-10.1-6-11.7-14.8-11.7h-19.1v38.2h8.1v-15.7h7.1l8.5,15.7h9.1l-9.3-16.1C2340.9,178,2344.5,175.1,2344.5,168.1z M2329.9,172.8
		L2329.9,172.8l-11.2,0v-10.3h9.2c3.7,0,8.5,0,8.5,4.5C2336.5,171.8,2334.1,172.9,2329.9,172.8z M2344.5,168.1
		c0-10.1-6-11.7-14.8-11.7h-19.1v38.2h8.1v-15.7h7.1l8.5,15.7h9.1l-9.3-16.1C2340.9,178,2344.5,175.1,2344.5,168.1z M2329.9,172.8
		L2329.9,172.8l-11.2,0v-10.3h9.2c3.7,0,8.5,0,8.5,4.5C2336.5,171.8,2334.1,172.9,2329.9,172.8z M2344.5,168.1
		c0-10.1-6-11.7-14.8-11.7h-19.1v38.2h8.1v-15.7h7.1l8.5,15.7h9.1l-9.3-16.1C2340.9,178,2344.5,175.1,2344.5,168.1z M2329.9,172.8
		L2329.9,172.8l-11.2,0v-10.3h9.2c3.7,0,8.5,0,8.5,4.5C2336.5,171.8,2334.1,172.9,2329.9,172.8z M2344.5,168.1
		c0-10.1-6-11.7-14.8-11.7h-19.1v38.2h8.1v-15.7h7.1l8.5,15.7h9.1l-9.3-16.1C2340.9,178,2344.5,175.1,2344.5,168.1z M2329.9,172.8
		L2329.9,172.8l-11.2,0v-10.3h9.2c3.7,0,8.5,0,8.5,4.5C2336.5,171.8,2334.1,172.9,2329.9,172.8z M2344.5,168.1
		c0-10.1-6-11.7-14.8-11.7h-19.1v38.2h8.1v-15.7h7.1l8.5,15.7h9.1l-9.3-16.1C2340.9,178,2344.5,175.1,2344.5,168.1z M2329.9,172.8
		L2329.9,172.8l-11.2,0v-10.3h9.2c3.7,0,8.5,0,8.5,4.5C2336.5,171.8,2334.1,172.9,2329.9,172.8z M2325.8,139.9h-0.1
		c-19.5,0-35.2,15.8-35.2,35.3v0.1c0.1,19.4,15.8,35.2,35.3,35.1h0.1c19.5,0,35.3-15.8,35.2-35.3
		C2361.1,155.7,2345.3,139.9,2325.8,139.9z M2325.8,202.4h-0.2c-15-0.1-27.1-12.2-27-27.2c0-15.1,12.1-27.2,27.2-27.2
		c15,0,27.2,12.2,27.2,27.2C2353,190.3,2340.7,202.4,2325.8,202.4z M2344.5,168.1c0-10.1-6-11.7-14.8-11.7h-19.1v38.2h8.1v-15.7h7.1
		l8.5,15.7h9.1l-9.3-16.1C2340.9,178,2344.5,175.1,2344.5,168.1z M2329.9,172.8L2329.9,172.8l-11.2,0v-10.3h9.2c3.7,0,8.5,0,8.5,4.5
		C2336.5,171.8,2334.1,172.9,2329.9,172.8z M2344.5,168.1c0-10.1-6-11.7-14.8-11.7h-19.1v38.2h8.1v-15.7h7.1l8.5,15.7h9.1l-9.3-16.1
		C2340.9,178,2344.5,175.1,2344.5,168.1z M2329.9,172.8L2329.9,172.8l-11.2,0v-10.3h9.2c3.7,0,8.5,0,8.5,4.5
		C2336.5,171.8,2334.1,172.9,2329.9,172.8z M2344.5,168.1c0-10.1-6-11.7-14.8-11.7h-19.1v38.2h8.1v-15.7h7.1l8.5,15.7h9.1l-9.3-16.1
		C2340.9,178,2344.5,175.1,2344.5,168.1z M2329.9,172.8L2329.9,172.8l-11.2,0v-10.3h9.2c3.7,0,8.5,0,8.5,4.5
		C2336.5,171.8,2334.1,172.9,2329.9,172.8z M2344.5,168.1c0-10.1-6-11.7-14.8-11.7h-19.1v38.2h8.1v-15.7h7.1l8.5,15.7h9.1l-9.3-16.1
		C2340.9,178,2344.5,175.1,2344.5,168.1z M2329.9,172.8L2329.9,172.8l-11.2,0v-10.3h9.2c3.7,0,8.5,0,8.5,4.5
		C2336.5,171.8,2334.1,172.9,2329.9,172.8z M2344.5,168.1c0-10.1-6-11.7-14.8-11.7h-19.1v38.2h8.1v-15.7h7.1l8.5,15.7h9.1l-9.3-16.1
		C2340.9,178,2344.5,175.1,2344.5,168.1z M2329.9,172.8L2329.9,172.8l-11.2,0v-10.3h9.2c3.7,0,8.5,0,8.5,4.5
		C2336.5,171.8,2334.1,172.9,2329.9,172.8z M1878,525c-63.2-0.1-114.5,51.2-114.6,114.4v0.2c0,63.2,51.2,114.5,114.5,114.5
		c63.2,0,114.5-51.2,114.5-114.5C1992.4,576.3,1941.2,525,1878,525z"/>
	<path class="st0" d="M2258.4,1402.5v6.4c0,25.5-17.6,27.3-54,27.3c-52.6,0-54.8-12.5-54.8-45v-34c0-31.1,4.8-41.2,54.8-41.2
		c29.8,0,50.5,1.4,53.6,20.9v8.4h90.4v-8.4c-1.8-65.3-43.9-71.4-134.3-71.4c-96.5,0-154.9,10.4-154.9,82.5v56.3
		c0,79.5,65.4,82.5,154.9,82.5c38.2,0,74.6,0.3,104.4-16c29.8-16.6,30.3-38.1,30.3-61.8v-6.4H2258.4z M1937.7,1267.3V1485h87.8
		v-217.7H1937.7z M1658.6,1267.3v50.5h84.2V1485h87.8v-167.2h88.6v-50.5H1658.6z M1556.2,1267.3l5.3,167.2h-3.5l-94.3-167.2h-148.3
		V1485h87.8l-5.3-167.2h3.5l93,167.2h149.6v-217.7H1556.2z M1206.2,1267.3h-133.4L974.2,1485h91.2l16.2-37.4h118l17.1,37.4h89.5
		L1206.2,1267.3z M1100.5,1405.1l39.9-94.3h0.9l40.8,94.3H1100.5z M833.6,1434.5v-167.2h-87.8V1485h225.1v-50.5H833.6z
		 M468.6,1267.3v50.5h84.2V1485h87.7v-167.2h88.6v-50.5H468.6z M385.8,1267.3H252.5L153.7,1485H245l16.2-37.4h118l17.1,37.4h89.5
		L385.8,1267.3z M280.1,1405.1l39.9-94.3h0.9l40.8,94.3H280.1z M1878,525c-63.2-0.1-114.5,51.2-114.6,114.4v0.2
		c0,63.2,51.2,114.5,114.5,114.5c63.2,0,114.5-51.2,114.5-114.5C1992.4,576.3,1941.2,525,1878,525z M2344.5,168.1
		c0-10.1-6-11.7-14.8-11.7h-19.1v38.2h8.1v-15.7h7.1l8.5,15.7h9.1l-9.3-16.1C2340.9,178,2344.5,175.1,2344.5,168.1z M2329.9,172.8
		L2329.9,172.8l-11.2,0v-10.3h9.2c3.7,0,8.5,0,8.5,4.5C2336.5,171.8,2334.1,172.9,2329.9,172.8z M2344.5,168.1
		c0-10.1-6-11.7-14.8-11.7h-19.1v38.2h8.1v-15.7h7.1l8.5,15.7h9.1l-9.3-16.1C2340.9,178,2344.5,175.1,2344.5,168.1z M2329.9,172.8
		L2329.9,172.8l-11.2,0v-10.3h9.2c3.7,0,8.5,0,8.5,4.5C2336.5,171.8,2334.1,172.9,2329.9,172.8z M2344.5,168.1
		c0-10.1-6-11.7-14.8-11.7h-19.1v38.2h8.1v-15.7h7.1l8.5,15.7h9.1l-9.3-16.1C2340.9,178,2344.5,175.1,2344.5,168.1z M2329.9,172.8
		L2329.9,172.8l-11.2,0v-10.3h9.2c3.7,0,8.5,0,8.5,4.5C2336.5,171.8,2334.1,172.9,2329.9,172.8z M2344.5,168.1
		c0-10.1-6-11.7-14.8-11.7h-19.1v38.2h8.1v-15.7h7.1l8.5,15.7h9.1l-9.3-16.1C2340.9,178,2344.5,175.1,2344.5,168.1z M2329.9,172.8
		L2329.9,172.8l-11.2,0v-10.3h9.2c3.7,0,8.5,0,8.5,4.5C2336.5,171.8,2334.1,172.9,2329.9,172.8z M2325.8,139.9h-0.1
		c-19.5,0-35.2,15.8-35.2,35.3v0.1c0.1,19.4,15.8,35.2,35.3,35.1h0.1c19.5,0,35.3-15.8,35.2-35.3
		C2361.1,155.7,2345.3,139.9,2325.8,139.9z M2325.8,202.4h-0.2c-15-0.1-27.1-12.2-27-27.2c0-15.1,12.1-27.2,27.2-27.2
		c15,0,27.2,12.2,27.2,27.2C2353,190.3,2340.7,202.4,2325.8,202.4z M2344.5,168.1c0-10.1-6-11.7-14.8-11.7h-19.1v38.2h8.1v-15.7h7.1
		l8.5,15.7h9.1l-9.3-16.1C2340.9,178,2344.5,175.1,2344.5,168.1z M2329.9,172.8L2329.9,172.8l-11.2,0v-10.3h9.2c3.7,0,8.5,0,8.5,4.5
		C2336.5,171.8,2334.1,172.9,2329.9,172.8z M2344.5,168.1c0-10.1-6-11.7-14.8-11.7h-19.1v38.2h8.1v-15.7h7.1l8.5,15.7h9.1l-9.3-16.1
		C2340.9,178,2344.5,175.1,2344.5,168.1z M2329.9,172.8L2329.9,172.8l-11.2,0v-10.3h9.2c3.7,0,8.5,0,8.5,4.5
		C2336.5,171.8,2334.1,172.9,2329.9,172.8z M2344.5,168.1c0-10.1-6-11.7-14.8-11.7h-19.1v38.2h8.1v-15.7h7.1l8.5,15.7h9.1l-9.3-16.1
		C2340.9,178,2344.5,175.1,2344.5,168.1z M2329.9,172.8L2329.9,172.8l-11.2,0v-10.3h9.2c3.7,0,8.5,0,8.5,4.5
		C2336.5,171.8,2334.1,172.9,2329.9,172.8z M2344.5,168.1c0-10.1-6-11.7-14.8-11.7h-19.1v38.2h8.1v-15.7h7.1l8.5,15.7h9.1l-9.3-16.1
		C2340.9,178,2344.5,175.1,2344.5,168.1z M2329.9,172.8L2329.9,172.8l-11.2,0v-10.3h9.2c3.7,0,8.5,0,8.5,4.5
		C2336.5,171.8,2334.1,172.9,2329.9,172.8z M2344.5,168.1c0-10.1-6-11.7-14.8-11.7h-19.1v38.2h8.1v-15.7h7.1l8.5,15.7h9.1l-9.3-16.1
		C2340.9,178,2344.5,175.1,2344.5,168.1z M2329.9,172.8L2329.9,172.8l-11.2,0v-10.3h9.2c3.7,0,8.5,0,8.5,4.5
		C2336.5,171.8,2334.1,172.9,2329.9,172.8z"/>
	<path class="st0" d="M385.8,1267.3H252.5L153.7,1485H245l16.2-37.4h118l17.1,37.4h89.5L385.8,1267.3z M280.1,1405.1l39.9-94.3h0.9
		l40.8,94.3H280.1z M1878,525c-63.2-0.1-114.5,51.2-114.6,114.4v0.2c0,63.2,51.2,114.5,114.5,114.5c63.2,0,114.5-51.2,114.5-114.5
		C1992.4,576.3,1941.2,525,1878,525z"/>
	<path class="st0" d="M1206.2,1267.3h-133.4L974.2,1485h91.2l16.2-37.4h118l17.1,37.4h89.5L1206.2,1267.3z M1100.5,1405.1l39.9-94.3
		h0.9l40.8,94.3H1100.5z M833.6,1434.5v-167.2h-87.8V1485h225.1v-50.5H833.6z M468.6,1267.3v50.5h84.2V1485h87.7v-167.2h88.6v-50.5
		H468.6z"/>
	<path class="st0" d="M2344.5,168.1c0-10.1-6-11.7-14.8-11.7h-19.1v38.2h8.1v-15.7h7.1l8.5,15.7h9.1l-9.3-16.1
		C2340.9,178,2344.5,175.1,2344.5,168.1z M2329.9,172.8L2329.9,172.8l-11.2,0v-10.3h9.2c3.7,0,8.5,0,8.5,4.5
		C2336.5,171.8,2334.1,172.9,2329.9,172.8z M2344.5,168.1c0-10.1-6-11.7-14.8-11.7h-19.1v38.2h8.1v-15.7h7.1l8.5,15.7h9.1l-9.3-16.1
		C2340.9,178,2344.5,175.1,2344.5,168.1z M2329.9,172.8L2329.9,172.8l-11.2,0v-10.3h9.2c3.7,0,8.5,0,8.5,4.5
		C2336.5,171.8,2334.1,172.9,2329.9,172.8z M2344.5,168.1c0-10.1-6-11.7-14.8-11.7h-19.1v38.2h8.1v-15.7h7.1l8.5,15.7h9.1l-9.3-16.1
		C2340.9,178,2344.5,175.1,2344.5,168.1z M2329.9,172.8L2329.9,172.8l-11.2,0v-10.3h9.2c3.7,0,8.5,0,8.5,4.5
		C2336.5,171.8,2334.1,172.9,2329.9,172.8z M2344.5,168.1c0-10.1-6-11.7-14.8-11.7h-19.1v38.2h8.1v-15.7h7.1l8.5,15.7h9.1l-9.3-16.1
		C2340.9,178,2344.5,175.1,2344.5,168.1z M2329.9,172.8L2329.9,172.8l-11.2,0v-10.3h9.2c3.7,0,8.5,0,8.5,4.5
		C2336.5,171.8,2334.1,172.9,2329.9,172.8z M2325.8,139.9h-0.1c-19.5,0-35.2,15.8-35.2,35.3v0.1c0.1,19.4,15.8,35.2,35.3,35.1h0.1
		c19.5,0,35.3-15.8,35.2-35.3C2361.1,155.7,2345.3,139.9,2325.8,139.9z M2325.8,202.4h-0.2c-15-0.1-27.1-12.2-27-27.2
		c0-15.1,12.1-27.2,27.2-27.2c15,0,27.2,12.2,27.2,27.2C2353,190.3,2340.7,202.4,2325.8,202.4z M2344.5,168.1
		c0-10.1-6-11.7-14.8-11.7h-19.1v38.2h8.1v-15.7h7.1l8.5,15.7h9.1l-9.3-16.1C2340.9,178,2344.5,175.1,2344.5,168.1z M2329.9,172.8
		L2329.9,172.8l-11.2,0v-10.3h9.2c3.7,0,8.5,0,8.5,4.5C2336.5,171.8,2334.1,172.9,2329.9,172.8z M2344.5,168.1
		c0-10.1-6-11.7-14.8-11.7h-19.1v38.2h8.1v-15.7h7.1l8.5,15.7h9.1l-9.3-16.1C2340.9,178,2344.5,175.1,2344.5,168.1z M2329.9,172.8
		L2329.9,172.8l-11.2,0v-10.3h9.2c3.7,0,8.5,0,8.5,4.5C2336.5,171.8,2334.1,172.9,2329.9,172.8z M2344.5,168.1
		c0-10.1-6-11.7-14.8-11.7h-19.1v38.2h8.1v-15.7h7.1l8.5,15.7h9.1l-9.3-16.1C2340.9,178,2344.5,175.1,2344.5,168.1z M2329.9,172.8
		L2329.9,172.8l-11.2,0v-10.3h9.2c3.7,0,8.5,0,8.5,4.5C2336.5,171.8,2334.1,172.9,2329.9,172.8z M2344.5,168.1
		c0-10.1-6-11.7-14.8-11.7h-19.1v38.2h8.1v-15.7h7.1l8.5,15.7h9.1l-9.3-16.1C2340.9,178,2344.5,175.1,2344.5,168.1z M2329.9,172.8
		L2329.9,172.8l-11.2,0v-10.3h9.2c3.7,0,8.5,0,8.5,4.5C2336.5,171.8,2334.1,172.9,2329.9,172.8z M2344.5,168.1
		c0-10.1-6-11.7-14.8-11.7h-19.1v38.2h8.1v-15.7h7.1l8.5,15.7h9.1l-9.3-16.1C2340.9,178,2344.5,175.1,2344.5,168.1z M2329.9,172.8
		L2329.9,172.8l-11.2,0v-10.3h9.2c3.7,0,8.5,0,8.5,4.5C2336.5,171.8,2334.1,172.9,2329.9,172.8z M2258.4,1402.5v6.4
		c0,25.5-17.6,27.3-54,27.3c-52.6,0-54.8-12.5-54.8-45v-34c0-31.1,4.8-41.2,54.8-41.2c29.8,0,50.5,1.4,53.6,20.9v8.4h90.4v-8.4
		c-1.8-65.3-43.9-71.4-134.3-71.4c-96.5,0-154.9,10.4-154.9,82.5v56.3c0,79.5,65.4,82.5,154.9,82.5c38.2,0,74.6,0.3,104.4-16
		c29.8-16.6,30.3-38.1,30.3-61.8v-6.4H2258.4z M1937.7,1267.3V1485h87.8v-217.7H1937.7z M1658.6,1267.3v50.5h84.2V1485h87.8v-167.2
		h88.6v-50.5H1658.6z M1556.2,1267.3l5.3,167.2h-3.5l-94.3-167.2h-148.3V1485h87.8l-5.3-167.2h3.5l93,167.2h149.6v-217.7H1556.2z"/>
	<path class="st0" d="M2344.5,168.1c0-10.1-6-11.7-14.8-11.7h-19.1v38.2h8.1v-15.7h7.1l8.5,15.7h9.1l-9.3-16.1
		C2340.9,178,2344.5,175.1,2344.5,168.1z M2329.9,172.8L2329.9,172.8l-11.2,0v-10.3h9.2c3.7,0,8.5,0,8.5,4.5
		C2336.5,171.8,2334.1,172.9,2329.9,172.8z"/>
	<path class="st0" d="M2344.5,168.1c0-10.1-6-11.7-14.8-11.7h-19.1v38.2h8.1v-15.7h7.1l8.5,15.7h9.1l-9.3-16.1
		C2340.9,178,2344.5,175.1,2344.5,168.1z M2329.9,172.8L2329.9,172.8l-11.2,0v-10.3h9.2c3.7,0,8.5,0,8.5,4.5
		C2336.5,171.8,2334.1,172.9,2329.9,172.8z"/>
</g>
</svg>
