<?xml version="1.0" encoding="utf-8"?>
<!-- Generator: Adobe Illustrator 26.2.1, SVG Export Plug-In . SVG Version: 6.00 Build 0)  -->
<svg version="1.1" id="Layer_1" xmlns="http://www.w3.org/2000/svg" xmlns:xlink="http://www.w3.org/1999/xlink" x="0px" y="0px"
	 viewBox="0 0 2500 1756.4" style="enable-background:new 0 0 2500 1756.4;" xml:space="preserve">
<style type="text/css">
	.st0{fill-rule:evenodd;clip-rule:evenodd;fill:#FFFFFF;}
</style>
<g>
	<path class="st0" d="M2030.9,1573.2v-302.6H1906v302.6H2030.9z M1369.7,1447.6v-172.4h-121v131.8c0,38.3-1.5,49-3.8,59
		c-8.4,27.6-37.5,39.8-67.4,39.8c-41.4,0-60.5-16.1-68.2-41.4c-2.3-8.4-3.1-17.6-3.8-26.8c-0.8-10,0-20.7,0-32.2v-130.3H982.9v173.1
		c0,39.1,13,68.2,34.5,88.1c36.8,36,98.8,46.7,156.3,46.7c69.7,0,123.3-10,161.6-47.5C1355.2,1516.5,1369.7,1491.2,1369.7,1447.6
		L1369.7,1447.6z M775.3,1426.1c-6.1-1.1-12.2-1.6-18.4-1.5H619c-6.9,0-14.6,0.8-18.4,1.5c2.3-2.3,6.9-6.9,11.5-13l62-102.7
		c8.4-13.8,12.3-23,13.8-26.8c1.5,3.8,5.4,13,13.8,27.6l63.6,103.4C768.4,1419.2,773,1423.8,775.3,1426.1L775.3,1426.1z
		 M1006.6,1573.2l-275.8-413.7H576.1l40.6,48.3c0.8,0.8,2.3,1.5,3.8,2.3c-1.5,0.8-3.1,1.5-3.8,2.3l-240.6,360.8h139.4l37.5-62.1
		c1.5-3.1,2.3-6.1,2.3-7.7c1.5,0,5.4,1.5,9.2,1.5h249c3.8,0,6.9-0.8,8.4-1.5c-0.1,2.2,0.4,4.3,1.5,6.1l39.1,63.6H1006.6
		L1006.6,1573.2z M1872.3,1417.7c0-33.7-13.8-72.8-56.7-127.2l-103.4-131h-144l82,91.9c13.8,15.3,31.4,29.1,31.4,29.1
		c-19.9-11.5-45.2-16.1-65.1-16.1c-47.5,0-95.8,10-138.7,33.7c-46,25.3-76.6,67.4-76.6,123.3c0,42.9,19.2,75.8,43.7,101.1
		c55.2,55.1,155.5,60.5,192.3,60.5c54.4,0,139.4-12.3,187.7-55.9C1853.2,1501.2,1872.3,1465.2,1872.3,1417.7L1872.3,1417.7z
		 M1752.8,1421.5c0,31.4-20.7,55.1-46.7,68.2c-21.5,11.5-46.7,14.6-68.9,14.6c-22.2,0-48.3-4.6-69.7-15.3c-26-13-46-38.3-46-65.9
		c0-32.9,25.3-59,55.2-72c18.4-8.4,40.6-11.5,58.2-11.5c16.9,0,41.4,2.3,60.5,10C1729.8,1364,1752.8,1391.6,1752.8,1421.5
		L1752.8,1421.5z M1991.2,173.2c-89.7-0.1-176.8,30.1-247.1,85.8c-70.3-55.7-157.4-86-247.1-85.8c-89.7-0.1-176.8,30.1-247.1,85.8
		c-70.3-55.7-157.4-86-247.1-85.8c-89.7-0.1-176.8,30.1-247.1,85.8c-70.3-55.7-157.4-86-247.1-85.8
		c-220.1,0-398.5,178.4-398.5,398.5c0,220.1,178.4,398.5,398.5,398.5c89.7,0.1,176.8-30.1,247.1-85.8c70.3,55.7,157.4,86,247.1,85.8
		c89.7,0.2,176.8-30.1,247.1-85.8c70.3,55.7,157.4,86,247.1,85.8c89.7,0.1,176.8-30.1,247.1-85.8c70.3,55.7,157.4,86,247.1,85.8
		c220.1,0,398.5-178.4,398.5-398.5S2211.3,173.2,1991.2,173.2z M690.6,819.2c-50.8,37-114.2,59.6-181.9,59.6
		c-169.8,0-307.2-137.4-307.2-307.2S339,264.5,508.8,264.5c67.7,0,131.1,22.6,181.9,59.7c-56,70.3-86.4,157.6-86.2,247.5
		C604.5,661.6,634.9,748.8,690.6,819.2z M755.9,754.2c-39.2-52.8-60.2-116.8-60.1-182.5c-0.2-65.7,20.9-129.8,60.1-182.5
		C795,442,816.1,506,816,571.7C816.1,637.4,795,701.4,755.9,754.2z M1184.8,819.2c-52.8,38.8-116.6,59.7-182.1,59.6
		c-65.4,0.1-129.1-20.7-181.7-59.6c55.8-70.4,86.2-157.7,86.2-247.5c0.2-89.9-30.2-177.2-86.2-247.5
		c52.6-38.8,116.3-59.7,181.7-59.6c68.2,0,131.1,22,182.1,59.6c-56,70.3-86.4,157.6-86.2,247.5
		C1098.6,661.6,1129,748.8,1184.8,819.2z M1250,754.2c-39.2-52.8-60.2-116.8-60.1-182.5c-0.2-65.7,20.9-129.8,60.1-182.5
		c39.2,52.8,60.3,116.8,60.1,182.5C1310.2,637.4,1289.2,701.4,1250,754.2z M1678.9,819.2c-51,37.5-113.9,59.6-182.1,59.6
		c-68.1,0-130.7-22.1-181.7-59.6c55.8-70.4,86.2-157.7,86.2-247.5c0.2-89.9-30.2-177.2-86.2-247.5c51-37.5,113.5-59.6,181.7-59.6
		c68.1,0,131.1,22,182.1,59.6c-56,70.3-86.4,157.6-86.2,247.5C1592.8,661.6,1623.2,748.8,1678.9,819.2z M1744.2,754.2
		c-39.2-52.8-60.2-116.8-60.1-182.5c-0.2-65.7,20.9-129.8,60.1-182.5c39.2,52.8,60.3,116.8,60.1,182.5
		C1804.4,637.4,1783.3,701.4,1744.2,754.2z M1991.2,878.9c-67.7,0-131.1-22.6-181.9-59.6c55.8-70.5,86.2-157.7,86.2-247.5
		c0.2-89.9-30.2-177.2-86.2-247.5c50.8-37,114.2-59.7,181.9-59.7c169.8,0,307.2,137.4,307.2,307.2
		C2298.4,741.5,2161,878.9,1991.2,878.9z"/>
</g>
</svg>
