<?xml version="1.0" encoding="utf-8"?>
<!-- Generator: Adobe Illustrator 26.2.1, SVG Export Plug-In . SVG Version: 6.00 Build 0)  -->
<svg version="1.1" id="Layer_1" xmlns="http://www.w3.org/2000/svg" xmlns:xlink="http://www.w3.org/1999/xlink" x="0px" y="0px"
	 viewBox="0 0 1044 354" style="enable-background:new 0 0 1044 354;" xml:space="preserve">
<style type="text/css">
	.st0{fill:#FFFFFF;}
</style>
<path class="st0" d="M60.5,177c0,70.8,0.2,128.7,0.4,128.7c0.4,0,47.9-8.8,53.8-10l3-0.6v-94.5h36.2V192c0-4.7,0.2-17,0.4-27.4
	l0.4-18.8h-37v-41.5H139c11.7,0,21.3-0.1,21.3-0.3c0-0.6,4.7-50.5,5-53l0.4-2.7H60.5V177z M933.8,55.8l-46.6,3.9v232.6l1.9,0.3
	c1.7,0.3,91.9,6.8,93.7,6.8c0.5,0,0.7-6.2,0.7-28.9v-28.9h-39.7v-42h33.9v-50.2h-35V116l1.3-0.2c0.7-0.2,6.7-0.4,13.3-0.6
	c6.6-0.2,15.2-0.5,19.2-0.7l7.1-0.4V51.8l-1.6,0.1C981,51.9,959.4,53.6,933.8,55.8z M634.7,63.8c0.6,5.8,7.2,93.8,7.1,93.9
	c-0.1,0.1-8.6-21-19.1-46.8c-10.4-25.9-19.2-47.3-19.4-47.7c-0.4-0.6-16.5,2.3-42.9,7.9l-2.5,0.5v200.7h52l-0.3-4.2
	c-0.6-7.8-2.7-72.5-2.5-75.1c0.2-2.3,1.9,1.7,18.5,41.7c10,24.3,18.6,44.5,18.8,44.8c0.4,0.4,8.5-0.2,22.2-1.3c12-1.1,21.8-2,21.8-2
	c0.1-0.1-0.2-42.2-0.6-93.5c-0.4-51.4-0.8-99.9-0.8-107.9l-0.1-14.4h-52.6L634.7,63.8z M223.6,64.1c-34.9,2.3-54.1,26.2-60.2,74.7
	c-1.2,10-1.8,44.1-0.9,56.1c2.9,38.7,13.4,63.8,31.9,76.5c10,6.8,25,10.5,39.8,9.6c16.9-0.9,28.4-5.7,38.7-16.1
	c8.5-8.5,13.1-16.4,17.5-30c6.2-18.9,9-47.2,7.6-76.6c-1.6-32.9-6.5-53.4-16.8-69.1c-9.8-14.9-25.2-23.9-43.1-25
	c-2.9-0.2-5.9-0.4-6.7-0.5C230.7,63.7,227.2,63.8,223.6,64.1L223.6,64.1z M231.9,110c4.3,4.6,6.1,23,6.1,62.4
	c0,48.5-3,68.6-9.7,64.3c-2.9-1.9-5-11.3-6.1-26.9c-0.8-11.4-0.8-63.5,0-74.4c1.1-15.4,3.1-23.9,6.1-26
	C229.9,108.1,230.2,108.2,231.9,110z M305.7,170.2v106.3h53.5l0.4-7.4c0.2-4.1,0.7-17.6,1.1-30c0.4-12.4,0.8-23.2,1.1-24.1
	c0.3-1.2,2.8,6.7,10.5,33.3c5.6,19.2,10.3,35.1,10.6,35.4c0.5,0.5,55.2-3.8,55.8-4.4c0.2-0.2-5.9-19.3-13.5-42.6l-13.8-42.2l2.9-2.6
	c9.7-8.5,17.7-24.8,20-41c1-7.1,0.4-24.6-1.2-31.1c-5.8-25.4-21.3-45.1-41-52.5c-8.6-3.2-7.9-3.1-48.5-3.3L305.7,64V170.2z
	 M365.9,114.3c4.1,2,7.5,7.3,9.3,14.5c1.2,4.8,1.1,20.2-0.3,25.1c-2.5,9.2-6.9,14.6-13.6,16.6l-1.3,0.4v-58.4l1.9,0.4
	C362.9,113.1,364.7,113.7,365.9,114.3z M435.9,91.8v27.1h29.8v156.5h56.1V128.2h30.4V73.9l-1.3-0.2c-1.2-0.3-112.6-9.2-114.1-9.1
	C436.1,64.6,435.9,70.4,435.9,91.8z M699.2,176.4v106H757V70.4h-57.8V176.4z M823,77.8c-31.6,1.7-58,3.1-58.5,3.1
	c-1,0.1-1.1,1.8-1.1,27.5v27.4h29.8v153.6h56.6v-160h31.5V102c0-15.1-0.2-27.4-0.4-27.4C880.7,74.6,854.6,76.1,823,77.8z"/>
</svg>
