<?xml version="1.0" encoding="utf-8"?>
<!-- Generator: Adobe Illustrator 26.2.1, SVG Export Plug-In . SVG Version: 6.00 Build 0)  -->
<svg version="1.1" id="Layer_1" xmlns="http://www.w3.org/2000/svg" xmlns:xlink="http://www.w3.org/1999/xlink" x="0px" y="0px"
	 viewBox="0 0 2500 869.2" style="enable-background:new 0 0 2500 869.2;" xml:space="preserve">
<style type="text/css">
	.st0{fill-rule:evenodd;clip-rule:evenodd;fill:#FFFFFF;}
</style>
<g>
	<path class="st0" d="M1711,382.3c-8.7-18.9-49.4-53.8-68.3-59.6c-13.1-2.9-98.8,36.3-109,46.5c-10.2,8.7-11.6,23.2-23.2,30.5
		c0-8.7-11.6-13.1-10.2-24.7c1.4-13.1,2.9-26.2,5.8-40.7c1.5-13.1,1.5-26.1,2.9-40.7c1.5-11.6,4.4-26.2,1.5-39.2
		c-7.3-45-72.7-149.7-127.9-119.2c-33.4,0-14.5-37.8-59.6-39.2c-8.7,0-17.4,1.5-24.7,1.5c-13.1,0-24.7-1.5-37.8-2.9
		c-7.3,2.9-14.5,7.3-21.8,10.2v-2.9c-8.7,0-4.4,21.8-2.9,27.6c10.2,53.8,10.2,110.4,16,168.6c2.9,23.3,17.4,56.7,8.7,79.9
		c-5.8,0-17.4-7.3-21.8-2.9c-14.5,14.5,24.7,140.9,27.6,162.7h-5.8c0-5.8-7.3-10.2-13.1-10.2s-1.5,17.4,0,21.8l8.7,47.9
		c1.5,17.4,1.5,36.3,2.9,55.2c7.3,40.7,13.1,81.4,20.3,122.1h5.8c0-24.7,10.2-42.1,10.2-65.4c0-10.2-2.9-16-2.9-24.7
		c1.5-14.5,2.9-29.1-4.4-40.7v-2.9h7.3c0,4.4,4.4,8.7,8.7,11.6c-1.4,5.8-4.4,13.1-5.8,18.9h2.9c1.4-4.4,1.4-8.7,2.9-13.1
		c5.8,0,10.2,5.8,16,7.3c0-52.3-2.9-100.3-2.9-149.7h2.9v2.9c4.4,0,5.8,5.8,8.7,8.7c-2.9,0-5.8-1.4-8.7-2.9c0,0,24.7,29.1,27.6,32
		v2.9h2.9c0-10.2-1.5-21.8-2.9-32c1.4-20.3,4.4-40.7,5.8-62.5c-1.5-23.2-1.5-46.5-2.9-71.2h7.3v2.9c4.4,0,32,50.9,36.3,59.6
		c26.1,0,55.2-14.5,78.5-23.3l21.8-8.7c5.8-1.5,11.6,2.9,16,5.8c7.2,8.7,5.8,18.9,7.2,29.1c1.5,21.8-2.9,42.1-4.4,62.5
		c-2.9,65.4,18.9,100.3,74.1,127.9c30.5,14.5,69.7,7.3,95.9-11.6c13.1-8.7,29.1-24.7,34.9-40.7c5.8-14.5,0-39.2,0-56.7
		C1718.3,492.7,1728.5,421.5,1711,382.3L1711,382.3z M1413.1,399.7c-4.4,0-5.8,2.9-10.2,5.8c-8.7,4.4-16-1.5-23.3-5.8
		c0-5.8,2.9-10.2,5.8-14.5c9.6,1.4,19,4.3,27.6,8.7V399.7L1413.1,399.7z M1416.1,363.4h-2.9c0,2.9-49.4,1.5-59.6,2.9v-2.9
		c-5.8,0,0-17.4,1.4-21.8c5.8-34.9,2.9-79.9,1.4-116.2c0-13.1-8.7-30.5,0-42.1c5.8-10.2,21.8-11.6,32-16c8.7,2.9,20.3,5.8,24.7,16
		c5.8,14.5,2.9,34.9,2.9,52.3L1416.1,363.4L1416.1,363.4z M1589,391c4.4-14.5,29.1-29.1,42.2-34.9v-2.9
		c17.4,18.9-26.2,43.6-40.7,46.5v-2.9C1586.1,396.8,1587.5,395.3,1589,391z M1641.3,610.4c-5.8,10.2-14.5,13.1-26.1,13.1
		c-33.4-1.5-26.2-95.9-27.6-123.5c-1.5-17.4-8.7-45.1-1.5-62.5c4.4-8.7,14.5-14.5,23.3-18.9v-2.9h29.1c1.5,8.7,2.9,17.4,4.4,24.7
		c1.5,32,1.5,62.5,1.5,94.4C1644.2,558.1,1650,590,1641.3,610.4L1641.3,610.4z M677.9,518.9V513c-7.3,0-18.9-8.7-21.8-14.5
		c-8.7-18.9-2.9-65.4-2.9-88.6c0-23.3,0-47.9-4.4-68.3c-8.7-37.8-37.8-72.7-63.9-101.7c-4.4-5.8-10.2-8.7-18.9-7.3
		c-14.5,0-63.9,18.9-72.7,29.1c-14.5,18.9-4.4,61,7.3,77c0,2.9-1.5,2.9,2.9,2.9c0-10.2,16-17.4,21.8-21.8
		c14.5-7.3,34.9-23.2,50.9-7.3c16,16,1.5,117.7,2.9,146.8v34.9c-1.5,11.6-1.5,24.7-10.2,33.4v2.9c-20.3,0-36.3-106.1-18.9-126.4
		c-1.5-7.3-4.4-14.5-5.8-21.8H537c0,10.2-75.6,4.4-81.4-5.8c-5.8-11.6,0-26.2-1.5-37.8c-1.5-24.7-7.3-55.2-2.9-81.4
		c7.3-36.3,26.2-66.8,36.3-100.3h-84.3l-21.8,13.1c-5.8,0-13.1,1.4-14.5,7.3c-2.9,13.1,4.4,30.5,4.4,45c0,59.6-1.5,120.6-2.9,180.2
		c-1.5,8.7-7.3,13.1-14.5,16v2.9h-5.8c0-2.9,0-2.9-4.4-2.9c0,7.3-33.4,30.5-39.2,37.8h-10.2v-2.9h-2.9c0-23.2,4.4-46.5,4.4-68.3
		c0-24.7-5.8-52.3-4.4-78.5c1.5-18.9,14.5-97.4,4.4-111.9c-10.2-14.5-69.8-2.9-85.7-2.9c-8.7,1.5-17.4,1.5-26.2,1.5
		c-8.7,2.9,2.9,21.8,5.8,26.2c16,27.6,13.1,69.8,8.7,103.2c0,11.6,1.5,21.8,1.5,33.4l-4.4,43.6c-1.5,26.2,8.7,53.8,0,75.5v2.9
		c-18.9,0-49.4-33.4-56.7-46.5c-8.7,0,10.2-14.5,11.6-16c5.8,0,4.3-11.6,7.3-16v-2.9h-2.9c0-4.4-2.9-2.9-7.3-2.9
		c-27.6,2.9-43.6,24.7-34.9,52.3c11.6,34.9,50.9,39.2,74.1,62.5c13.1,13.1,11.6,125,2.9,142.4c-7.3,17.4-24.7,27.6-34.9,42.1h-4.3
		v5.8c16-1.5,30.5-2.9,45-5.8c29.1-1.4,69.8,4.4,93,18.9c4.4,0,2.9-1.5,5.8-2.9c0-30.5-24.7-177.3-8.7-193.3
		c5.8-7.3,18.9-7.3,26.2-10.2c17.4-5.8,32-18.9,47.9-27.6c0-4.4,1.5-2.9,5.8-2.9v2.9c5.8,0,1.5,27.6,1.5,34.9
		c2.9,17.4,5.8,36.3,7.3,55.2c0,14.5-1.5,29.1-1.5,43.6c-1.5,56.7-10.2,87.2-53.8,122.1v8.7c33.4,1.5,66.8,1.5,100.3,1.5
		c26.2,2.9,47.9,10.2,71.2,14.5v-2.9h-2.9c0-7.3-16-18.9-18.9-26.2c-7.3-13.1-14.5-27.6-17.4-43.6c-4.4-29.1,2.9-58.1,4.4-85.7
		c-1.5-32-2.9-62.5-4.4-94.4c-1.5-29.1,1.5-58.1,2.9-87.2h2.9v-2.9h30.5v2.9h2.9v7.3c-4.4,0-8.7,4.4-11.6,5.8
		c-24.7,17.4-2.9,56.7,1.5,78.5c5.8,24.7,4.4,55.2,23.2,74.1c17.4,16,40.7-10.2,59.6-10.2c10.2,0,14.5,5.8,24.7,7.3
		c8.7,1.5,18.9,1.5,27.6,2.9c0-23.2,42.1-52.3,59.6-65.4C676.5,518.9,676.5,518.9,677.9,518.9L677.9,518.9z M1169,328.5
		c-8.7-2.9-58.1-5.8-65.4,1.5c1.5,7.3,2.9,16,4.4,23.3c0,18.9-14.5,63.9-26.2,77c-4.4,5.8-10.2,8.7-17.4,7.3
		c-4.4-1.5-8.7-2.9-11.6-8.7s-14.5-52.3-13.1-59.6c2.9-11.6,14.5-16,11.6-30.5c0-5.8-1.5-5.8-5.8-7.3v2.9
		c-13.1,4.4-27.6,8.7-40.7,13.1h-30.5c-11.6,0-24.7,0-32-7.3c-11.6-10.2-5.8-61-5.8-79.9h13.1c0,20.3,18.9,34.9,0,52.3v7.3
		c5.8,0,8.7,5.8,17.4,5.8c14.5-1.5,29.1-16,40.7-21.8c13.1-5.8,24.7-10.2,37.8-16h2.9c0-13.1-50.9-79.9-63.9-84.3
		c-16-4.4-30.5,2.9-45,7.3v-4.4h-2.9c0-14.5,1.5-29.1-2.9-43.6c-27.6,18.9-58.1,56.7-87.2,65.4c0,7.3,16,14.5,17.4,34.9v62.5
		c-1.5,8.7-1.5,16-2.9,24.7c2.9,42.1,5.8,97.4-7.3,133.7c-5.8,18.9-26.2,29.1-36.3,46.5h-2.9v4.4c20.3,0,43.6,2.9,65.4,2.9
		c24.7,0,47.9-4.4,69.7,0v-7.3c-5.8,0-11.6-11.6-13.1-16c-7.3-21.8-1.5-50.9,0-74.1v-74.1h2.9v-2.9c29.1,0,69.7,151.1,63.9,183.1
		c-1.5,2.9-49.4,69.7-52.3,72.7c-16,13.1-117.7,10.2-122.1-8.7c-7.3-24.7,42.1-30.5,61-29.1v-2.9h2.9v-2.9H890
		c0-5.8-2.9-4.4-5.8-4.4c-26.2,0-59.6,4.4-81.4-2.9h-7.3c0,16-27.6,42.1-24.7,56.7c4.4,27.6,158.4,59.6,190.3,50.9
		c16-5.8,40.7-26.2,52.3-39.2c5.8-7.3,10.2-16,14.5-23.2c18.9-27.6,37.8-56.7,53.8-85.7c16-33.4,29.1-68.3,47.9-98.8
		c16-26.2,46.5-46.5,49.4-78.5C1179.2,341.6,1177.8,331.4,1169,328.5L1169,328.5z"/>
	<path class="st0" d="M769.5,440.4c-4.4-37.8-2.9-74.1-5.8-111.9c0-17.4-4.4-33.4-4.4-52.3h2.9v-4.4h8.7c2.9,8.7,4.4,16,7.3,23.3
		c4.4,17.4,7.3,45,0,61v4.4h2.9v2.9c11.6,0,27.6-11.6,37.8-17.4c7.3-4.4,18.9-8.7,23.2-16c16-32-14.5-91.5-27.6-116.2
		c-10.2,0-18.9,8.7-29.1,11.6c-27.6,5.8-23.2-20.3-20.3-36.3c-5.8-1.5-10.2-2.9-16-4.4c-11.6,4.4-23.2,5.8-33.4,11.6
		c-23.2,14.5-42.1,42.1-68.3,53.8v7.3h2.9v2.9c14.5,0,18.9-8.7,36.3-2.9l4.4,21.8c-2.9,40.7,4.4,82.8,5.8,125
		c-2.9,27.6-4.4,55.2-5.8,84.3c-1.5,11.6,2.9,24.7-1.5,34.9c-2.9,8.7-16,14.5-20.3,23.3h-4.3v2.9c36.3,0,59.6-4.4,91.5,7.3
		c0-5.8,16-18.9,21.8-21.8C775.3,502.9,772.4,472.4,769.5,440.4L769.5,440.4z M2139.7,537.7h-2.9c-2.9,5.8-4.4,11.6-5.8,18.9
		c-7.3,21.8-10.2,49.4-26.2,68.3v2.9c-30.5,0-30.5-139.5-30.5-168.6h2.9c0-5.8,4.4-2.9,8.7-1.4c29.1,4.4,75.6,33.4,97.4,2.9
		c20.3-26.2,11.6-63.9-2.9-88.6c-2.9-5.8-5.8-13.1-8.7-18.9c-21.8-21.8-56.7-34.9-85.7-43.6c0,0-52.3,40.7-58.1,53.8
		c-11.6,0-14.5-14.5-18.9-21.8c0-7.3-42.1-7.3-50.8-7.3v-2.9c-4.4,0-2.9-4.4-2.9-8.7c1.4-32,17.4-74.1,2.9-103.2v-2.9
		c-2.9,0-2.9-1.5-2.9,2.9c-18.9,0-55.2,71.2-65.4,87.2c-10.2,0-14.5-14.5-18.9-21.8c-10.2-2.9-20.3-5.8-30.5-8.7
		c-5.8,0-2.9-2.9-2.9-7.3c0-24.7,11.6-65.4-5.8-84.3c-27.6,29.1-53.8,55.2-82.8,79.9c-14.5,13.1-43.6,27.6-52.3,42.1
		c-4.4,0-2.9-1.5-2.9,2.9h2.9c0,10.2,55.2-4.4,58.1,34.9V391c4.4,82.8-14.5,171.5-2.9,252.8c1.4,10.2,0,24.7,5.8,33.4
		c13.1,17.4,58.1,36.3,82.8,37.8v-2.9h2.9c0-20.3-21.8-30.5-23.3-49.4c1.5-18.9,2.9-36.3,4.4-53.8c0-47.9,0-95.9,1.4-143.9
		c1.4-24.7,4.4-49.4,7.3-74.1c1.4-24.7-2.9-46.5-5.8-68.3h4.4c0-4.4,27.6-2.9,33.4-2.9v2.9c4.4,0-14.5,34.9-16,43.6h4.4v2.9
		c16,0,30.5-4.4,34.9,16c5.8,29.1,0,62.5-1.4,90.1c-1.4,18.9,7.3,32,4.4,52.3c-5.8,53.8-26.1,132.2,16,172.9
		c20.3,20.3,53.8,34.9,79.9,46.5c36.3,16,46.5,1.4,71.2-23.3c8.7-8.7,16-18.9,24.7-27.6c4.4,0,2.9,1.5,2.9-2.9
		c-5.8,0-10.2-5.8-16-8.7c-11.6-5.8-34.9-10.2-49.4-4.4h-40.7v4.4h-2.9c0,8.7,43.6,17.4,53.8,17.4v4.4h2.9v5.8
		c-5.8,1.5-13.1,2.9-18.9,4.4c-11.6,0-39.2-8.7-46.5-17.4c-11.6-13.1-5.8-181.6-7.3-215.1c0-36.3-2.9-75.5-2.9-114.8h4.4
		c0-4.4,47.9-2.9,55.2,2.9c4.4,0,2.9-1.5,2.9,2.9c-4.4,0-7.3,7.3-8.7,11.6c-11.6,21.8-8.7,50.9-11.6,75.6
		c-1.4,33.4-8.7,74.1,1.5,106.1c11.6,43.6,66.8,77,106.1,90.1c0-4.4,13.1-11.6,18.9-16c8.7-10.2,16-21.8,23.2-32
		C2171.6,578.4,2171.6,563.9,2139.7,537.7L2139.7,537.7z M2085.9,347.4c32,7.3,40.7,50.9,43.6,81.4v8.7c-16,0-29.1-5.8-46.5-5.8
		v-2.9C2075.7,428.8,2081.5,357.6,2085.9,347.4z"/>
	<path class="st0" d="M1856.3,263.1c-1.4-1.5-2.9-1.5-2.9-2.9C1854.9,261.7,1856.3,267.5,1856.3,263.1z M2348.9,293.6
		c-24.7,0-39.2,20.3-56.7,32c0-4.4-5.8-8.7-7.3-13.1c-2.9-13.1,0-23.2-11.6-30.5v2.9c-21.8,0-61,59.6-81.4,75.5v8.7
		c5.8,0,11.6,4.4,16,5.8c1.4,14.5,2.9,27.6,4.4,40.7c-1.4,10.2-1.4,20.3-2.9,32c1.5,39.2,2.9,84.3,0,123.5
		c-2.9,24.7-2.9,45-13.1,65.4c-5.8,11.6-18.9,18.9-32,21.8c0,7.3,4.4,11.6,10.2,14.5c13.1,5.8,27.6,4.4,42.1,7.3
		c21.8,2.9,39.2,11.6,59.6,14.5c13.1,2.9,27.6,4.4,40.7,7.3c11.6,1.5,24.7,2.9,37.8,4.4c8.7-1.5,11.6-7.3,18.9-13.1v-2.9
		c-27.6,0-58.1-7.3-74.1-26.2c-18.9-24.7-11.6-107.5-11.6-142.4c-1.5-18.9-2.9-37.8-4.4-56.7c-1.5-32,2.9-65.4,2.9-98.8h2.9
		c0-5.8,11.6-1.5,16,0c0,29.1,20.3,58.1,0,84.3v2.9h-4.4v2.9c18.9,0,34.9-16,47.9-27.6c11.6-10.2,30.5-18.9,39.2-32
		C2398.3,380.8,2356.2,311.1,2348.9,293.6L2348.9,293.6z M1251.9,513h5.8c0-7.3-2.9-11.6-5.8-16V513z M1336.1,549.4h2.9
		c0-4.4-4.4-5.8-7.3-8.7v5.8C1336.1,546.5,1336.1,545,1336.1,549.4z M1339.1,581.3v2.9h2.9c0-5.8-4.4-8.7-5.8-13.1
		C1336.1,575.5,1337.6,578.4,1339.1,581.3L1339.1,581.3z"/>
</g>
</svg>
