<?xml version="1.0" encoding="utf-8"?>
<!-- Generator: Adobe Illustrator 26.2.1, SVG Export Plug-In . SVG Version: 6.00 Build 0)  -->
<svg version="1.1" id="Layer_1" xmlns="http://www.w3.org/2000/svg" xmlns:xlink="http://www.w3.org/1999/xlink" x="0px" y="0px"
	 viewBox="0 0 2500 454.2" style="enable-background:new 0 0 2500 454.2;" xml:space="preserve">
<style type="text/css">
	.st0{fill-rule:evenodd;clip-rule:evenodd;fill:#FFFFFF;}
</style>
<g>
	<path class="st0" d="M37.9,396.3V49.8h93v132.4h148.3V49.8h93v346.6h-93V256.1H130.9v140.2L37.9,396.3L37.9,396.3z M398.5,49.8
		l147.2,208.6v138h93v-138L784.8,49.8H677.4l-85.2,123.6L505.8,49.8H398.5z M811.1,49.8v346.6h239.1c36.5,0,94.1-14.3,93-88.3V49.8
		h-93v234c0,26.5-14.4,36.4-41,36.4H904.1V49.8H811.1L811.1,49.8z M1200.5,396.3V49.8h239.1c36.5,0,94.1,14.3,93,88.3v258.3h-93
		v-234c0-26.5-14.4-36.4-41-36.4h-105.2v270.4H1200.5L1200.5,396.3z M2464.3,396.3V49.8h-93v346.6H2464.3z M1831.2,49.8h-241.3
		v346.6h241.3c45.4,0,93-25.4,93-88.3V129.2C1924.2,93.9,1916.4,49.8,1831.2,49.8L1831.2,49.8z M1831.2,287.1
		c0,12.2-3.3,28.7-26.6,29.8h-121.8V129.2h124c15.5,0,24.3,11,24.3,25.4V287.1z M2067.8,49.8c-60.9,0-88.6,28.7-88.6,79.5v267.1h93
		v-83.9h146.1v83.9h93V49.8H2067.8z M2218.3,241.5h-146.1v-80.6c0-23.2,8.8-30.9,28.8-32h117.3L2218.3,241.5L2218.3,241.5z"/>
</g>
</svg>
