<?xml version="1.0" encoding="utf-8"?>
<!-- Generator: Adobe Illustrator 26.2.1, SVG Export Plug-In . SVG Version: 6.00 Build 0)  -->
<svg version="1.1" id="Layer_1" xmlns="http://www.w3.org/2000/svg" xmlns:xlink="http://www.w3.org/1999/xlink" x="0px" y="0px"
	 viewBox="0 0 100 53" style="enable-background:new 0 0 100 53;" xml:space="preserve">
<style type="text/css">
	.st0{fill:#FFFFFF;}
	.st1{fill-rule:evenodd;clip-rule:evenodd;fill:#FFFFFF;}
</style>
<g id="nike">
	<g>
		<path id="Shape" class="st0" d="M17.1,32.3c-0.8,0-1.4,0.6-1.4,1.4c0,0.8,0.6,1.4,1.4,1.4c0.8,0,1.4-0.6,1.4-1.4
			C18.5,32.8,17.9,32.3,17.1,32.3z M17.1,34.6c-0.6,0-1-0.4-1-1c0-0.6,0.4-1,1-1c0.6,0,1,0.4,1,1C18.1,34.2,17.7,34.6,17.1,34.6z
			 M30.8,27.5H24l0.8-11.9l-4.5,11.9h-6.4L24,0.5h6.8L30,12.6l4.5-12.1H41L30.8,27.5z M31.7,27.5l10.1-27h6.4l-10.1,27H31.7z"/>
		<path id="Path" class="st1" d="M13.2,18.2C4.3,28.7-4.1,42.6,3.3,49c7.2,6.2,16.2,2.5,22.3,0.1s73.9-31.9,73.9-31.9
			c0.7-0.3,0.5-0.7-0.3-0.5c-0.3,0.1-73.8,20-73.8,20C16.1,39.3,5.5,33.6,13.2,18.2z"/>
		<path id="Shape_00000180338773240249696740000015196529538620499602_" class="st0" d="M17.4,33.7c0.2,0,0.4-0.1,0.4-0.4
			c0-0.4-0.2-0.4-0.6-0.4h-0.6v1.5h0.4v-0.6H17l0.3,0.6h0.4L17.4,33.7z M17.1,33.5h-0.2v-0.3h0.2c0.1,0,0.2,0,0.2,0.2
			C17.3,33.5,17.2,33.5,17.1,33.5z M81.2,0.4c-0.8,0-1.4,0.6-1.4,1.4c0,0.8,0.6,1.4,1.4,1.4s1.4-0.6,1.4-1.4C82.7,1,82,0.4,81.2,0.4
			z M81.2,2.8c-0.6,0-1-0.4-1-1c0-0.6,0.4-1,1-1c0.6,0,1,0.4,1,1C82.2,2.4,81.8,2.8,81.2,2.8z"/>
		<path id="Shape_00000091001439559617756170000001863577028278356370_" class="st0" d="M81.5,1.9c0.2,0,0.4-0.1,0.4-0.4
			c0-0.4-0.2-0.4-0.6-0.4h-0.6v1.5H81V1.9h0.1l0.3,0.6h0.4L81.5,1.9z M81.2,1.7H81V1.3h0.2c0.1,0,0.2,0,0.2,0.2
			C81.4,1.6,81.4,1.7,81.2,1.7z M77,5l1.7-4.5H59.3l-6.7,8.1l3.1-8.1h-6.5l-10,27h6.4l4.3-11.3l0.3,11.3l19.6,0l1.9-5.2h-7.4
			l2.4-6.5h6.1l1.9-5h-6.1L70.6,5H77z M56.5,25.7l-0.4-14.1l9.6-10.6L56.5,25.7z"/>
	</g>
</g>
</svg>
