<?xml version="1.0" encoding="utf-8"?>
<!-- Generator: Adobe Illustrator 26.2.1, SVG Export Plug-In . SVG Version: 6.00 Build 0)  -->
<svg version="1.1" id="Layer_1" xmlns="http://www.w3.org/2000/svg" xmlns:xlink="http://www.w3.org/1999/xlink" x="0px" y="0px"
	 viewBox="0 0 250 44" style="enable-background:new 0 0 250 44;" xml:space="preserve">
<style type="text/css">
	.st0{fill:#FFFFFF;}
</style>
<g id="sony">
	<g id="Shape">
		<path class="st0" d="M246.1,35.2c-1.4,0-2.7,0.7-3.4,1.9c-0.7,1.2-0.7,2.7,0,4c0.7,1.2,2,2,3.4,1.9c1,0,2-0.4,2.7-1.2
			c0.7-0.7,1.1-1.7,1.1-2.8c0-1-0.4-2-1.1-2.8C248.1,35.6,247.2,35.2,246.1,35.2z M246.1,42.5c-0.9,0-1.8-0.4-2.4-1
			c-0.6-0.6-1-1.5-1-2.4c0-0.9,0.4-1.8,1-2.4c0.6-0.6,1.5-1,2.4-1c0.9,0,1.8,0.4,2.4,1c0.6,0.6,1,1.5,1,2.4c0,0.9-0.4,1.8-1,2.4
			C247.9,42.2,247,42.5,246.1,42.5z"/>
		<path class="st0" d="M248,38.2c0-0.4-0.2-0.7-0.5-0.9c-0.3-0.2-0.7-0.2-1-0.2h-1.9v4.2h0.5v-2h1l1.2,2h0.6l-1.3-2
			C247.4,39.3,248,39,248,38.2z M245.9,38.9h-0.8v-1.5h1.2c0.5,0,1.1,0.1,1.1,0.7C247.5,39,246.5,38.9,245.9,38.9z M223.7,17.6
			l7.8-8.3c0.5-0.6,0.7-1,0.7-1.4c0-0.6-0.5-0.9-2.2-0.9h-2V1.9h21.3v5.2h-2.8c-3.2,0-3.8,0.5-8.3,6.1l-12.3,13.3v8.1
			c0,2.1,1,2.8,4.1,2.8h4.6v5h-29.8v-5h4.6c3,0,4.1-0.7,4.1-2.8v-8.1l-14.5-16c-2.4-2.8-2.1-3.4-8.7-3.4V1.9h26.9v5.2h-1.9
			c-2,0-2.8,0.4-2.8,1.1c0,0.6,0.6,1.1,1,1.6l7.3,8C221.6,18.7,222.7,18.8,223.7,17.6z M43,1.9h6.5v14.6h-6c-0.5-2.9-2.4-4.1-4-5.6
			c-3-2.8-9.5-5.1-15-5.1c-7.1,0-13.1,2.2-13.1,5.4c0,8.9,40.5,1.8,40.5,18.7c0,8.8-8.7,13.8-24.3,13.8c-5.4,0-13.6-1.7-18.4-4.2
			c-1.5-0.9-2.2,0.8-2.4,2.9H0.2V27.4h6c1.3,3.8,3.2,4.6,4.8,6.1c2.9,2.7,9.9,4.6,16.3,4.6c9.6-0.1,12.9-2.2,12.9-5.2
			c0-3-3.3-3.8-13.8-5.4L17.4,26C7.4,24.4,0,22.2,0,14.2C0,5.8,9.3,0.6,24,0.6c6.2,0,11.4,0.8,16.4,3.6C41.7,5.1,43,5.2,43,1.9z
			 M169.8,26.3l0.1-16.2c0-2.1-1.1-2.9-4.3-2.9h-3.7v-5h23.7v5h-3.1c-3.2,0-4.3,0.7-4.3,2.9v32.7l-9.3-0.1l-30.1-28.4v20.6
			c0,2.1,1.1,2.9,4.3,2.9h4.1v5h-24.6v-5h4.1c3.2,0,4.3-0.8,4.3-2.9V10.1c0-2.1-1.1-2.9-4.3-2.9h-4.1v-5H144L169.8,26.3z M90.3,0.3
			C71.4,0.3,59.6,8.6,59.6,22c0,13.1,11.7,21.4,30.2,21.4c19.6,0,31.1-8.2,31.1-22.1C120.8,8.8,108.5,0.3,90.3,0.3z M89.9,38.1
			c-10.5,0-16.5-6-16.5-16.4c0-10.2,6.3-16.2,17-16.2c10.3,0,16.3,6.1,16.3,16.6C106.7,32.3,100.6,38.1,89.9,38.1z"/>
	</g>
</g>
</svg>
