<?xml version="1.0" encoding="utf-8"?>
<!-- Generator: Adobe Illustrator 26.2.1, SVG Export Plug-In . SVG Version: 6.00 Build 0)  -->
<svg version="1.1" id="Layer_1" xmlns="http://www.w3.org/2000/svg" xmlns:xlink="http://www.w3.org/1999/xlink" x="0px" y="0px"
	 viewBox="0 0 231.7 240.7" style="enable-background:new 0 0 231.7 240.7;" xml:space="preserve">
<style type="text/css">
	.st0{clip-path:url(#SVGID_00000024719219115975132340000010640052303187060908_);}
	.st1{clip-path:url(#SVGID_00000057140107113729132380000009978478657769804169_);fill:#FFFFFF;}
	.st2{clip-path:url(#SVGID_00000145020814582552396930000013255608142164942251_);}
	.st3{clip-path:url(#SVGID_00000124857461747000922020000001313616205480568748_);fill:#FFFFFF;}
	.st4{clip-path:url(#SVGID_00000006680733940290980500000014110003588414888597_);}
	.st5{clip-path:url(#SVGID_00000056404618950125757760000001632587663137973929_);fill:#FFFFFF;}
	.st6{clip-path:url(#SVGID_00000180348226851129328610000015054825095588140943_);}
	.st7{clip-path:url(#SVGID_00000012454251469144065760000014979811611038626992_);fill:#FFFFFF;}
	.st8{clip-path:url(#SVGID_00000013900184089319488590000001659511603325350033_);}
	.st9{clip-path:url(#SVGID_00000097475084286912667350000004970357617258169520_);fill:#FFFFFF;}
	.st10{clip-path:url(#SVGID_00000050661445248076783790000003222994017005172099_);}
	.st11{clip-path:url(#SVGID_00000002376325659439824670000018320578007309307300_);enable-background:new    ;}
	.st12{clip-path:url(#SVGID_00000143579124982249728920000011613061905785726637_);}
	.st13{clip-path:url(#SVGID_00000085963534964238342010000011877841220865123986_);}
	.st14{clip-path:url(#SVGID_00000141427731827006845180000004461265948568910003_);fill:#FFFFFF;}
	.st15{clip-path:url(#SVGID_00000127747402784926201250000009428868778714512802_);}
	.st16{clip-path:url(#SVGID_00000116954302938518324280000010902851138779580579_);}
	.st17{clip-path:url(#SVGID_00000168101962863214331990000015511320172785439387_);fill:#FFFFFF;}
	.st18{clip-path:url(#SVGID_00000175289524963706493890000015922402506845611425_);}
	.st19{clip-path:url(#SVGID_00000062182129095937124390000005526751007750458269_);fill:#FFFFFF;}
	.st20{clip-path:url(#SVGID_00000093134519465370265080000014334530977146320028_);}
	.st21{clip-path:url(#SVGID_00000106107426300207462950000011689238509060735126_);fill:#FFFFFF;}
	.st22{clip-path:url(#SVGID_00000101820589797684199870000006479745407789084351_);}
	.st23{clip-path:url(#SVGID_00000008859946628194758760000001584536922238763194_);fill:#FFFFFF;}
	.st24{clip-path:url(#SVGID_00000054955504690051146290000012340640630799874442_);}
	.st25{clip-path:url(#SVGID_00000046326848794827924270000017013012099091320241_);fill:#FFFFFF;}
	.st26{clip-path:url(#SVGID_00000096780468348710477240000002669165946199606204_);}
	.st27{clip-path:url(#SVGID_00000085938493116111066970000008098538013923544241_);fill:#FFFFFF;}
	.st28{clip-path:url(#SVGID_00000126321938425087257610000006610500162036637628_);}
	.st29{clip-path:url(#SVGID_00000046315448356289861900000001279909707025026184_);fill:#FFFFFF;}
	.st30{clip-path:url(#SVGID_00000002357340082539880220000012123314309595744920_);}
	.st31{clip-path:url(#SVGID_00000134226572863800336050000012272230700706761090_);fill:#FFFFFF;}
</style>
<g>
	<g>
		<g>
			<defs>
				<path id="SVGID_1_" d="M152,110.2c-3,0-4.2-1.8-4.2-1.8c-0.2-0.8-0.4-12.7-0.5-24.5c-0.1-12.3,0-24.5,0.6-24.6
					c3.5-6.5,14.5-19.6,14.5-19.6c-20.6,4.1-31.8,17.6-31.8,17.6c-3.3-2.6-10.1-2.2-10.1-2.2c3.2,1.7,6.3,6.8,6.3,11v41.4
					c0,0-6.9,6.1-12.2,6.1c-3.2,0-5.1-1.7-6.2-3.1c-0.7-1-1-1.8-1-1.8V57.6c-0.7,0.5-1.6,0.9-2.5,0.9c-1.1,0-2.3-0.6-3.1-2.2
					c-0.6-1.3-1-3.1-1-5.9c0-9.4,10.7-15.7,10.7-15.7C98,38.3,85.4,45.3,68.7,64.5s-13.5,35-13.5,35s4.5-11,15.6-22.5
					c5.3-5.4,9.2-7.2,11.9-7.3c3,0,4.4,2.2,4.4,4.2v38.9c0,3.8-2.5,4.7-4.8,4.6c-1.9,0-3.7-0.7-3.7-0.7
					c11.4,16.5,38.6,18.9,38.6,18.9l12-12.8l0.3,0.2l11,9.3c20-11.9,29.7-34,29.7-34C161.1,108,155.4,110.2,152,110.2"/>
			</defs>
			<use xlink:href="#SVGID_1_"  style="overflow:visible;fill:#FFFFFF;"/>
			<clipPath id="SVGID_00000123410172068873989410000015486354691940289983_">
				<use xlink:href="#SVGID_1_"  style="overflow:visible;"/>
			</clipPath>
			<g style="clip-path:url(#SVGID_00000123410172068873989410000015486354691940289983_);">
				<g>
					<defs>
						<rect id="SVGID_00000132794523085564349680000016626606836989632403_" x="-46.8" y="-94.5" width="705.6" height="470.4"/>
					</defs>
					<use xlink:href="#SVGID_00000132794523085564349680000016626606836989632403_"  style="overflow:visible;fill:#FFFFFF;"/>
					<clipPath id="SVGID_00000098219858979201246200000007831200701111667087_">
						<use xlink:href="#SVGID_00000132794523085564349680000016626606836989632403_"  style="overflow:visible;"/>
					</clipPath>
					
						<rect x="53.7" y="33.5" style="clip-path:url(#SVGID_00000098219858979201246200000007831200701111667087_);fill:#FFFFFF;" width="117.6" height="103.4"/>
				</g>
			</g>
		</g>
	</g>
	<g>
		<g>
			<defs>
				<path id="SVGID_00000165919058001908630350000006976080346177348520_" d="M115.6,5.2c21.2,0,41.2,8.3,56.2,23.5
					c15,15.1,23.3,35.3,23.3,56.7s-8.3,41.5-23.3,56.7c-15,15.1-35,23.5-56.2,23.5s-41.2-8.3-56.2-23.5
					c-15-15.1-23.3-35.3-23.3-56.7s8.3-41.5,23.3-56.7S94.3,5.2,115.6,5.2 M115.6,1.5c-46,0-83.2,37.5-83.2,83.8
					s37.2,83.8,83.1,83.8s83.1-37.5,83.1-83.8C198.7,39,161.5,1.5,115.6,1.5"/>
			</defs>
			<use xlink:href="#SVGID_00000165919058001908630350000006976080346177348520_"  style="overflow:visible;fill:#FFFFFF;"/>
			<clipPath id="SVGID_00000028283303616913153410000014181343696737699253_">
				<use xlink:href="#SVGID_00000165919058001908630350000006976080346177348520_"  style="overflow:visible;"/>
			</clipPath>
			<g style="clip-path:url(#SVGID_00000028283303616913153410000014181343696737699253_);">
				<g>
					<defs>
						<rect id="SVGID_00000079445727472641565450000007599216969498710439_" x="-46.8" y="-94.5" width="705.6" height="470.4"/>
					</defs>
					<use xlink:href="#SVGID_00000079445727472641565450000007599216969498710439_"  style="overflow:visible;fill:#FFFFFF;"/>
					<clipPath id="SVGID_00000090976675602777479500000006479987503716982435_">
						<use xlink:href="#SVGID_00000079445727472641565450000007599216969498710439_"  style="overflow:visible;"/>
					</clipPath>
					
						<rect x="31.2" y="0.3" style="clip-path:url(#SVGID_00000090976675602777479500000006479987503716982435_);fill:#FFFFFF;" width="168.6" height="170"/>
				</g>
			</g>
		</g>
	</g>
	<g>
		<g>
			<defs>
				<polygon id="SVGID_00000089568333228860859740000001231027485745392818_" points="73.6,238.3 55.8,238.3 55.8,222 73.3,222 
					73.3,225.6 60.6,225.6 60.6,228.4 72.6,228.4 72.6,231.8 60.6,231.8 60.6,234.6 73.6,234.6 				"/>
			</defs>
			<use xlink:href="#SVGID_00000089568333228860859740000001231027485745392818_"  style="overflow:visible;fill:#FFFFFF;"/>
			<clipPath id="SVGID_00000039104584085601639530000004236457961836326302_">
				<use xlink:href="#SVGID_00000089568333228860859740000001231027485745392818_"  style="overflow:visible;"/>
			</clipPath>
			<g style="clip-path:url(#SVGID_00000039104584085601639530000004236457961836326302_);">
				<g>
					<defs>
						<rect id="SVGID_00000060009611306065476550000014602974394844854426_" x="-46.8" y="-94.5" width="705.6" height="470.4"/>
					</defs>
					<use xlink:href="#SVGID_00000060009611306065476550000014602974394844854426_"  style="overflow:visible;fill:#FFFFFF;"/>
					<clipPath id="SVGID_00000153671784562168962610000007417781673970272920_">
						<use xlink:href="#SVGID_00000060009611306065476550000014602974394844854426_"  style="overflow:visible;"/>
					</clipPath>
					
						<rect x="54.6" y="220.9" style="clip-path:url(#SVGID_00000153671784562168962610000007417781673970272920_);fill:#FFFFFF;" width="20.1" height="18.7"/>
				</g>
			</g>
		</g>
	</g>
	<g>
		<g>
			<defs>
				<polygon id="SVGID_00000147206468898005582550000000383491264163748246_" points="97.7,238.3 90.6,238.3 81.1,226.1 81,226.1 
					81,238.3 76.3,238.3 76.3,222 83.6,222 92.9,234.3 93,234.3 93,222 97.7,222 				"/>
			</defs>
			<use xlink:href="#SVGID_00000147206468898005582550000000383491264163748246_"  style="overflow:visible;fill:#FFFFFF;"/>
			<clipPath id="SVGID_00000051368709779799528410000001801505872495554706_">
				<use xlink:href="#SVGID_00000147206468898005582550000000383491264163748246_"  style="overflow:visible;"/>
			</clipPath>
			<g style="clip-path:url(#SVGID_00000051368709779799528410000001801505872495554706_);">
				<g>
					<defs>
						<rect id="SVGID_00000049181303748445327550000018419881283036769701_" x="-46.8" y="-94.5" width="705.6" height="470.4"/>
					</defs>
					<use xlink:href="#SVGID_00000049181303748445327550000018419881283036769701_"  style="overflow:visible;fill:#FFFFFF;"/>
					<clipPath id="SVGID_00000000941738881290095600000004478601914490963370_">
						<use xlink:href="#SVGID_00000049181303748445327550000018419881283036769701_"  style="overflow:visible;"/>
					</clipPath>
					
						<rect x="75.1" y="220.9" style="clip-path:url(#SVGID_00000000941738881290095600000004478601914490963370_);fill:#FFFFFF;" width="23.8" height="18.7"/>
				</g>
			</g>
		</g>
	</g>
	<g>
		<g>
			<defs>
				<path id="SVGID_00000142140421597778891870000008284476737166777262_" d="M111.6,238.5c-1.5,0-2.8,0-3.9-0.1s-2-0.2-2.8-0.4
					s-1.4-0.5-1.9-0.9s-0.9-0.9-1.1-1.5c-0.3-0.6-0.4-1.3-0.5-2.2c-0.1-0.8-0.1-1.9-0.1-3V230c0-1.2,0-2.2,0.1-3
					c0.1-0.9,0.3-1.6,0.5-2.2c0.3-0.6,0.6-1.1,1.1-1.4c0.5-0.4,1.1-0.7,1.9-0.9s1.7-0.3,2.8-0.4c1.1-0.1,2.4-0.1,3.9-0.1h0.7
					c1.3,0,2.4,0,3.3,0.1s1.8,0.2,2.4,0.3c0.7,0.1,1.2,0.3,1.7,0.6c0.4,0.2,0.8,0.6,1,0.9c0.3,0.4,0.4,0.8,0.5,1.4
					c0.1,0.5,0.1,1.2,0.1,1.9v0.6h-4.6v-0.2c0-0.4-0.1-0.7-0.2-0.9c-0.1-0.3-0.3-0.5-0.7-0.6c-0.3-0.2-0.8-0.3-1.4-0.3
					c-0.6-0.1-1.4-0.1-2.4-0.1h-0.4c-0.9,0-1.7,0-2.3,0c-0.6,0-1.2,0.1-1.6,0.2c-0.4,0.1-0.8,0.3-1,0.4c-0.2,0.2-0.4,0.5-0.6,0.8
					c-0.1,0.3-0.2,0.7-0.2,1.2s-0.1,1.1-0.1,1.8v0.3c0,0.7,0,1.3,0.1,1.7c0,0.5,0.1,0.9,0.2,1.2s0.3,0.6,0.6,0.8
					c0.2,0.2,0.6,0.3,1,0.4c0.4,0.1,1,0.2,1.6,0.2s1.4,0,2.3,0h0.4c0.7,0,1.4,0,1.9,0s1-0.1,1.3-0.1c0.4-0.1,0.7-0.1,0.9-0.2
					c0.2-0.1,0.4-0.2,0.5-0.4s0.2-0.3,0.2-0.6c0-0.2,0.1-0.5,0.1-0.7v-0.5h-6.2v-3.1h10.8v3.6c0,0.8-0.1,1.5-0.2,2.1
					s-0.3,1.1-0.6,1.5c-0.3,0.4-0.6,0.8-1.1,1.1c-0.4,0.3-1,0.5-1.7,0.7s-1.5,0.3-2.5,0.4c-1,0.1-2.1,0.1-3.4,0.1h-0.4V238.5z"/>
			</defs>
			<use xlink:href="#SVGID_00000142140421597778891870000008284476737166777262_"  style="overflow:visible;fill:#FFFFFF;"/>
			<clipPath id="SVGID_00000109002140089238056290000012254103256835638921_">
				<use xlink:href="#SVGID_00000142140421597778891870000008284476737166777262_"  style="overflow:visible;"/>
			</clipPath>
			<g style="clip-path:url(#SVGID_00000109002140089238056290000012254103256835638921_);">
				<g>
					<defs>
						<rect id="SVGID_00000001661971621626082810000009868646294277399992_" x="-46.8" y="-94.5" width="705.6" height="470.4"/>
					</defs>
					<use xlink:href="#SVGID_00000001661971621626082810000009868646294277399992_"  style="overflow:visible;fill:#FFFFFF;"/>
					<clipPath id="SVGID_00000113315240314431894340000004704626514919974036_">
						<use xlink:href="#SVGID_00000001661971621626082810000009868646294277399992_"  style="overflow:visible;"/>
					</clipPath>
					
						<rect x="100.1" y="220.8" style="clip-path:url(#SVGID_00000113315240314431894340000004704626514919974036_);fill:#FFFFFF;" width="22.8" height="18.9"/>
				</g>
			</g>
		</g>
	</g>
	<g>
		<g>
			<defs>
				<rect id="SVGID_00000060011663449817902010000001603389534645999761_" x="1.8" y="184.5" width="227.7" height="54.1"/>
			</defs>
			<use xlink:href="#SVGID_00000060011663449817902010000001603389534645999761_"  style="overflow:visible;fill:#FFFFFF;"/>
			<clipPath id="SVGID_00000174569235130141413060000018143007346583639997_">
				<use xlink:href="#SVGID_00000060011663449817902010000001603389534645999761_"  style="overflow:visible;"/>
			</clipPath>
			<g style="clip-path:url(#SVGID_00000174569235130141413060000018143007346583639997_);">
				<g>
					<defs>
						<rect id="SVGID_00000109018307812483538830000000163319687438066106_" x="-46.8" y="-94.5" width="705.6" height="470.4"/>
					</defs>
					<use xlink:href="#SVGID_00000109018307812483538830000000163319687438066106_"  style="overflow:visible;fill:#FFFFFF;"/>
					<clipPath id="SVGID_00000076579464497639815560000008664510184227448463_">
						<use xlink:href="#SVGID_00000109018307812483538830000000163319687438066106_"  style="overflow:visible;"/>
					</clipPath>
					<g style="clip-path:url(#SVGID_00000076579464497639815560000008664510184227448463_);enable-background:new    ;">
						<g>
							<g>
								<defs>
									<rect id="SVGID_00000069395263845344623020000015447632701427456686_" x="133.3" y="222.1" width="42.8" height="16.5"/>
								</defs>
								<use xlink:href="#SVGID_00000069395263845344623020000015447632701427456686_"  style="overflow:visible;fill:#FFFFFF;"/>
								<clipPath id="SVGID_00000088115903588410682390000001132920782809885576_">
									<use xlink:href="#SVGID_00000069395263845344623020000015447632701427456686_"  style="overflow:visible;"/>
								</clipPath>
								<g style="clip-path:url(#SVGID_00000088115903588410682390000001132920782809885576_);">
									<g>
										<defs>
											<polygon id="SVGID_00000136376893777743394430000010669495890048318381_" points="154.6,238.3 147.5,238.3 138.1,226.2 
												138,226.2 138,238.3 133.4,238.3 133.4,222.2 140.6,222.2 149.9,234.3 150,234.3 150,222.2 154.6,222.2 											"/>
										</defs>
										<use xlink:href="#SVGID_00000136376893777743394430000010669495890048318381_"  style="overflow:visible;fill:#FFFFFF;"/>
										<clipPath id="SVGID_00000158007870571695215200000015751190050966490541_">
											<use xlink:href="#SVGID_00000136376893777743394430000010669495890048318381_"  style="overflow:visible;"/>
										</clipPath>
										<g style="clip-path:url(#SVGID_00000158007870571695215200000015751190050966490541_);">
											<g>
												<defs>
													
														<rect id="SVGID_00000123412190904579669920000017971871304856239780_" x="1.8" y="184.4" width="227.7" height="54.1"/>
												</defs>
												
													<use xlink:href="#SVGID_00000123412190904579669920000017971871304856239780_"  style="overflow:visible;fill:#FFFFFF;"/>
												<clipPath id="SVGID_00000161629905446413208410000004892987036520056759_">
													<use xlink:href="#SVGID_00000123412190904579669920000017971871304856239780_"  style="overflow:visible;"/>
												</clipPath>
												
													<rect x="132.2" y="221" style="clip-path:url(#SVGID_00000161629905446413208410000004892987036520056759_);fill:#FFFFFF;" width="23.6" height="18.5"/>
											</g>
										</g>
									</g>
								</g>
							</g>
							<g>
								<defs>
									<rect id="SVGID_00000018953517072541672520000009945174767924046007_" x="133.3" y="222.1" width="42.8" height="16.5"/>
								</defs>
								<use xlink:href="#SVGID_00000018953517072541672520000009945174767924046007_"  style="overflow:visible;fill:#FFFFFF;"/>
								<clipPath id="SVGID_00000120550926822762467320000015702353152503777430_">
									<use xlink:href="#SVGID_00000018953517072541672520000009945174767924046007_"  style="overflow:visible;"/>
								</clipPath>
								<g style="clip-path:url(#SVGID_00000120550926822762467320000015702353152503777430_);">
									<g>
										<defs>
											<polygon id="SVGID_00000105385841352845820380000008683630549461136020_" points="176,238.3 158.4,238.3 158.4,222.2 
												175.7,222.2 175.7,225.7 163.1,225.7 163.1,228.5 175.1,228.5 175.1,231.9 163.1,231.9 163.1,234.7 176,234.7 
																							"/>
										</defs>
										<use xlink:href="#SVGID_00000105385841352845820380000008683630549461136020_"  style="overflow:visible;fill:#FFFFFF;"/>
										<clipPath id="SVGID_00000124144498925946199960000006242590214506993797_">
											<use xlink:href="#SVGID_00000105385841352845820380000008683630549461136020_"  style="overflow:visible;"/>
										</clipPath>
										<g style="clip-path:url(#SVGID_00000124144498925946199960000006242590214506993797_);">
											<g>
												<defs>
													
														<rect id="SVGID_00000145738023999659943210000002805641627108862080_" x="1.8" y="184.4" width="227.7" height="54.1"/>
												</defs>
												
													<use xlink:href="#SVGID_00000145738023999659943210000002805641627108862080_"  style="overflow:visible;fill:#FFFFFF;"/>
												<clipPath id="SVGID_00000108307551876279388150000011665321062780964781_">
													<use xlink:href="#SVGID_00000145738023999659943210000002805641627108862080_"  style="overflow:visible;"/>
												</clipPath>
												
													<rect x="157.2" y="221" style="clip-path:url(#SVGID_00000108307551876279388150000011665321062780964781_);fill:#FFFFFF;" width="20" height="18.5"/>
											</g>
										</g>
									</g>
								</g>
							</g>
						</g>
					</g>
				</g>
			</g>
		</g>
	</g>
	<g>
		<g>
			<defs>
				<path id="SVGID_00000037686565372280402740000014779639612830015916_" d="M18.9,213.3c-2.3,0-4.3-0.1-6.1-0.2
					c-1.7-0.1-3.2-0.3-4.5-0.6s-2.3-0.7-3.1-1.2s-1.5-1.2-2-1.9c-0.5-0.8-0.8-1.7-1-2.8s-0.3-2.3-0.3-3.7v-18.4h8.4v15.7
					c0,1,0,1.8,0.1,2.5s0.2,1.3,0.4,1.8s0.5,0.9,0.9,1.2s0.9,0.5,1.6,0.7c0.6,0.2,1.4,0.3,2.4,0.3c0.9,0.1,2.1,0.1,3.4,0.1h0.7
					c1.3,0,2.4,0,3.4-0.1c0.9-0.1,1.7-0.2,2.4-0.3c0.6-0.2,1.2-0.4,1.6-0.7s0.7-0.7,0.9-1.2c0.2-0.5,0.3-1.1,0.4-1.8
					s0.1-1.5,0.1-2.5v-15.7H37v18.4c0,1.4-0.1,2.6-0.3,3.7c-0.2,1.1-0.5,2-1,2.8s-1.1,1.4-2,1.9c-0.8,0.5-1.9,0.9-3.1,1.2
					c-1.3,0.3-2.8,0.5-4.5,0.6c-1.8,0.1-3.8,0.2-6.1,0.2H18.9z"/>
			</defs>
			<use xlink:href="#SVGID_00000037686565372280402740000014779639612830015916_"  style="overflow:visible;fill:#FFFFFF;"/>
			<clipPath id="SVGID_00000011746452592325974120000011805485547098177920_">
				<use xlink:href="#SVGID_00000037686565372280402740000014779639612830015916_"  style="overflow:visible;"/>
			</clipPath>
			<g style="clip-path:url(#SVGID_00000011746452592325974120000011805485547098177920_);">
				<g>
					<defs>
						<rect id="SVGID_00000008106921779140584840000001332121615829976963_" x="-46.8" y="-94.5" width="705.6" height="470.4"/>
					</defs>
					<use xlink:href="#SVGID_00000008106921779140584840000001332121615829976963_"  style="overflow:visible;fill:#FFFFFF;"/>
					<clipPath id="SVGID_00000083059556270110784330000007621646958153023160_">
						<use xlink:href="#SVGID_00000008106921779140584840000001332121615829976963_"  style="overflow:visible;"/>
					</clipPath>
					
						<rect x="0.7" y="183.3" style="clip-path:url(#SVGID_00000083059556270110784330000007621646958153023160_);fill:#FFFFFF;" width="37.4" height="31.2"/>
				</g>
			</g>
		</g>
	</g>
	<g>
		<g>
			<defs>
				<polygon id="SVGID_00000068653726604820244680000008540004669175963028_" points="80,213 67.5,213 51,191.7 50.8,191.7 
					50.8,213 42.6,213 42.6,184.5 55.3,184.5 71.7,205.8 71.8,205.8 71.8,184.5 80,184.5 				"/>
			</defs>
			<use xlink:href="#SVGID_00000068653726604820244680000008540004669175963028_"  style="overflow:visible;fill:#FFFFFF;"/>
			<clipPath id="SVGID_00000173161335651032709210000013207685598494964104_">
				<use xlink:href="#SVGID_00000068653726604820244680000008540004669175963028_"  style="overflow:visible;"/>
			</clipPath>
			<g style="clip-path:url(#SVGID_00000173161335651032709210000013207685598494964104_);">
				<g>
					<defs>
						<rect id="SVGID_00000000182830725542431090000011854598175668918154_" x="-46.8" y="-94.5" width="705.6" height="470.4"/>
					</defs>
					<use xlink:href="#SVGID_00000000182830725542431090000011854598175668918154_"  style="overflow:visible;fill:#FFFFFF;"/>
					<clipPath id="SVGID_00000117634704515306132320000012201723143346264508_">
						<use xlink:href="#SVGID_00000000182830725542431090000011854598175668918154_"  style="overflow:visible;"/>
					</clipPath>
					
						<rect x="41.4" y="183.3" style="clip-path:url(#SVGID_00000117634704515306132320000012201723143346264508_);fill:#FFFFFF;" width="39.8" height="30.9"/>
				</g>
			</g>
		</g>
	</g>
	<g>
		<g>
			<defs>
				<path id="SVGID_00000146468475615250741770000012956903225875808685_" d="M119.6,213h-8.3v-2.3c0-0.8,0-1.5-0.1-2.2
					c-0.1-0.6-0.2-1.1-0.4-1.5c-0.2-0.4-0.5-0.8-0.9-1c-0.4-0.3-0.9-0.4-1.6-0.6c-0.6-0.1-1.4-0.2-2.4-0.3c-0.9,0-2.1-0.1-3.4-0.1
					h-8.4v7.9h-8.3v-28.5H108c2.3,0,4.2,0.1,5.7,0.4c1.5,0.3,2.7,0.8,3.5,1.4c0.9,0.7,1.5,1.6,1.8,2.7c0.3,1.1,0.5,2.5,0.5,4.1v1
					c0,1.1-0.1,2.1-0.3,2.9c-0.2,0.8-0.5,1.6-0.9,2.2c-0.4,0.6-0.9,1.1-1.5,1.5s-1.4,0.7-2.3,0.9v0.2c1,0.2,1.8,0.4,2.5,0.6
					c0.6,0.3,1.1,0.6,1.5,1.1s0.6,1.2,0.7,2s0.2,1.8,0.2,3.1v4.5H119.6z M104.6,198.9c1.4,0,2.6,0,3.5-0.1s1.5-0.3,2-0.6
					c0.4-0.3,0.7-0.7,0.9-1.2c0.1-0.5,0.2-1.2,0.2-2v-0.5c0-0.8-0.1-1.5-0.2-2s-0.4-0.9-0.9-1.1c-0.5-0.3-1.1-0.4-2-0.5
					s-2-0.1-3.4-0.1H94.2v8.1L104.6,198.9L104.6,198.9z"/>
			</defs>
			<use xlink:href="#SVGID_00000146468475615250741770000012956903225875808685_"  style="overflow:visible;fill:#FFFFFF;"/>
			<clipPath id="SVGID_00000057844820833549653650000008919144206623179403_">
				<use xlink:href="#SVGID_00000146468475615250741770000012956903225875808685_"  style="overflow:visible;"/>
			</clipPath>
			<g style="clip-path:url(#SVGID_00000057844820833549653650000008919144206623179403_);">
				<g>
					<defs>
						<rect id="SVGID_00000011736288340612741430000016254192390410838947_" x="-46.8" y="-94.5" width="705.6" height="470.4"/>
					</defs>
					<use xlink:href="#SVGID_00000011736288340612741430000016254192390410838947_"  style="overflow:visible;fill:#FFFFFF;"/>
					<clipPath id="SVGID_00000027600025954065491870000013984584545858279572_">
						<use xlink:href="#SVGID_00000011736288340612741430000016254192390410838947_"  style="overflow:visible;"/>
					</clipPath>
					
						<rect x="84.7" y="183.3" style="clip-path:url(#SVGID_00000027600025954065491870000013984584545858279572_);fill:#FFFFFF;" width="36.1" height="30.9"/>
				</g>
			</g>
		</g>
	</g>
	<g>
		<g>
			<defs>
				<polygon id="SVGID_00000041974667086943487390000006133252237312157603_" points="156.1,213 125,213 125,184.5 155.6,184.5 
					155.6,190.8 133.4,190.8 133.4,195.6 154.4,195.6 154.4,201.6 133.4,201.6 133.4,206.5 156.1,206.5 				"/>
			</defs>
			<use xlink:href="#SVGID_00000041974667086943487390000006133252237312157603_"  style="overflow:visible;fill:#FFFFFF;"/>
			<clipPath id="SVGID_00000094610601152802426830000017470621822920012169_">
				<use xlink:href="#SVGID_00000041974667086943487390000006133252237312157603_"  style="overflow:visible;"/>
			</clipPath>
			<g style="clip-path:url(#SVGID_00000094610601152802426830000017470621822920012169_);">
				<g>
					<defs>
						<rect id="SVGID_00000080172055197572553390000001655187377502432946_" x="-46.8" y="-94.5" width="705.6" height="470.4"/>
					</defs>
					<use xlink:href="#SVGID_00000080172055197572553390000001655187377502432946_"  style="overflow:visible;fill:#FFFFFF;"/>
					<clipPath id="SVGID_00000077297433877796840950000003530806464212879236_">
						<use xlink:href="#SVGID_00000080172055197572553390000001655187377502432946_"  style="overflow:visible;"/>
					</clipPath>
					
						<rect x="123.9" y="183.3" style="clip-path:url(#SVGID_00000077297433877796840950000003530806464212879236_);fill:#FFFFFF;" width="33.4" height="30.9"/>
				</g>
			</g>
		</g>
	</g>
	<g>
		<g>
			<defs>
				<path id="SVGID_00000101072555571802635720000001673522351590774400_" d="M198.9,213h-9.1l-2.6-5.1h-17.8l-2.6,5.1h-9l15.3-28.5
					h10.3L198.9,213z M184.2,201.9l-5.8-11.5h-0.2l-5.8,11.5H184.2z"/>
			</defs>
			<use xlink:href="#SVGID_00000101072555571802635720000001673522351590774400_"  style="overflow:visible;fill:#FFFFFF;"/>
			<clipPath id="SVGID_00000114043028307358964870000005813480302251691938_">
				<use xlink:href="#SVGID_00000101072555571802635720000001673522351590774400_"  style="overflow:visible;"/>
			</clipPath>
			<g style="clip-path:url(#SVGID_00000114043028307358964870000005813480302251691938_);">
				<g>
					<defs>
						<rect id="SVGID_00000112616313235883163040000015231060073545022626_" x="-46.8" y="-94.5" width="705.6" height="470.4"/>
					</defs>
					<use xlink:href="#SVGID_00000112616313235883163040000015231060073545022626_"  style="overflow:visible;fill:#FFFFFF;"/>
					<clipPath id="SVGID_00000163045884994907658600000004739198634309813930_">
						<use xlink:href="#SVGID_00000112616313235883163040000015231060073545022626_"  style="overflow:visible;"/>
					</clipPath>
					
						<rect x="156.7" y="183.3" style="clip-path:url(#SVGID_00000163045884994907658600000004739198634309813930_);fill:#FFFFFF;" width="43.4" height="30.9"/>
				</g>
			</g>
		</g>
	</g>
	<g>
		<g>
			<defs>
				<polygon id="SVGID_00000000907474654065956940000003615173958599012792_" points="229.5,213 202,213 202,184.5 210.4,184.5 
					210.4,206.4 229.5,206.4 				"/>
			</defs>
			<use xlink:href="#SVGID_00000000907474654065956940000003615173958599012792_"  style="overflow:visible;fill:#FFFFFF;"/>
			<clipPath id="SVGID_00000039839361396839753200000014103110726411422379_">
				<use xlink:href="#SVGID_00000000907474654065956940000003615173958599012792_"  style="overflow:visible;"/>
			</clipPath>
			<g style="clip-path:url(#SVGID_00000039839361396839753200000014103110726411422379_);">
				<g>
					<defs>
						<rect id="SVGID_00000080888798964843832220000011944009670121128120_" x="-46.8" y="-94.5" width="705.6" height="470.4"/>
					</defs>
					<use xlink:href="#SVGID_00000080888798964843832220000011944009670121128120_"  style="overflow:visible;fill:#FFFFFF;"/>
					<clipPath id="SVGID_00000168823013861668083140000000965371485491244210_">
						<use xlink:href="#SVGID_00000080888798964843832220000011944009670121128120_"  style="overflow:visible;"/>
					</clipPath>
					
						<rect x="200.8" y="183.3" style="clip-path:url(#SVGID_00000168823013861668083140000000965371485491244210_);fill:#FFFFFF;" width="29.8" height="30.9"/>
				</g>
			</g>
		</g>
	</g>
	<g>
		<g>
			<defs>
				<rect id="SVGID_00000155848411816402656350000016935834614285993146_" x="125" y="222.2" width="4.8" height="16.2"/>
			</defs>
			<use xlink:href="#SVGID_00000155848411816402656350000016935834614285993146_"  style="overflow:visible;fill:#FFFFFF;"/>
			<clipPath id="SVGID_00000026871003372167905500000000623300592196795791_">
				<use xlink:href="#SVGID_00000155848411816402656350000016935834614285993146_"  style="overflow:visible;"/>
			</clipPath>
			<g style="clip-path:url(#SVGID_00000026871003372167905500000000623300592196795791_);">
				<g>
					<defs>
						<rect id="SVGID_00000116210753812924546590000005020154259937924249_" x="-46.8" y="-94.5" width="705.6" height="470.4"/>
					</defs>
					<use xlink:href="#SVGID_00000116210753812924546590000005020154259937924249_"  style="overflow:visible;fill:#FFFFFF;"/>
					<clipPath id="SVGID_00000098923769609930814660000012265256429448651176_">
						<use xlink:href="#SVGID_00000116210753812924546590000005020154259937924249_"  style="overflow:visible;"/>
					</clipPath>
					
						<rect x="123.8" y="221" style="clip-path:url(#SVGID_00000098923769609930814660000012265256429448651176_);fill:#FFFFFF;" width="7.1" height="18.5"/>
				</g>
			</g>
		</g>
	</g>
</g>
</svg>
