<?xml version="1.0" encoding="utf-8"?>
<!-- Generator: Adobe Illustrator 26.2.1, SVG Export Plug-In . SVG Version: 6.00 Build 0)  -->
<svg version="1.1" id="Layer_1" xmlns="http://www.w3.org/2000/svg" xmlns:xlink="http://www.w3.org/1999/xlink" x="0px" y="0px"
	 viewBox="0 0 231.7 240.7" style="enable-background:new 0 0 231.7 240.7;" xml:space="preserve">
<style type="text/css">
	.st0{clip-path:url(#SVGID_00000101079840125438981660000015443582670249593501_);}
	.st1{clip-path:url(#SVGID_00000072252261387861615140000006933515795501762196_);fill:#FFFFFF;}
	.st2{clip-path:url(#SVGID_00000000919829911287618280000016380755114382942080_);}
	.st3{clip-path:url(#SVGID_00000137849267890483989750000010462842354387421058_);fill:#FFFFFF;}
	.st4{clip-path:url(#SVGID_00000034785866542454922950000009749273704991405235_);}
	.st5{clip-path:url(#SVGID_00000143588394349987710210000018248962849591632538_);fill:#FFFFFF;}
	.st6{clip-path:url(#SVGID_00000065772786640790839360000003187219024822079374_);}
	.st7{clip-path:url(#SVGID_00000121275386808161722170000014096229955835980205_);fill:#FFFFFF;}
	.st8{clip-path:url(#SVGID_00000008848277080305560320000016704841111106335130_);}
	.st9{clip-path:url(#SVGID_00000111882312215733320360000010536520299095345303_);fill:#FFFFFF;}
	.st10{clip-path:url(#SVGID_00000007409896532090642380000007189772821890408630_);enable-background:new    ;}
	.st11{clip-path:url(#SVGID_00000068649263888941280800000014765922795044970671_);}
	.st12{clip-path:url(#SVGID_00000165232038793863202650000015772023740447038388_);}
	.st13{clip-path:url(#SVGID_00000125569139828856650310000002725597657400338059_);fill:#FFFFFF;}
	.st14{clip-path:url(#SVGID_00000134237556380104913870000015329473534422177945_);}
	.st15{clip-path:url(#SVGID_00000044857114762067046330000004305398063337575301_);}
	.st16{clip-path:url(#SVGID_00000094592221629770994240000018229343484204447142_);fill:#FFFFFF;}
	.st17{clip-path:url(#SVGID_00000071522440854329626510000005071186505289112458_);}
	.st18{clip-path:url(#SVGID_00000020366437122970316840000013696988884341746564_);fill:#FFFFFF;}
	.st19{clip-path:url(#SVGID_00000031209810103049353670000013119338802681879998_);}
	.st20{clip-path:url(#SVGID_00000134939278340862662480000014084829869454468527_);fill:#FFFFFF;}
	.st21{clip-path:url(#SVGID_00000163769672108146979000000015903809659733286020_);}
	.st22{clip-path:url(#SVGID_00000026845902899653362850000006708855687755627700_);fill:#FFFFFF;}
	.st23{clip-path:url(#SVGID_00000094602699295960824590000000147792341211860409_);}
	.st24{clip-path:url(#SVGID_00000120539836728475101790000009893124491990906787_);fill:#FFFFFF;}
	.st25{clip-path:url(#SVGID_00000158733241244893995620000012872592597002375319_);}
	.st26{clip-path:url(#SVGID_00000085235993212353981720000009095996850196221619_);fill:#FFFFFF;}
	.st27{clip-path:url(#SVGID_00000145778045372861104960000009643220271117725315_);}
	.st28{clip-path:url(#SVGID_00000158030655654885626430000009145531023703254207_);fill:#FFFFFF;}
	.st29{clip-path:url(#SVGID_00000106833604556575583400000007037219890789120167_);}
	.st30{clip-path:url(#SVGID_00000075864862765592729460000000479712382944685955_);fill:#FFFFFF;}
</style>
<g>
	<g>
		<g>
			<defs>
				<path id="SVGID_1_" d="M152,110.2c-3,0-4.2-1.8-4.2-1.8c-0.2-0.8-0.4-12.7-0.5-24.5c-0.1-12.3,0-24.5,0.6-24.6
					c3.5-6.5,14.5-19.6,14.5-19.6c-20.6,4.1-31.8,17.6-31.8,17.6c-3.3-2.6-10.1-2.2-10.1-2.2c3.2,1.7,6.3,6.8,6.3,11v41.4
					c0,0-6.9,6.1-12.2,6.1c-3.2,0-5.1-1.7-6.2-3.1c-0.7-1-1-1.8-1-1.8V57.6c-0.7,0.5-1.6,0.9-2.5,0.9c-1.1,0-2.3-0.6-3.1-2.2
					c-0.6-1.3-1-3.1-1-5.9c0-9.4,10.7-15.7,10.7-15.7C98,38.3,85.4,45.3,68.7,64.5s-13.5,35-13.5,35s4.5-11,15.6-22.5
					c5.3-5.4,9.2-7.2,11.9-7.3c3,0,4.4,2.2,4.4,4.2v38.9c0,3.8-2.5,4.7-4.8,4.6c-1.9,0-3.7-0.7-3.7-0.7
					c11.4,16.5,38.6,18.9,38.6,18.9l12-12.8l0.3,0.2l11,9.3c20-11.9,29.7-34,29.7-34C161.1,108,155.4,110.2,152,110.2"/>
			</defs>
			<clipPath id="SVGID_00000129173923365532431440000015915845048246629285_">
				<use xlink:href="#SVGID_1_"  style="overflow:visible;"/>
			</clipPath>
			<g style="clip-path:url(#SVGID_00000129173923365532431440000015915845048246629285_);">
				<g>
					<defs>
						<rect id="SVGID_00000082333431104170289180000008547660703851875723_" x="-46.8" y="-94.5" width="705.6" height="470.4"/>
					</defs>
					<clipPath id="SVGID_00000157296671311970613630000004211052527453356208_">
						<use xlink:href="#SVGID_00000082333431104170289180000008547660703851875723_"  style="overflow:visible;"/>
					</clipPath>
					
						<rect x="53.7" y="33.5" style="clip-path:url(#SVGID_00000157296671311970613630000004211052527453356208_);fill:#FFFFFF;" width="117.6" height="103.4"/>
				</g>
			</g>
		</g>
	</g>
	<g>
		<g>
			<defs>
				<path id="SVGID_00000040576373637713355330000013983898531440588162_" d="M115.6,5.2c21.2,0,41.2,8.3,56.2,23.5
					c15,15.1,23.3,35.3,23.3,56.7s-8.3,41.5-23.3,56.7c-15,15.1-35,23.5-56.2,23.5s-41.2-8.3-56.2-23.5
					c-15-15.1-23.3-35.3-23.3-56.7s8.3-41.5,23.3-56.7S94.3,5.2,115.6,5.2 M115.6,1.5c-46,0-83.2,37.5-83.2,83.8
					s37.2,83.8,83.1,83.8s83.1-37.5,83.1-83.8C198.7,39,161.5,1.5,115.6,1.5"/>
			</defs>
			<clipPath id="SVGID_00000122680594901675625020000013706088725678334624_">
				<use xlink:href="#SVGID_00000040576373637713355330000013983898531440588162_"  style="overflow:visible;"/>
			</clipPath>
			<g style="clip-path:url(#SVGID_00000122680594901675625020000013706088725678334624_);">
				<g>
					<defs>
						<rect id="SVGID_00000003082362115985556260000002180479130925116572_" x="-46.8" y="-94.5" width="705.6" height="470.4"/>
					</defs>
					<clipPath id="SVGID_00000123405405247027662710000014210331697330575258_">
						<use xlink:href="#SVGID_00000003082362115985556260000002180479130925116572_"  style="overflow:visible;"/>
					</clipPath>
					
						<rect x="31.2" y="0.3" style="clip-path:url(#SVGID_00000123405405247027662710000014210331697330575258_);fill:#FFFFFF;" width="168.6" height="170"/>
				</g>
			</g>
		</g>
	</g>
	<g>
		<g>
			<defs>
				<polygon id="SVGID_00000019669303825224935910000015362772107269603510_" points="73.6,238.3 55.8,238.3 55.8,222 73.3,222 
					73.3,225.6 60.6,225.6 60.6,228.4 72.6,228.4 72.6,231.8 60.6,231.8 60.6,234.6 73.6,234.6 				"/>
			</defs>
			<clipPath id="SVGID_00000087395502016557619310000016674333587866516904_">
				<use xlink:href="#SVGID_00000019669303825224935910000015362772107269603510_"  style="overflow:visible;"/>
			</clipPath>
			<g style="clip-path:url(#SVGID_00000087395502016557619310000016674333587866516904_);">
				<g>
					<defs>
						<rect id="SVGID_00000062160829734350412340000004579650289577331372_" x="-46.8" y="-94.5" width="705.6" height="470.4"/>
					</defs>
					<clipPath id="SVGID_00000005982780383860988130000000165270763602442114_">
						<use xlink:href="#SVGID_00000062160829734350412340000004579650289577331372_"  style="overflow:visible;"/>
					</clipPath>
					
						<rect x="54.6" y="220.9" style="clip-path:url(#SVGID_00000005982780383860988130000000165270763602442114_);fill:#FFFFFF;" width="20.1" height="18.7"/>
				</g>
			</g>
		</g>
	</g>
	<g>
		<g>
			<defs>
				<polygon id="SVGID_00000044154114009079870940000014439603392660164016_" points="97.7,238.3 90.6,238.3 81.1,226.1 81,226.1 
					81,238.3 76.3,238.3 76.3,222 83.6,222 92.9,234.3 93,234.3 93,222 97.7,222 				"/>
			</defs>
			<clipPath id="SVGID_00000079465003016473452290000003446146726113321645_">
				<use xlink:href="#SVGID_00000044154114009079870940000014439603392660164016_"  style="overflow:visible;"/>
			</clipPath>
			<g style="clip-path:url(#SVGID_00000079465003016473452290000003446146726113321645_);">
				<g>
					<defs>
						<rect id="SVGID_00000062169768101847026080000003537171533906351233_" x="-46.8" y="-94.5" width="705.6" height="470.4"/>
					</defs>
					<clipPath id="SVGID_00000042733210893169603270000011943860046018540962_">
						<use xlink:href="#SVGID_00000062169768101847026080000003537171533906351233_"  style="overflow:visible;"/>
					</clipPath>
					
						<rect x="75.1" y="220.9" style="clip-path:url(#SVGID_00000042733210893169603270000011943860046018540962_);fill:#FFFFFF;" width="23.8" height="18.7"/>
				</g>
			</g>
		</g>
	</g>
	<g>
		<g>
			<defs>
				<path id="SVGID_00000092452351559492362680000013634323701894482621_" d="M111.6,238.5c-1.5,0-2.8,0-3.9-0.1s-2-0.2-2.8-0.4
					s-1.4-0.5-1.9-0.9s-0.9-0.9-1.1-1.5c-0.3-0.6-0.4-1.3-0.5-2.2c-0.1-0.8-0.1-1.9-0.1-3V230c0-1.2,0-2.2,0.1-3
					c0.1-0.9,0.3-1.6,0.5-2.2c0.3-0.6,0.6-1.1,1.1-1.4c0.5-0.4,1.1-0.7,1.9-0.9s1.7-0.3,2.8-0.4c1.1-0.1,2.4-0.1,3.9-0.1h0.7
					c1.3,0,2.4,0,3.3,0.1s1.8,0.2,2.4,0.3c0.7,0.1,1.2,0.3,1.7,0.6c0.4,0.2,0.8,0.6,1,0.9c0.3,0.4,0.4,0.8,0.5,1.4
					c0.1,0.5,0.1,1.2,0.1,1.9v0.6h-4.6v-0.2c0-0.4-0.1-0.7-0.2-0.9c-0.1-0.3-0.3-0.5-0.7-0.6c-0.3-0.2-0.8-0.3-1.4-0.3
					c-0.6-0.1-1.4-0.1-2.4-0.1h-0.4c-0.9,0-1.7,0-2.3,0c-0.6,0-1.2,0.1-1.6,0.2c-0.4,0.1-0.8,0.3-1,0.4c-0.2,0.2-0.4,0.5-0.6,0.8
					c-0.1,0.3-0.2,0.7-0.2,1.2s-0.1,1.1-0.1,1.8v0.3c0,0.7,0,1.3,0.1,1.7c0,0.5,0.1,0.9,0.2,1.2s0.3,0.6,0.6,0.8
					c0.2,0.2,0.6,0.3,1,0.4c0.4,0.1,1,0.2,1.6,0.2s1.4,0,2.3,0h0.4c0.7,0,1.4,0,1.9,0s1-0.1,1.3-0.1c0.4-0.1,0.7-0.1,0.9-0.2
					c0.2-0.1,0.4-0.2,0.5-0.4s0.2-0.3,0.2-0.6c0-0.2,0.1-0.5,0.1-0.7v-0.5h-6.2v-3.1h10.8v3.6c0,0.8-0.1,1.5-0.2,2.1
					s-0.3,1.1-0.6,1.5c-0.3,0.4-0.6,0.8-1.1,1.1c-0.4,0.3-1,0.5-1.7,0.7s-1.5,0.3-2.5,0.4c-1,0.1-2.1,0.1-3.4,0.1h-0.4V238.5z"/>
			</defs>
			<clipPath id="SVGID_00000003794612582508630260000016737669603371989163_">
				<use xlink:href="#SVGID_00000092452351559492362680000013634323701894482621_"  style="overflow:visible;"/>
			</clipPath>
			<g style="clip-path:url(#SVGID_00000003794612582508630260000016737669603371989163_);">
				<g>
					<defs>
						<rect id="SVGID_00000168113242210995667210000005191147260164479877_" x="-46.8" y="-94.5" width="705.6" height="470.4"/>
					</defs>
					<clipPath id="SVGID_00000152253762166484136900000002971319142932210605_">
						<use xlink:href="#SVGID_00000168113242210995667210000005191147260164479877_"  style="overflow:visible;"/>
					</clipPath>
					
						<rect x="100.1" y="220.8" style="clip-path:url(#SVGID_00000152253762166484136900000002971319142932210605_);fill:#FFFFFF;" width="22.8" height="18.9"/>
				</g>
			</g>
		</g>
	</g>
	<g>
		<g>
			<g>
				<g>
					<defs>
						<rect id="SVGID_00000141437539537749191540000003906227576593486729_" x="-46.8" y="-94.5" width="705.6" height="470.4"/>
					</defs>
					<clipPath id="SVGID_00000004537441162142479590000004150753242601587080_">
						<use xlink:href="#SVGID_00000141437539537749191540000003906227576593486729_"  style="overflow:visible;"/>
					</clipPath>
					<g style="clip-path:url(#SVGID_00000004537441162142479590000004150753242601587080_);enable-background:new    ;">
						<g>
							<g>
								<defs>
									<rect id="SVGID_00000161632003879378132810000005136458911266824376_" x="133.3" y="222.1" width="42.8" height="16.5"/>
								</defs>
								<clipPath id="SVGID_00000178885305224397278720000000586945519356603529_">
									<use xlink:href="#SVGID_00000161632003879378132810000005136458911266824376_"  style="overflow:visible;"/>
								</clipPath>
								<g style="clip-path:url(#SVGID_00000178885305224397278720000000586945519356603529_);">
									<g>
										<defs>
											<polygon id="SVGID_00000170976201911527208680000015875887058418719645_" points="154.6,238.3 147.5,238.3 138.1,226.2 
												138,226.2 138,238.3 133.4,238.3 133.4,222.2 140.6,222.2 149.9,234.3 150,234.3 150,222.2 154.6,222.2 											"/>
										</defs>
										<clipPath id="SVGID_00000126296983704089301510000003065331439508302246_">
											<use xlink:href="#SVGID_00000170976201911527208680000015875887058418719645_"  style="overflow:visible;"/>
										</clipPath>
										<g style="clip-path:url(#SVGID_00000126296983704089301510000003065331439508302246_);">
											<g>
												<defs>
													
														<rect id="SVGID_00000126300686643561670660000013357455137899262603_" x="1.8" y="184.4" width="227.7" height="54.1"/>
												</defs>
												<clipPath id="SVGID_00000086691812647208415550000000286426027838024616_">
													<use xlink:href="#SVGID_00000126300686643561670660000013357455137899262603_"  style="overflow:visible;"/>
												</clipPath>
												
													<rect x="132.2" y="221" style="clip-path:url(#SVGID_00000086691812647208415550000000286426027838024616_);fill:#FFFFFF;" width="23.6" height="18.5"/>
											</g>
										</g>
									</g>
								</g>
							</g>
							<g>
								<defs>
									<rect id="SVGID_00000155829496068314261920000016199739336130693763_" x="133.3" y="222.1" width="42.8" height="16.5"/>
								</defs>
								<clipPath id="SVGID_00000121996700754990787640000010422943626288951226_">
									<use xlink:href="#SVGID_00000155829496068314261920000016199739336130693763_"  style="overflow:visible;"/>
								</clipPath>
								<g style="clip-path:url(#SVGID_00000121996700754990787640000010422943626288951226_);">
									<g>
										<defs>
											<polygon id="SVGID_00000052076484945236445710000013372207434889834114_" points="176,238.3 158.4,238.3 158.4,222.2 
												175.7,222.2 175.7,225.7 163.1,225.7 163.1,228.5 175.1,228.5 175.1,231.9 163.1,231.9 163.1,234.7 176,234.7 
																							"/>
										</defs>
										<clipPath id="SVGID_00000122692967609827507050000008661948967069193878_">
											<use xlink:href="#SVGID_00000052076484945236445710000013372207434889834114_"  style="overflow:visible;"/>
										</clipPath>
										<g style="clip-path:url(#SVGID_00000122692967609827507050000008661948967069193878_);">
											<g>
												<defs>
													
														<rect id="SVGID_00000023257939326947053190000015200183219272180138_" x="1.8" y="184.4" width="227.7" height="54.1"/>
												</defs>
												<clipPath id="SVGID_00000034080127672377924590000011372741619039161530_">
													<use xlink:href="#SVGID_00000023257939326947053190000015200183219272180138_"  style="overflow:visible;"/>
												</clipPath>
												
													<rect x="157.2" y="221" style="clip-path:url(#SVGID_00000034080127672377924590000011372741619039161530_);fill:#FFFFFF;" width="20" height="18.5"/>
											</g>
										</g>
									</g>
								</g>
							</g>
						</g>
					</g>
				</g>
			</g>
		</g>
	</g>
	<g>
		<g>
			<defs>
				<path id="SVGID_00000067916132591847179180000010924529500923697585_" d="M18.9,213.3c-2.3,0-4.3-0.1-6.1-0.2
					c-1.7-0.1-3.2-0.3-4.5-0.6s-2.3-0.7-3.1-1.2s-1.5-1.2-2-1.9c-0.5-0.8-0.8-1.7-1-2.8s-0.3-2.3-0.3-3.7v-18.4h8.4v15.7
					c0,1,0,1.8,0.1,2.5s0.2,1.3,0.4,1.8s0.5,0.9,0.9,1.2s0.9,0.5,1.6,0.7c0.6,0.2,1.4,0.3,2.4,0.3c0.9,0.1,2.1,0.1,3.4,0.1h0.7
					c1.3,0,2.4,0,3.4-0.1c0.9-0.1,1.7-0.2,2.4-0.3c0.6-0.2,1.2-0.4,1.6-0.7s0.7-0.7,0.9-1.2c0.2-0.5,0.3-1.1,0.4-1.8
					s0.1-1.5,0.1-2.5v-15.7H37v18.4c0,1.4-0.1,2.6-0.3,3.7c-0.2,1.1-0.5,2-1,2.8s-1.1,1.4-2,1.9c-0.8,0.5-1.9,0.9-3.1,1.2
					c-1.3,0.3-2.8,0.5-4.5,0.6c-1.8,0.1-3.8,0.2-6.1,0.2H18.9z"/>
			</defs>
			<clipPath id="SVGID_00000060019702652911928750000005200083158291519143_">
				<use xlink:href="#SVGID_00000067916132591847179180000010924529500923697585_"  style="overflow:visible;"/>
			</clipPath>
			<g style="clip-path:url(#SVGID_00000060019702652911928750000005200083158291519143_);">
				<g>
					<defs>
						<rect id="SVGID_00000126292151491636479540000010535098290684129696_" x="-46.8" y="-94.5" width="705.6" height="470.4"/>
					</defs>
					<clipPath id="SVGID_00000176748478394493719730000002564550427876731583_">
						<use xlink:href="#SVGID_00000126292151491636479540000010535098290684129696_"  style="overflow:visible;"/>
					</clipPath>
					
						<rect x="0.7" y="183.3" style="clip-path:url(#SVGID_00000176748478394493719730000002564550427876731583_);fill:#FFFFFF;" width="37.4" height="31.2"/>
				</g>
			</g>
		</g>
	</g>
	<g>
		<g>
			<defs>
				<polygon id="SVGID_00000043453521669654745010000002108014588039990177_" points="80,213 67.5,213 51,191.7 50.8,191.7 
					50.8,213 42.6,213 42.6,184.5 55.3,184.5 71.7,205.8 71.8,205.8 71.8,184.5 80,184.5 				"/>
			</defs>
			<clipPath id="SVGID_00000042000486879969895260000009875858099865871234_">
				<use xlink:href="#SVGID_00000043453521669654745010000002108014588039990177_"  style="overflow:visible;"/>
			</clipPath>
			<g style="clip-path:url(#SVGID_00000042000486879969895260000009875858099865871234_);">
				<g>
					<defs>
						<rect id="SVGID_00000006706927632502126590000006712956777581319093_" x="-46.8" y="-94.5" width="705.6" height="470.4"/>
					</defs>
					<clipPath id="SVGID_00000157281255692257787500000011354698635264347808_">
						<use xlink:href="#SVGID_00000006706927632502126590000006712956777581319093_"  style="overflow:visible;"/>
					</clipPath>
					
						<rect x="41.4" y="183.3" style="clip-path:url(#SVGID_00000157281255692257787500000011354698635264347808_);fill:#FFFFFF;" width="39.8" height="30.9"/>
				</g>
			</g>
		</g>
	</g>
	<g>
		<g>
			<defs>
				<path id="SVGID_00000125595180798076881140000015575530569041934773_" d="M119.6,213h-8.3v-2.3c0-0.8,0-1.5-0.1-2.2
					c-0.1-0.6-0.2-1.1-0.4-1.5c-0.2-0.4-0.5-0.8-0.9-1c-0.4-0.3-0.9-0.4-1.6-0.6c-0.6-0.1-1.4-0.2-2.4-0.3c-0.9,0-2.1-0.1-3.4-0.1
					h-8.4v7.9h-8.3v-28.5H108c2.3,0,4.2,0.1,5.7,0.4c1.5,0.3,2.7,0.8,3.5,1.4c0.9,0.7,1.5,1.6,1.8,2.7c0.3,1.1,0.5,2.5,0.5,4.1v1
					c0,1.1-0.1,2.1-0.3,2.9c-0.2,0.8-0.5,1.6-0.9,2.2c-0.4,0.6-0.9,1.1-1.5,1.5s-1.4,0.7-2.3,0.9v0.2c1,0.2,1.8,0.4,2.5,0.6
					c0.6,0.3,1.1,0.6,1.5,1.1s0.6,1.2,0.7,2s0.2,1.8,0.2,3.1v4.5H119.6z M104.6,198.9c1.4,0,2.6,0,3.5-0.1s1.5-0.3,2-0.6
					c0.4-0.3,0.7-0.7,0.9-1.2c0.1-0.5,0.2-1.2,0.2-2v-0.5c0-0.8-0.1-1.5-0.2-2s-0.4-0.9-0.9-1.1c-0.5-0.3-1.1-0.4-2-0.5
					s-2-0.1-3.4-0.1H94.2v8.1L104.6,198.9L104.6,198.9z"/>
			</defs>
			<clipPath id="SVGID_00000026871963704770721440000009606576703347809701_">
				<use xlink:href="#SVGID_00000125595180798076881140000015575530569041934773_"  style="overflow:visible;"/>
			</clipPath>
			<g style="clip-path:url(#SVGID_00000026871963704770721440000009606576703347809701_);">
				<g>
					<defs>
						<rect id="SVGID_00000103235606377805926890000011800998780454766222_" x="-46.8" y="-94.5" width="705.6" height="470.4"/>
					</defs>
					<clipPath id="SVGID_00000140729131311228941950000007117659686996540863_">
						<use xlink:href="#SVGID_00000103235606377805926890000011800998780454766222_"  style="overflow:visible;"/>
					</clipPath>
					
						<rect x="84.7" y="183.3" style="clip-path:url(#SVGID_00000140729131311228941950000007117659686996540863_);fill:#FFFFFF;" width="36.1" height="30.9"/>
				</g>
			</g>
		</g>
	</g>
	<g>
		<g>
			<defs>
				<polygon id="SVGID_00000108993364545681658850000004403978884836543898_" points="156.1,213 125,213 125,184.5 155.6,184.5 
					155.6,190.8 133.4,190.8 133.4,195.6 154.4,195.6 154.4,201.6 133.4,201.6 133.4,206.5 156.1,206.5 				"/>
			</defs>
			<clipPath id="SVGID_00000155866204840448721480000007206409722183410847_">
				<use xlink:href="#SVGID_00000108993364545681658850000004403978884836543898_"  style="overflow:visible;"/>
			</clipPath>
			<g style="clip-path:url(#SVGID_00000155866204840448721480000007206409722183410847_);">
				<g>
					<defs>
						<rect id="SVGID_00000048476369299299374140000003749801531720661650_" x="-46.8" y="-94.5" width="705.6" height="470.4"/>
					</defs>
					<clipPath id="SVGID_00000080923444973968631270000010374618647386584203_">
						<use xlink:href="#SVGID_00000048476369299299374140000003749801531720661650_"  style="overflow:visible;"/>
					</clipPath>
					
						<rect x="123.9" y="183.3" style="clip-path:url(#SVGID_00000080923444973968631270000010374618647386584203_);fill:#FFFFFF;" width="33.4" height="30.9"/>
				</g>
			</g>
		</g>
	</g>
	<g>
		<g>
			<defs>
				<path id="SVGID_00000153670066429629708940000017321099058341102224_" d="M198.9,213h-9.1l-2.6-5.1h-17.8l-2.6,5.1h-9l15.3-28.5
					h10.3L198.9,213z M184.2,201.9l-5.8-11.5h-0.2l-5.8,11.5H184.2z"/>
			</defs>
			<clipPath id="SVGID_00000163053839220909074880000016179382525372459426_">
				<use xlink:href="#SVGID_00000153670066429629708940000017321099058341102224_"  style="overflow:visible;"/>
			</clipPath>
			<g style="clip-path:url(#SVGID_00000163053839220909074880000016179382525372459426_);">
				<g>
					<defs>
						<rect id="SVGID_00000132776265284973612080000008510970206219104405_" x="-46.8" y="-94.5" width="705.6" height="470.4"/>
					</defs>
					<clipPath id="SVGID_00000007403481955003334110000015524982076870579132_">
						<use xlink:href="#SVGID_00000132776265284973612080000008510970206219104405_"  style="overflow:visible;"/>
					</clipPath>
					
						<rect x="156.7" y="183.3" style="clip-path:url(#SVGID_00000007403481955003334110000015524982076870579132_);fill:#FFFFFF;" width="43.4" height="30.9"/>
				</g>
			</g>
		</g>
	</g>
	<g>
		<g>
			<defs>
				<polygon id="SVGID_00000178180795621756084800000006701105201764716692_" points="229.5,213 202,213 202,184.5 210.4,184.5 
					210.4,206.4 229.5,206.4 				"/>
			</defs>
			<clipPath id="SVGID_00000052800462658446944170000016446857241853040296_">
				<use xlink:href="#SVGID_00000178180795621756084800000006701105201764716692_"  style="overflow:visible;"/>
			</clipPath>
			<g style="clip-path:url(#SVGID_00000052800462658446944170000016446857241853040296_);">
				<g>
					<defs>
						<rect id="SVGID_00000131345221254179943950000013205770131650530978_" x="-46.8" y="-94.5" width="705.6" height="470.4"/>
					</defs>
					<clipPath id="SVGID_00000022548679253551643600000016715863484401584828_">
						<use xlink:href="#SVGID_00000131345221254179943950000013205770131650530978_"  style="overflow:visible;"/>
					</clipPath>
					
						<rect x="200.8" y="183.3" style="clip-path:url(#SVGID_00000022548679253551643600000016715863484401584828_);fill:#FFFFFF;" width="29.8" height="30.9"/>
				</g>
			</g>
		</g>
	</g>
	<g>
		<g>
			<defs>
				<rect id="SVGID_00000129886028867399530860000014600890543994565035_" x="125" y="222.2" width="4.8" height="16.2"/>
			</defs>
			<clipPath id="SVGID_00000028311019494282557950000001714930776153223083_">
				<use xlink:href="#SVGID_00000129886028867399530860000014600890543994565035_"  style="overflow:visible;"/>
			</clipPath>
			<g style="clip-path:url(#SVGID_00000028311019494282557950000001714930776153223083_);">
				<g>
					<defs>
						<rect id="SVGID_00000082366700302681557330000007248544723788355745_" x="-46.8" y="-94.5" width="705.6" height="470.4"/>
					</defs>
					<clipPath id="SVGID_00000129207526772581111980000010164141444584941994_">
						<use xlink:href="#SVGID_00000082366700302681557330000007248544723788355745_"  style="overflow:visible;"/>
					</clipPath>
					
						<rect x="123.8" y="221" style="clip-path:url(#SVGID_00000129207526772581111980000010164141444584941994_);fill:#FFFFFF;" width="7.1" height="18.5"/>
				</g>
			</g>
		</g>
	</g>
</g>
</svg>
